<svg xmlns="http://www.w3.org/2000/svg" width="328.045" height="235.157" viewBox="0 0 328.045 235.157"><defs><style>.a{fill:#2e353a;}.b{fill:#ebebeb;}.c{fill:#f5f5f5;}.d{fill:#e6e6e6;}.e{fill:#fafafa;}.f{fill:#f0f0f0;}.g{fill:#e0e0e0;}.h,.j,.l{opacity:0.4;}.i,.n{fill:#b7d2b6;}.j,.k,.m,.p{fill:#fff;}.k,.n{opacity:0.7;}.l,.q{fill:#263238;}.m{opacity:0.2;}.o{fill:#a4bda4;}</style></defs><g transform="translate(-22.66 -114.502)"><g transform="translate(51.688 341.328)"><ellipse class="a" cx="149.509" cy="4.165" rx="149.509" ry="4.165"/></g><g transform="translate(22.66 68.922)"><g transform="translate(0 45.58)"><rect class="b" width="306.529" height="0.153" transform="translate(0 206.49)"/><path class="b" d="M160.08,228.373H41.7a3.5,3.5,0,0,1-3.494-3.5V58.47A3.5,3.5,0,0,1,41.7,55H160.08a3.5,3.5,0,0,1,3.5,3.5V224.872A3.5,3.5,0,0,1,160.08,228.373ZM41.7,55.123a3.347,3.347,0,0,0-3.341,3.347v166.4A3.347,3.347,0,0,0,41.7,228.22H160.08a3.353,3.353,0,0,0,3.347-3.347V58.47a3.353,3.353,0,0,0-3.347-3.347Z" transform="translate(-14.785 -49.225)"/><path class="b" d="M376.382,228.373H258a3.507,3.507,0,0,1-3.5-3.5V58.47A3.507,3.507,0,0,1,258,55H376.382a3.5,3.5,0,0,1,3.488,3.47v166.4A3.5,3.5,0,0,1,376.382,228.373ZM258,55.123a3.353,3.353,0,0,0-3.347,3.347v166.4A3.353,3.353,0,0,0,258,228.22H376.382a3.353,3.353,0,0,0,3.347-3.347V58.47a3.353,3.353,0,0,0-3.347-3.347Z" transform="translate(-98.477 -49.225)"/><rect class="b" width="15.94" height="0.153" transform="translate(259.876 216.355)"/><rect class="b" width="27.606" height="0.153" transform="translate(190.661 218.022)"/><rect class="b" width="37.268" height="0.153" transform="translate(221.995 210.665)"/><rect class="b" width="11.789" height="0.153" transform="translate(32.161 211.695)"/><rect class="b" width="33.896" height="0.153" transform="translate(49.413 211.695)"/><rect class="b" width="45.654" height="0.153" transform="translate(104.018 214.282)"/><rect class="c" width="62.354" height="140.666" transform="translate(49.413 65.824)"/><rect class="d" width="50.645" height="130.79" transform="translate(55.261 70.759)"/><rect class="e" width="43.68" height="2.992" transform="translate(58.749 76.89)"/><rect class="e" width="43.68" height="2.992" transform="translate(58.749 83.689)"/><rect class="e" width="43.68" height="2.992" transform="translate(58.749 90.481)"/><rect class="e" width="43.68" height="2.992" transform="translate(58.749 97.28)"/><rect class="e" width="43.68" height="2.992" transform="translate(58.749 104.079)"/><rect class="e" width="43.68" height="2.992" transform="translate(58.749 110.872)"/><rect class="e" width="43.68" height="2.992" transform="translate(58.749 117.67)"/><rect class="e" width="43.68" height="2.992" transform="translate(58.749 124.463)"/><rect class="e" width="43.68" height="2.992" transform="translate(58.749 131.262)"/><rect class="e" width="43.68" height="2.992" transform="translate(58.749 138.061)"/><rect class="e" width="43.68" height="2.992" transform="translate(58.749 144.853)"/><rect class="e" width="43.68" height="2.992" transform="translate(58.749 151.652)"/><rect class="e" width="43.68" height="2.992" transform="translate(58.749 158.445)"/><rect class="e" width="43.68" height="2.992" transform="translate(58.749 165.244)"/><rect class="e" width="43.68" height="2.992" transform="translate(58.749 172.043)"/><rect class="e" width="43.68" height="2.992" transform="translate(58.749 178.835)"/><rect class="e" width="43.68" height="2.992" transform="translate(58.749 185.634)"/><rect class="e" width="43.68" height="2.992" transform="translate(58.749 192.427)"/><rect class="d" width="17.251" height="140.666" transform="translate(49.413 206.484) rotate(180)"/><rect class="f" width="48.934" height="2.422" transform="translate(54.262 63.403)"/><rect class="g" width="13.536" height="2.422" transform="translate(54.262 65.824) rotate(180)"/><ellipse class="c" cx="1.87" cy="4.561" rx="1.87" ry="4.561" transform="translate(44.447 67.05)"/><path class="c" d="M53.46,159.531c0,2.52.564,4.561,1.263,4.561s1.263-2.041,1.263-4.561S55.422,155,54.723,155,53.46,157.011,53.46,159.531Z" transform="translate(-20.686 -87.919)"/><ellipse class="c" cx="1.87" cy="4.561" rx="1.87" ry="4.561" transform="translate(44.447 196.136)"/><path class="c" d="M53.46,370.121c0,2.526.564,4.567,1.263,4.567s1.263-2.041,1.263-4.567-.564-4.561-1.263-4.561S53.46,367.571,53.46,370.121Z" transform="translate(-20.686 -169.394)"/><rect class="c" width="48.444" height="109.29" transform="translate(179.405 97.194)"/><rect class="d" width="39.352" height="101.621" transform="translate(183.948 101.032)"/><rect class="e" width="33.939" height="2.323" transform="translate(186.658 105.796)"/><rect class="e" width="33.939" height="2.323" transform="translate(186.658 111.08)"/><rect class="e" width="33.939" height="2.323" transform="translate(186.658 116.359)"/><rect class="e" width="33.939" height="2.323" transform="translate(186.658 121.637)"/><rect class="e" width="33.939" height="2.323" transform="translate(186.658 126.922)"/><rect class="e" width="33.939" height="2.323" transform="translate(186.658 132.2)"/><rect class="e" width="33.939" height="2.323" transform="translate(186.658 137.478)"/><rect class="e" width="33.939" height="2.323" transform="translate(186.658 142.763)"/><rect class="e" width="33.939" height="2.323" transform="translate(186.658 148.041)"/><rect class="e" width="33.939" height="2.323" transform="translate(186.658 153.32)"/><rect class="e" width="33.939" height="2.323" transform="translate(186.658 158.604)"/><rect class="e" width="33.939" height="2.323" transform="translate(186.658 163.883)"/><rect class="e" width="33.939" height="2.323" transform="translate(186.658 169.161)"/><rect class="e" width="33.939" height="2.323" transform="translate(186.658 174.446)"/><rect class="e" width="33.939" height="2.323" transform="translate(186.658 179.724)"/><rect class="e" width="33.939" height="2.323" transform="translate(186.658 185.003)"/><rect class="e" width="33.939" height="2.323" transform="translate(186.658 190.287)"/><rect class="e" width="33.939" height="2.323" transform="translate(186.658 195.566)"/><rect class="d" width="13.401" height="109.29" transform="translate(179.405 206.49) rotate(180)"/><rect class="f" width="38.022" height="1.882" transform="translate(183.176 95.318)"/><rect class="g" width="10.52" height="1.882" transform="translate(183.17 97.194) rotate(180)"/><path class="c" d="M286.35,209.223c0,1.962.65,3.55,1.447,3.55s1.453-1.588,1.453-3.55-.65-3.543-1.453-3.543S286.35,207.268,286.35,209.223Z" transform="translate(-110.801 -107.529)"/><path class="c" d="M271.55,209.223c0,1.962.441,3.55.981,3.55s.987-1.588.987-3.55-.441-3.543-.987-3.543S271.55,207.268,271.55,209.223Z" transform="translate(-105.074 -107.529)"/><path class="c" d="M286.35,372.823c0,1.962.65,3.543,1.447,3.543s1.453-1.582,1.453-3.543-.65-3.543-1.453-3.543S286.35,370.868,286.35,372.823Z" transform="translate(-110.801 -170.833)"/><path class="c" d="M271.55,372.823c0,1.962.441,3.543.981,3.543s.987-1.582.987-3.543-.441-3.543-.987-3.543S271.55,370.868,271.55,372.823Z" transform="translate(-105.074 -170.833)"/><path class="g" d="M247.536,196.886H218.955a7.154,7.154,0,0,1-7.148-7.142v-9.656a6.541,6.541,0,0,0-6.529-6.535H182.3v-.613h22.977a7.154,7.154,0,0,1,7.142,7.148v9.631a6.541,6.541,0,0,0,6.535,6.554h28.581Z" transform="translate(-70.539 -94.861)"/><path class="g" d="M238,331.124h-8.675a7.154,7.154,0,0,1-7.142-7.142V267.862a6.541,6.541,0,0,0-6.535-6.529H182.3v-.613h33.369a7.154,7.154,0,0,1,7.148,7.142v56.119a6.541,6.541,0,0,0,6.5,6.529h8.65Z" transform="translate(-70.539 -128.827)"/><rect class="f" width="32.363" height="3.311" transform="translate(232.257 32.572)"/><rect class="g" width="8.957" height="3.311" transform="translate(232.257 35.888) rotate(180)"/><rect class="f" width="32.363" height="3.311" transform="translate(232.257 24.467)"/><rect class="g" width="8.957" height="3.311" transform="translate(232.257 27.772) rotate(180)"/><rect class="f" width="32.363" height="3.311" transform="translate(232.257 16.356)"/><rect class="g" width="8.957" height="3.311" transform="translate(232.257 19.667) rotate(180)"/><rect class="f" width="32.363" height="3.311" transform="translate(232.257 8.246)"/><rect class="g" width="8.957" height="3.311" transform="translate(232.257 11.556) rotate(180)"/><g class="h" transform="translate(226.525)"><rect class="f" width="27.312" height="32.572" transform="translate(7.559 0.006)"/><rect class="g" width="7.559" height="32.572" transform="translate(7.559 32.572) rotate(180)"/></g><rect class="f" width="23.633" height="2.415" transform="translate(157.452 86.417)"/><rect class="g" width="6.535" height="2.415" transform="translate(157.452 88.832) rotate(180)"/><rect class="f" width="23.633" height="2.415" transform="translate(157.452 80.495)"/><rect class="g" width="6.535" height="2.415" transform="translate(157.452 82.91) rotate(180)"/><rect class="f" width="23.633" height="2.415" transform="translate(157.452 74.572)"/><rect class="g" width="6.535" height="2.415" transform="translate(157.452 76.994) rotate(180)"/><rect class="f" width="23.633" height="2.415" transform="translate(157.452 68.65)"/><rect class="g" width="6.535" height="2.415" transform="translate(157.452 71.072) rotate(180)"/><g class="h" transform="translate(153.271 62.636)"><rect class="f" width="19.943" height="23.781" transform="translate(5.518)"/><rect class="g" width="5.518" height="23.781" transform="translate(5.518 23.781) rotate(180)"/></g><rect class="f" width="30.457" height="3.114" transform="translate(259.385 163.055)"/><rect class="g" width="8.423" height="3.114" transform="translate(259.385 166.17) rotate(180)"/><rect class="f" width="30.457" height="3.114" transform="translate(259.385 155.423)"/><rect class="g" width="8.423" height="3.114" transform="translate(259.385 158.537) rotate(180)"/><rect class="f" width="30.457" height="3.114" transform="translate(259.385 147.79)"/><rect class="g" width="8.423" height="3.114" transform="translate(259.385 150.911) rotate(180)"/><rect class="f" width="30.457" height="3.114" transform="translate(259.385 140.164)"/><rect class="g" width="8.423" height="3.114" transform="translate(259.385 143.272) rotate(180)"/><g class="h" transform="translate(253.996 132.402)"><rect class="f" width="25.706" height="30.653" transform="translate(7.105)"/><rect class="g" width="7.111" height="30.653" transform="translate(7.111 30.653) rotate(180)"/></g></g><g transform="translate(72.188 88.31)"><rect class="i" width="66.756" height="64.028" transform="translate(123.059)"/><rect class="j" width="66.756" height="64.028" transform="translate(123.059)"/><rect class="k" width="45.501" height="64.028" transform="translate(144.308)"/><rect class="i" width="40.952" height="7.927" transform="translate(146.582 3.268)"/><rect class="i" width="40.952" height="7.927" transform="translate(146.582 13.181)"/><rect class="i" width="40.952" height="7.927" transform="translate(146.582 23.094)"/><rect class="i" width="40.952" height="7.927" transform="translate(146.582 33.001)"/><rect class="i" width="40.952" height="7.927" transform="translate(146.582 42.914)"/><rect class="i" width="40.952" height="7.927" transform="translate(146.582 52.827)"/><rect class="i" width="16.485" height="7.927" transform="translate(125.444 3.268)"/><rect class="i" width="16.485" height="7.927" transform="translate(125.444 13.181)"/><rect class="i" width="16.485" height="7.927" transform="translate(125.444 23.094)"/><rect class="i" width="16.485" height="7.927" transform="translate(125.444 33.001)"/><rect class="i" width="16.485" height="7.927" transform="translate(125.444 42.914)"/><rect class="i" width="16.485" height="7.927" transform="translate(125.444 52.827)"/><rect class="l" width="7.737" height="4.757" transform="translate(126.964 4.855)"/><rect class="l" width="7.737" height="4.757" transform="translate(126.964 14.762)"/><rect class="l" width="7.737" height="4.757" transform="translate(126.964 24.676)"/><rect class="l" width="7.737" height="4.757" transform="translate(126.964 34.589)"/><rect class="l" width="7.737" height="4.757" transform="translate(126.964 44.502)"/><rect class="l" width="7.737" height="4.757" transform="translate(126.964 54.415)"/><rect class="k" width="0.956" height="5.861" transform="translate(184.574 4.298)"/><rect class="k" width="0.956" height="5.861" transform="translate(182.734 4.298)"/><rect class="k" width="0.956" height="5.861" transform="translate(180.895 4.298)"/><rect class="k" width="0.956" height="5.861" transform="translate(179.056 4.298)"/><rect class="k" width="0.956" height="5.861" transform="translate(177.217 4.298)"/><rect class="k" width="0.956" height="5.861" transform="translate(184.574 14.211)"/><rect class="k" width="0.956" height="5.861" transform="translate(182.734 14.211)"/><rect class="k" width="0.956" height="5.861" transform="translate(180.895 14.211)"/><rect class="k" width="0.956" height="5.861" transform="translate(179.056 14.211)"/><rect class="k" width="0.956" height="5.861" transform="translate(177.217 14.211)"/><rect class="k" width="0.956" height="5.861" transform="translate(184.574 24.124)"/><rect class="k" width="0.956" height="5.861" transform="translate(182.734 24.124)"/><rect class="k" width="0.956" height="5.861" transform="translate(180.895 24.124)"/><rect class="k" width="0.956" height="5.861" transform="translate(179.056 24.124)"/><rect class="k" width="0.956" height="5.861" transform="translate(177.217 24.124)"/><rect class="k" width="0.956" height="5.867" transform="translate(184.574 34.037)"/><rect class="k" width="0.956" height="5.867" transform="translate(182.734 34.037)"/><rect class="k" width="0.956" height="5.867" transform="translate(180.895 34.037)"/><rect class="k" width="0.956" height="5.867" transform="translate(179.056 34.037)"/><rect class="k" width="0.956" height="5.867" transform="translate(177.217 34.037)"/><rect class="k" width="0.956" height="5.867" transform="translate(184.574 43.95)"/><rect class="k" width="0.956" height="5.867" transform="translate(182.734 43.95)"/><rect class="k" width="0.956" height="5.867" transform="translate(180.895 43.95)"/><rect class="k" width="0.956" height="5.867" transform="translate(179.056 43.95)"/><rect class="k" width="0.956" height="5.867" transform="translate(177.217 43.95)"/><rect class="k" width="0.956" height="5.861" transform="translate(184.574 53.863)"/><rect class="k" width="0.956" height="5.861" transform="translate(182.734 53.863)"/><rect class="k" width="0.956" height="5.861" transform="translate(180.895 53.863)"/><rect class="k" width="0.956" height="5.861" transform="translate(179.056 53.863)"/><rect class="k" width="0.956" height="5.861" transform="translate(177.217 53.863)"/><path class="m" d="M381.44,207.3a.975.975,0,1,1,.975.975A.975.975,0,0,1,381.44,207.3Z" transform="translate(-219.783 -150.511)"/><path class="m" d="M371.44,207.3a.975.975,0,1,1,.975.975A.975.975,0,0,1,371.44,207.3Z" transform="translate(-215.913 -150.511)"/><path class="j" d="M361.44,207.3a.975.975,0,1,1,.975.975A.975.975,0,0,1,361.44,207.3Z" transform="translate(-212.044 -150.511)"/><path class="j" d="M381.44,191.135a.975.975,0,1,1,.975.975A.975.975,0,0,1,381.44,191.135Z" transform="translate(-219.783 -144.254)"/><path class="m" d="M371.44,191.135a.975.975,0,1,1,.975.975A.975.975,0,0,1,371.44,191.135Z" transform="translate(-215.913 -144.254)"/><path class="j" d="M361.44,191.135a.975.975,0,1,1,.975.975A.975.975,0,0,1,361.44,191.135Z" transform="translate(-212.044 -144.254)"/><path class="m" d="M381.44,174.965a.975.975,0,1,1,.975.975A.975.975,0,0,1,381.44,174.965Z" transform="translate(-219.783 -137.997)"/><path class="j" d="M371.44,174.965a.975.975,0,1,1,.975.975A.975.975,0,0,1,371.44,174.965Z" transform="translate(-215.913 -137.997)"/><path class="m" d="M361.44,174.965a.975.975,0,1,1,.975.975A.975.975,0,0,1,361.44,174.965Z" transform="translate(-212.044 -137.997)"/><path class="j" d="M381.44,158.795a.975.975,0,1,1,.956.975A.975.975,0,0,1,381.44,158.795Z" transform="translate(-219.783 -131.741)"/><path class="m" d="M371.44,158.795a.975.975,0,1,1,.956.975A.975.975,0,0,1,371.44,158.795Z" transform="translate(-215.913 -131.741)"/><path class="m" d="M361.44,158.795a.975.975,0,1,1,.956.975A.975.975,0,0,1,361.44,158.795Z" transform="translate(-212.044 -131.741)"/><path class="m" d="M381.44,142.625a.975.975,0,1,1,.975.975A.975.975,0,0,1,381.44,142.625Z" transform="translate(-219.783 -125.484)"/><path class="j" d="M371.44,142.625a.975.975,0,1,1,.975.975A.975.975,0,0,1,371.44,142.625Z" transform="translate(-215.913 -125.484)"/><path class="j" d="M361.44,142.625a.975.975,0,1,1,.975.975A.975.975,0,0,1,361.44,142.625Z" transform="translate(-212.044 -125.484)"/><path class="j" d="M381.44,126.461a.975.975,0,1,1,.975.969.975.975,0,0,1-.975-.969Z" transform="translate(-219.783 -119.227)"/><path class="m" d="M371.44,126.461a.975.975,0,1,1,.975.969.975.975,0,0,1-.975-.969Z" transform="translate(-215.913 -119.227)"/><path class="j" d="M361.44,126.461a.975.975,0,1,1,.975.969.975.975,0,0,1-.975-.969Z" transform="translate(-212.044 -119.227)"/><rect class="i" width="66.756" height="64.028" transform="translate(0 120.472)"/><rect class="j" width="66.756" height="64.028" transform="translate(0 120.472)"/><rect class="k" width="45.501" height="64.028" transform="translate(21.249 120.472)"/><rect class="i" width="40.952" height="7.927" transform="translate(23.523 123.746)"/><rect class="i" width="40.952" height="7.927" transform="translate(23.523 133.659)"/><rect class="i" width="40.952" height="7.927" transform="translate(23.523 143.566)"/><rect class="i" width="40.952" height="7.927" transform="translate(23.523 153.479)"/><rect class="i" width="40.952" height="7.927" transform="translate(23.523 163.392)"/><rect class="i" width="40.952" height="7.927" transform="translate(23.523 173.306)"/><rect class="i" width="16.485" height="7.927" transform="translate(2.385 123.746)"/><rect class="i" width="16.485" height="7.927" transform="translate(2.385 133.659)"/><rect class="i" width="16.485" height="7.927" transform="translate(2.385 143.566)"/><rect class="i" width="16.485" height="7.927" transform="translate(2.385 153.479)"/><rect class="i" width="16.485" height="7.927" transform="translate(2.385 163.392)"/><rect class="i" width="16.485" height="7.927" transform="translate(2.385 173.306)"/><rect class="l" width="7.737" height="4.757" transform="translate(3.905 125.328)"/><rect class="l" width="7.737" height="4.757" transform="translate(3.905 135.241)"/><rect class="l" width="7.737" height="4.757" transform="translate(3.905 145.154)"/><rect class="l" width="7.737" height="4.757" transform="translate(3.905 155.067)"/><rect class="l" width="7.737" height="4.757" transform="translate(3.905 164.98)"/><rect class="l" width="7.737" height="4.757" transform="translate(3.905 174.893)"/><rect class="k" width="0.956" height="5.867" transform="translate(61.514 124.776)"/><rect class="k" width="0.956" height="5.867" transform="translate(59.675 124.776)"/><rect class="k" width="0.956" height="5.867" transform="translate(57.836 124.776)"/><rect class="k" width="0.956" height="5.867" transform="translate(55.997 124.776)"/><rect class="k" width="0.956" height="5.867" transform="translate(54.158 124.776)"/><rect class="k" width="0.956" height="5.861" transform="translate(61.514 134.689)"/><rect class="k" width="0.956" height="5.861" transform="translate(59.675 134.689)"/><rect class="k" width="0.956" height="5.861" transform="translate(57.836 134.689)"/><rect class="k" width="0.956" height="5.861" transform="translate(55.997 134.689)"/><rect class="k" width="0.956" height="5.861" transform="translate(54.158 134.689)"/><rect class="k" width="0.956" height="5.861" transform="translate(61.514 144.602)"/><rect class="k" width="0.956" height="5.861" transform="translate(59.675 144.602)"/><rect class="k" width="0.956" height="5.861" transform="translate(57.836 144.602)"/><rect class="k" width="0.956" height="5.861" transform="translate(55.997 144.602)"/><rect class="k" width="0.956" height="5.861" transform="translate(54.158 144.602)"/><rect class="k" width="0.956" height="5.867" transform="translate(61.514 154.515)"/><rect class="k" width="0.956" height="5.867" transform="translate(59.675 154.515)"/><rect class="k" width="0.956" height="5.867" transform="translate(57.836 154.515)"/><rect class="k" width="0.956" height="5.867" transform="translate(55.997 154.515)"/><rect class="k" width="0.956" height="5.867" transform="translate(54.158 154.515)"/><rect class="k" width="0.956" height="5.861" transform="translate(61.514 164.428)"/><rect class="k" width="0.956" height="5.861" transform="translate(59.675 164.428)"/><rect class="k" width="0.956" height="5.861" transform="translate(57.836 164.428)"/><rect class="k" width="0.956" height="5.861" transform="translate(55.997 164.428)"/><rect class="k" width="0.956" height="5.861" transform="translate(54.158 164.428)"/><rect class="k" width="0.956" height="5.867" transform="translate(61.514 174.335)"/><rect class="k" width="0.956" height="5.867" transform="translate(59.675 174.335)"/><rect class="k" width="0.956" height="5.867" transform="translate(57.836 174.335)"/><rect class="k" width="0.956" height="5.867" transform="translate(55.997 174.335)"/><rect class="k" width="0.956" height="5.867" transform="translate(54.158 174.335)"/><path class="m" d="M162.66,322.975a.975.975,0,1,1-.975-.975A.975.975,0,0,1,162.66,322.975Z" transform="translate(-134.373 -195.269)"/><path class="m" d="M172.66,322.975a.975.975,0,1,1-.975-.975A.975.975,0,0,1,172.66,322.975Z" transform="translate(-138.242 -195.269)"/><path class="j" d="M182.66,322.975a.975.975,0,1,1-.975-.975A.975.975,0,0,1,182.66,322.975Z" transform="translate(-142.112 -195.269)"/><path class="j" d="M162.66,339.145a.975.975,0,1,1-.975-.975A.975.975,0,0,1,162.66,339.145Z" transform="translate(-134.373 -201.525)"/><path class="m" d="M172.66,339.145a.975.975,0,1,1-.975-.975A.975.975,0,0,1,172.66,339.145Z" transform="translate(-138.242 -201.525)"/><path class="j" d="M182.66,339.145a.975.975,0,1,1-.975-.975A.975.975,0,0,1,182.66,339.145Z" transform="translate(-142.112 -201.525)"/><path class="m" d="M162.66,355.315a.975.975,0,1,1-.975-.975A.975.975,0,0,1,162.66,355.315Z" transform="translate(-134.373 -207.782)"/><path class="j" d="M172.66,355.315a.975.975,0,1,1-.975-.975A.975.975,0,0,1,172.66,355.315Z" transform="translate(-138.242 -207.782)"/><path class="m" d="M182.66,355.315a.975.975,0,1,1-.975-.975A.975.975,0,0,1,182.66,355.315Z" transform="translate(-142.112 -207.782)"/><path class="j" d="M162.66,371.485a.975.975,0,1,1-.975-.975A.975.975,0,0,1,162.66,371.485Z" transform="translate(-134.373 -214.039)"/><path class="m" d="M172.66,371.485a.975.975,0,1,1-.975-.975A.975.975,0,0,1,172.66,371.485Z" transform="translate(-138.242 -214.039)"/><path class="m" d="M182.66,371.485a.975.975,0,1,1-.975-.975A.975.975,0,0,1,182.66,371.485Z" transform="translate(-142.112 -214.039)"/><path class="m" d="M162.66,387.655a.975.975,0,1,1-.975-.975A.975.975,0,0,1,162.66,387.655Z" transform="translate(-134.373 -220.296)"/><path class="j" d="M172.66,387.655a.975.975,0,1,1-.975-.975A.975.975,0,0,1,172.66,387.655Z" transform="translate(-138.242 -220.296)"/><path class="j" d="M182.66,387.655a.975.975,0,1,1-.975-.975A.975.975,0,0,1,182.66,387.655Z" transform="translate(-142.112 -220.296)"/><path class="j" d="M162.66,403.825a.975.975,0,1,1-.975-.975A.975.975,0,0,1,162.66,403.825Z" transform="translate(-134.373 -226.553)"/><path class="m" d="M172.66,403.825a.975.975,0,1,1-.975-.975A.975.975,0,0,1,172.66,403.825Z" transform="translate(-138.242 -226.553)"/><path class="j" d="M182.66,403.825a.975.975,0,1,1-.975-.975A.975.975,0,0,1,182.66,403.825Z" transform="translate(-142.112 -226.553)"/><rect class="i" width="1.226" height="56.168" transform="translate(163.54 64.028)"/><path class="n" d="M295.136,364.226H288.27V363h6.866Zm-14.223,0h-7.357V363h7.357Zm-14.713,0h-7.357V363H266.2Zm-14.713,0H244.13V363h7.357Z" transform="translate(-166.652 -211.133)"/></g></g><g transform="translate(69.009 15.135) rotate(18)"><path class="o" d="M361.542,310.273,338.3,424.294a7.249,7.249,0,0,0,9.408,8.329l110.364-36.89a7.233,7.233,0,0,0,2.513-12.291l-87.118-77.147a7.249,7.249,0,0,0-11.921,3.979Z" transform="translate(-203.031 -188.483)"/><path class="p" d="M346.749,407.693l18.316-89.809a2.964,2.964,0,0,1,4.833-1.611l68.609,60.748a2.948,2.948,0,0,1-1.031,5.01l-86.909,29a2.948,2.948,0,0,1-3.818-3.335Z" transform="translate(-197.806 -181.709)"/><path class="q" d="M360.552,336.263l2.529,7.587.145.354,8.6,18.074a3.222,3.222,0,0,0,3.866,1.611l3.367-1.128a3.222,3.222,0,0,0,2.094-3.625L377.224,339.5l-.1-.37-2.545-7.587a3.222,3.222,0,0,0-4-2l-8.055,2.674A3.222,3.222,0,0,0,360.552,336.263Z" transform="translate(-189.443 -173.25)"/><path class="q" d="M380.575,356.951a5.686,5.686,0,1,1-2.858-3.306A5.7,5.7,0,0,1,380.575,356.951Z" transform="translate(-183.901 -158.803)"/></g></g></svg>