<svg xmlns="http://www.w3.org/2000/svg" width="250.468" height="215.909" viewBox="0 0 250.468 215.909"><defs><style>.a,.d,.g{fill:#b7d2b6;}.b,.f{fill:#fff;}.b{opacity:0.7;}.c,.i,.j,.k{fill:none;}.c{stroke:gray;}.c,.d,.e,.f,.i{stroke-linecap:round;stroke-linejoin:round;}.d,.e,.f,.g,.h,.i,.j{stroke:#263238;}.e,.h{fill:#263238;}.g,.h,.j,.k{stroke-miterlimit:10;}.j{stroke-width:2px;}.k{stroke:#b7d2b6;stroke-width:5px;}</style></defs><g transform="translate(-45.894 -66.61)"><g transform="translate(45.894 70.229)"><path class="a" d="M119.82,277.3s39.951,17.617,81.471-2.789,64.583-65.236,84.222-101.06,11.933-74.28-17.617-93.706-51.921,4.4-94.937,2.512-54.182-8.918-91.307,12.957-47.1,79.185-21.6,124S119.82,277.3,119.82,277.3Z" transform="translate(-45.894 -72.076)"/><path class="b" d="M119.82,277.3s39.951,17.617,81.471-2.789,64.583-65.236,84.222-101.06,11.933-74.28-17.617-93.706-51.921,4.4-94.937,2.512-54.182-8.918-91.307,12.957-47.1,79.185-21.6,124S119.82,277.3,119.82,277.3Z" transform="translate(-45.894 -72.076)"/></g><g transform="translate(46.676 67.11)"><path class="c" d="M87.815,132.625a82.571,82.571,0,0,0-17.02,42.62L59,173.524A94.346,94.346,0,0,1,78.658,125Z" transform="translate(-51.551 -88.642)"/><path class="c" d="M209.608,341.89A94.9,94.9,0,0,1,109,325.818l7.907-8.918a83.016,83.016,0,0,0,87.965,14.043Z" transform="translate(-70.149 -160.018)"/><path class="c" d="M188.8,238.035a83.016,83.016,0,0,1-87.965-14.043l-7.9,8.918A94.874,94.874,0,0,1,65.8,191.835l11.462-3.348,4.83-1.407,8.454-2.468,57.071-16.669h0l3.894-1.137L110,213.641A68.735,68.735,0,0,0,127.9,225.154l26.089-59.069,1.608-.471-.948-1.024-.628-.628-.389-.421-1.137-1.218-.333-.358-2.512-2.719L106.869,113.2l-5.985-6.444-3.423-3.687-8.108-8.761a94.535,94.535,0,0,1,66.473-27.2v94.836L148.4,93.256a68.615,68.615,0,0,0-33.35,12.919l40.773,55.771,7.449,68.69a68.459,68.459,0,0,0,20.054-5.288l3.492,8.071Z" transform="translate(-54.081 -67.11)"/><path class="c" d="M98.644,140.376a77.427,77.427,0,0,0-15.9,40.1l-4.962-.71A82.57,82.57,0,0,1,94.8,137.16Z" transform="translate(-58.536 -93.165)"/><path class="c" d="M163.918,222.971l1.4-1.583.948-1.068.188-.214,1.771-2H99.14" transform="translate(-66.481 -123.274)"/><path class="c" d="M71.006,218.11H47.14" transform="translate(-47.14 -123.274)"/><line class="c" x1="10.583" y2="11.939" transform="translate(28.262 165.8)"/><path class="c" d="M121.58,310.77l3.335-3.762,5.835-6.588" transform="translate(-74.828 -153.888)"/><path class="c" d="M310.384,179.688a82.9,82.9,0,0,1-49.93,76.089l-2-4.616a77.879,77.879,0,0,0,17.516-132.413l3.14-3.938a82.771,82.771,0,0,1,31.277,64.878Z" transform="translate(-125.736 -84.852)"/><path class="c" d="M274.17,114.988l-5.477,6.909a68.616,68.616,0,0,0-15.073-9.144l3.555-8.052a77.8,77.8,0,0,1,17,10.288Z" transform="translate(-123.939 -81.091)"/><path class="c" d="M291.33,102.275,308.168,81.11H327.01" transform="translate(-137.965 -72.317)"/><line class="c" x1="43.009" y2="54.063" transform="translate(101.745 40.773)"/><path class="c" d="M178.964,121.647,177.57,108.74a68.615,68.615,0,0,0-33.35,12.919l7.662,10.482a55.809,55.809,0,0,1,27.082-10.495Z" transform="translate(-83.248 -82.594)"/><path class="c" d="M219.09,307.464l1.2,10.859a68.457,68.457,0,0,0,20.054-5.288l-4.4-10.174A56.176,56.176,0,0,1,219.09,307.464Z" transform="translate(-111.096 -154.796)"/><path class="c" d="M175.7,253.76a69.35,69.35,0,0,1-35.341-5.483l26.089-59.069-2.481.722-41.514,46.834a68.967,68.967,0,0,1-23.238-51.7q0-3.165.289-6.281a69.1,69.1,0,0,1,28.024-49.51l40.773,55.771Z" transform="translate(-66.511 -90.234)"/><line class="c" x1="1.815" y2="4.107" transform="translate(133.217 19.47)"/><line class="c" x1="27.917" y2="63.207" transform="translate(101.745 31.629)"/><path class="c" d="M195.04,87.69l.484,4.478.948,8.743" transform="translate(-102.151 -74.765)"/><line class="c" x1="75.367" y1="33.287" transform="translate(26.378 61.549)"/><path class="c" d="M94.328,225.534l-8.743.948a78.468,78.468,0,0,1-.446-8.372h8.793a69.023,69.023,0,0,0,.4,7.424Z" transform="translate(-61.274 -123.274)"/><line class="c" x1="4.478" y2="0.484" transform="translate(19.834 103.208)"/><line class="c" x1="66.511" y2="48.624" transform="translate(35.234 94.836)"/><path class="c" d="M156.14,330.909l1.815-4.107,3.555-8.052" transform="translate(-87.682 -160.706)"/><path class="c" d="M206.23,222.249l.289-.659.3-.666.075-.17,1.168-2.644" transform="translate(-106.313 -123.274)"/><path class="c" d="M223.033,351.817l-1.124-15.595-.948-8.742" transform="translate(-111.791 -163.953)"/><path class="c" d="M281.911,317.65l-2.663-3.636-5.188-7.1" transform="translate(-131.542 -156.302)"/><line class="c" x2="75.367" y2="33.287" transform="translate(101.745 94.836)"/><line class="c" y1="8.856" x2="81.911" transform="translate(101.745 85.981)"/><line class="c" x1="3.636" y2="2.663" transform="translate(164.619 46.212)"/><line class="c" x1="55.771" y2="40.773" transform="translate(101.745 54.063)"/><path class="d" d="M179.25,135.09c-7.713,7.185-27.452,14.445-50.47,29.839,0,0,1.438,52.034,50.47,80.479Z" transform="translate(-77.506 -92.395)"/><path class="e" d="M209.14,135.09c7.712,7.185,27.452,14.445,50.47,29.839,0,0-1.438,52.034-50.47,80.479Z" transform="translate(-107.395 -92.395)"/><path class="e" d="M181.441,142.14C172.133,148.6,156,154.758,134.67,169.027c0,0,1.338,48.216,46.771,74.569,45.433-26.353,46.765-74.538,46.765-74.538C206.884,154.758,190.824,148.6,181.441,142.14Z" transform="translate(-79.696 -95.017)"/><path class="d" d="M255.9,169.077c-21.354-14.269-37.382-20.424-46.765-26.887V243.615C254.574,217.261,255.9,169.077,255.9,169.077Z" transform="translate(-107.395 -95.036)"/><path class="f" d="M214.992,196.558H180.135a2.864,2.864,0,0,1-2.9-2.833V177.653a20.341,20.341,0,0,1,40.673,0v16.053a2.87,2.87,0,0,1-2.92,2.851Zm-31.962-5.652H212.1V177.653a14.539,14.539,0,0,0-29.066,0Z" transform="translate(-95.53 -100.823)"/><rect class="f" width="44.378" height="36.71" transform="translate(79.556 87.991)"/><path class="e" d="M210.766,228.719a4.836,4.836,0,0,0-9.666,0,4.717,4.717,0,0,0,2.512,4.164l-.81,8.341h6.211l-.81-8.341A4.717,4.717,0,0,0,210.766,228.719Z" transform="translate(-104.405 -125.486)"/></g><g transform="translate(132.368 72.09)"><path class="g" d="M383.72,87.741h12.605V79.99h-7.317l-.741-1.89H383.72Z" transform="translate(-258.021 -76.178)"/><path class="g" d="M383.72,107.681h12.605V99.937h-7.317l-.741-1.9H383.72Z" transform="translate(-258.021 -83.595)"/><path class="h" d="M383.72,127.627h12.605v-7.75h-7.317l-.741-1.9H383.72Z" transform="translate(-258.021 -91.011)"/><path class="g" d="M383.72,252.741h12.605v-7.75h-7.317l-.741-1.89H383.72Z" transform="translate(-258.021 -137.549)"/><path class="g" d="M383.72,272.681h12.605v-7.744h-7.317l-.741-1.9H383.72Z" transform="translate(-258.021 -144.966)"/><path class="h" d="M383.72,292.631h12.605v-7.75h-7.317l-.741-1.89H383.72Z" transform="translate(-258.021 -152.386)"/><path class="g" d="M383.72,313.741h12.605v-7.75h-7.317l-.741-1.89H383.72Z" transform="translate(-258.021 -160.238)"/><path class="g" d="M383.72,333.681h12.605v-7.744h-7.317l-.741-1.9H383.72Z" transform="translate(-258.021 -167.654)"/><path class="h" d="M383.72,353.631h12.605v-7.75h-7.317l-.741-1.89H383.72Z" transform="translate(-258.021 -175.075)"/><path class="i" d="M353.849,190.288a25.945,25.945,0,0,1,0-3.768" transform="translate(-246.885 -116.504)"/><path class="i" d="M360.367,190.114a22.461,22.461,0,0,1,0-3.184" transform="translate(-249.314 -116.657)"/><line class="i" y1="0.031" x2="4.101" transform="translate(106.882 71.875)"/><path class="i" d="M353.9,183.534a27.812,27.812,0,0,1,.578-3.724" transform="translate(-246.93 -114.009)"/><path class="i" d="M360.41,184.42a24.107,24.107,0,0,1,.49-3.14" transform="translate(-249.351 -114.555)"/><line class="i" x2="4.051" y2="0.628" transform="translate(107.196 67.654)"/><path class="i" d="M355,176.926a24.929,24.929,0,0,1,1.174-3.586" transform="translate(-247.339 -111.602)"/><path class="i" d="M361.34,178.837a22.128,22.128,0,0,1,.986-3.027" transform="translate(-249.697 -112.521)"/><line class="i" x2="3.9" y2="1.275" transform="translate(108.182 63.509)"/><path class="i" d="M357.17,170.638a26.378,26.378,0,0,1,1.733-3.348" transform="translate(-248.146 -109.352)"/><path class="i" d="M363.17,173.526a22.7,22.7,0,0,1,1.463-2.826" transform="translate(-250.378 -110.62)"/><line class="i" x2="3.643" y2="1.884" transform="translate(109.828 59.584)"/><path class="i" d="M360.34,164.845c.333-.534.691-1.049,1.074-1.551l1.181-1.463" transform="translate(-249.325 -107.321)"/><path class="i" d="M365.85,168.619a15.77,15.77,0,0,1,.911-1.313l1-1.256" transform="translate(-251.374 -108.891)"/><line class="i" x2="3.297" y2="2.443" transform="translate(112.089 55.972)"/><path class="i" d="M364.42,159.676c.427-.458.879-.9,1.319-1.35a6.933,6.933,0,0,1,.672-.628l.722-.628" transform="translate(-250.843 -105.551)"/><path class="i" d="M369.3,164.254l1.118-1.137c.188-.188.364-.389.565-.565l.628-.5" transform="translate(-252.658 -107.403)"/><line class="i" x2="2.864" y2="2.939" transform="translate(114.896 52.775)"/><path class="i" d="M369.35,155.266a12.779,12.779,0,0,1,1.5-1.143c.521-.345,1.036-.71,1.57-1.043" transform="translate(-252.676 -104.067)"/><path class="i" d="M373.47,160.53a10.452,10.452,0,0,1,1.256-.961c.446-.289.879-.628,1.325-.879" transform="translate(-254.209 -106.153)"/><line class="i" x2="2.349" y2="3.36" transform="translate(118.175 50.056)"/><path class="i" d="M374.93,151.743l1.658-.9c.572-.258,1.156-.49,1.733-.735" transform="translate(-254.752 -102.962)"/><path class="i" d="M378.18,157.555l1.4-.754,1.463-.622" transform="translate(-255.961 -105.22)"/><line class="i" x2="1.784" y2="3.699" transform="translate(121.836 47.883)"/><path class="i" d="M381.06,149.175c.578-.232,1.193-.383,1.79-.584l.9-.276.923-.195" transform="translate(-257.032 -102.222)"/><path class="i" d="M383.35,155.392c.5-.2,1.011-.327,1.514-.49l.766-.239.779-.163" transform="translate(-257.883 -104.595)"/><line class="i" x2="1.162" y2="3.938" transform="translate(125.818 46.369)"/><path class="i" d="M387.58,147.706a14.452,14.452,0,0,1,1.853-.308c.628-.063,1.256-.151,1.884-.188" transform="translate(-259.457 -101.883)"/><path class="i" d="M388.87,154.117a10.12,10.12,0,0,1,1.57-.264c.528-.05,1.055-.132,1.583-.163" transform="translate(-259.937 -104.293)"/><line class="i" x2="0.528" y2="4.07" transform="translate(129.976 45.49)"/><path class="i" d="M394.3,147.135l1.884-.025,1.884.151" transform="translate(-261.956 -101.846)"/><path class="i" d="M394.55,153.665l1.6-.025,1.589.132" transform="translate(-262.049 -104.275)"/><line class="i" x1="0.132" y2="4.101" transform="translate(134.096 45.264)"/><path class="i" d="M401.08,147.41c.628.075,1.256.214,1.884.32.308.057.628.107.923.17l.911.258" transform="translate(-264.478 -101.958)"/><path class="i" d="M400.28,153.9c.528.063,1.049.182,1.57.27.258.044.521.088.785.144l.76.214" transform="translate(-264.18 -104.372)"/><line class="i" x1="0.791" y2="4.026" transform="translate(137.67 45.773)"/><path class="i" d="M407.71,148.82a27.1,27.1,0,0,1,3.542,1.287" transform="translate(-266.944 -102.482)"/><path class="i" d="M405.88,155.09a24.265,24.265,0,0,1,2.99,1.08" transform="translate(-266.263 -104.814)"/><line class="i" x1="1.426" y2="3.85" transform="translate(141.13 46.922)"/><path class="i" d="M414.05,151.23l1.677.86c.546.308,1.061.672,1.589,1.011" transform="translate(-269.302 -103.378)"/><path class="i" d="M411.23,157.12l1.419.729c.458.258.892.572,1.344.854" transform="translate(-268.253 -105.569)"/><line class="i" x1="2.029" y2="3.567" transform="translate(144.396 48.712)"/><path class="i" d="M419.91,154.63a16.518,16.518,0,0,1,1.5,1.137,15.67,15.67,0,0,1,1.432,1.225" transform="translate(-271.482 -104.643)"/><path class="i" d="M416.18,160a12.688,12.688,0,0,1,1.256.961A12.057,12.057,0,0,1,418.655,162" transform="translate(-270.094 -106.64)"/><line class="i" x1="2.575" y2="3.197" transform="translate(147.354 51.124)"/><path class="i" d="M425.14,158.94c.44.446.911.867,1.325,1.338l1.2,1.457" transform="translate(-273.427 -106.246)"/><path class="i" d="M420.61,163.64c.371.383.772.735,1.118,1.131l1.017,1.256" transform="translate(-271.742 -107.994)"/><line class="i" x1="3.052" y2="2.745" transform="translate(149.986 54.032)"/><path class="i" d="M429.66,164a29.032,29.032,0,0,1,2.016,3.191" transform="translate(-275.108 -108.128)"/><path class="i" d="M424.43,167.9a25.123,25.123,0,0,1,1.7,2.694" transform="translate(-273.163 -109.579)"/><line class="i" x1="3.448" y2="2.217" transform="translate(152.159 57.429)"/><path class="i" d="M433.24,169.76l.44.829.371.873c.232.578.509,1.149.7,1.746" transform="translate(-276.44 -110.271)"/><path class="i" d="M427.44,172.77l.377.7.308.735c.195.5.44.973.628,1.476" transform="translate(-274.283 -111.39)"/><line class="i" x1="3.768" y2="1.627" transform="translate(153.842 61.191)"/><path class="i" d="M435.88,176c.182.628.383,1.193.54,1.8l.389,1.846" transform="translate(-277.422 -112.592)"/><path class="i" d="M429.67,178.05c.151.509.327,1.011.465,1.526l.327,1.558" transform="translate(-275.112 -113.354)"/><line class="i" x1="3.976" y2="1.011" transform="translate(155.023 65.211)"/><path class="i" d="M437.52,182.58a29.965,29.965,0,0,1,.3,3.768" transform="translate(-278.032 -115.039)"/><path class="i" d="M431.07,183.61a26.85,26.85,0,0,1,.251,3.14" transform="translate(-275.633 -115.422)"/><line class="i" x1="4.089" y2="0.358" transform="translate(155.607 69.413)"/><path class="i" d="M437.844,189.34v.942l-.075.936c-.063.628-.069,1.256-.188,1.884" transform="translate(-278.054 -117.553)"/><path class="i" d="M431.346,189.33v.791l-.063.8a14.862,14.862,0,0,1-.163,1.583" transform="translate(-275.651 -117.55)"/><line class="i" x1="4.089" y1="0.295" transform="translate(155.632 73.369)"/><path class="i" d="M436.937,196.09c-.119.628-.207,1.256-.352,1.853l-.515,1.815" transform="translate(-277.492 -120.064)"/><path class="i" d="M430.565,195c-.107.521-.176,1.049-.3,1.564l-.433,1.532" transform="translate(-275.171 -119.659)"/><line class="i" x1="3.994" y1="0.955" transform="translate(155.098 76.924)"/><path class="i" d="M434.972,202.68a28.2,28.2,0,0,1-1.482,3.467" transform="translate(-276.533 -122.515)"/><path class="i" d="M428.916,200.6a24.931,24.931,0,0,1-1.256,2.92" transform="translate(-274.364 -121.741)"/><line class="i" x1="3.787" y1="1.583" transform="translate(153.968 80.341)"/><path class="i" d="M431.966,208.9l-.433.835c-.157.27-.339.528-.5.8L430,212.1" transform="translate(-275.235 -124.829)"/><path class="i" d="M426.374,205.84l-.364.71c-.132.232-.289.446-.427.672l-.873,1.338" transform="translate(-273.267 -123.69)"/><line class="i" x1="3.479" y1="2.173" transform="translate(152.316 83.531)"/><path class="i" d="M428.037,214.62l-1.187,1.495c-.4.49-.867.911-1.3,1.363" transform="translate(-273.58 -126.956)"/><path class="i" d="M423.048,210.68l-1,1.256c-.333.415-.735.766-1.1,1.149" transform="translate(-271.869 -125.491)"/><line class="i" x1="3.09" y1="2.694" transform="translate(150.18 86.433)"/><path class="i" d="M423.282,219.68a14.883,14.883,0,0,1-1.413,1.256,15.7,15.7,0,0,1-1.488,1.156" transform="translate(-271.657 -128.838)"/><path class="i" d="M419.029,215a11.2,11.2,0,0,1-1.193,1.055,12.616,12.616,0,0,1-1.256.98" transform="translate(-270.243 -127.097)"/><line class="i" x1="2.619" y1="3.159" transform="translate(147.593 88.933)"/><path class="i" d="M417.817,224c-.534.339-1.03.729-1.589,1.024l-1.658.86" transform="translate(-269.496 -130.445)"/><path class="i" d="M414.378,218.56c-.452.289-.867.628-1.338.867l-1.4.76" transform="translate(-268.406 -128.422)"/><line class="i" x1="2.073" y1="3.542" transform="translate(144.66 91.005)"/><path class="i" d="M411.783,227.35a27.45,27.45,0,0,1-3.523,1.338" transform="translate(-267.149 -131.691)"/><path class="i" d="M409.327,221.44a24.36,24.36,0,0,1-2.977,1.13" transform="translate(-266.438 -129.493)"/><line class="i" x1="1.476" y1="3.831" transform="translate(141.419 92.563)"/><path class="i" d="M405.312,229.71a13.867,13.867,0,0,1-1.828.452,16.808,16.808,0,0,1-1.884.327" transform="translate(-264.671 -132.569)"/><path class="i" d="M403.869,223.43a10.683,10.683,0,0,1-1.545.377,12.194,12.194,0,0,1-1.564.283" transform="translate(-264.359 -130.233)"/><line class="i" x1="0.848" y1="4.02" transform="translate(137.965 93.574)"/><path class="i" d="M398.638,231c-.628.057-1.256.176-1.884.17H394.87" transform="translate(-262.168 -133.049)"/><path class="i" d="M398.214,224.55a14.94,14.94,0,0,1-1.589.144h-1.6" transform="translate(-262.228 -130.649)"/><line class="i" x1="0.195" y1="4.101" transform="translate(134.397 94.045)"/><path class="i" d="M391.868,231.066a26.7,26.7,0,0,1-3.768-.446" transform="translate(-259.65 -132.907)"/><path class="i" d="M392.51,224.577a23.309,23.309,0,0,1-3.14-.377" transform="translate(-260.123 -130.519)"/><line class="i" y1="4.076" x2="0.458" transform="translate(130.34 93.932)"/><path class="i" d="M385.224,229.874a15.23,15.23,0,0,1-1.828-.452,14.566,14.566,0,0,1-1.8-.572" transform="translate(-257.233 -132.249)"/><path class="i" d="M386.879,223.57a12.067,12.067,0,0,1-1.545-.383,12.819,12.819,0,0,1-1.514-.477" transform="translate(-258.058 -129.965)"/><line class="i" y1="3.95" x2="1.112" transform="translate(126.164 93.222)"/><path class="i" d="M378.843,227.614c-.584-.245-1.187-.44-1.746-.722L375.42,226" transform="translate(-254.934 -131.189)"/><path class="i" d="M381.493,221.667a14.349,14.349,0,0,1-1.47-.628l-1.413-.729" transform="translate(-256.12 -129.072)"/><line class="i" y1="3.718" x2="1.74" transform="translate(122.163 91.985)"/><path class="i" d="M372.87,224.419c-1.043-.7-2.135-1.325-3.14-2.129" transform="translate(-252.818 -129.809)"/><path class="i" d="M376.442,218.936c-.879-.628-1.815-1.118-2.632-1.8" transform="translate(-254.335 -127.893)"/><line class="i" y1="3.391" x2="2.311" transform="translate(118.47 90.189)"/><path class="i" d="M367.548,220.274a26.076,26.076,0,0,1-2.738-2.594" transform="translate(-250.988 -128.094)"/><path class="i" d="M371.941,215.462a23.13,23.13,0,0,1-2.311-2.192" transform="translate(-252.78 -126.454)"/><line class="i" y1="2.983" x2="2.82" transform="translate(115.148 87.947)"/><path class="i" d="M362.93,215.332a27.765,27.765,0,0,1-2.28-3" transform="translate(-249.44 -126.104)"/><path class="i" d="M368.038,211.292a22.8,22.8,0,0,1-1.928-2.512" transform="translate(-251.471 -124.784)"/><line class="i" y1="2.487" x2="3.266" transform="translate(112.296 85.277)"/><path class="i" d="M359.171,209.7a26.807,26.807,0,0,1-1.771-3.329" transform="translate(-248.232 -123.888)"/><path class="i" d="M364.865,206.534a22.755,22.755,0,0,1-1.495-2.814" transform="translate(-250.452 -122.902)"/><line class="i" y1="1.928" x2="3.624" transform="translate(109.998 82.25)"/><path class="i" d="M356.366,203.544a27.8,27.8,0,0,1-1.206-3.574" transform="translate(-247.398 -121.507)"/><path class="i" d="M362.5,201.331a23.4,23.4,0,0,1-1.017-3.021" transform="translate(-249.749 -120.89)"/><line class="i" y1="1.325" x2="3.881" transform="translate(108.308 78.947)"/><path class="i" d="M354.628,197.018A27.51,27.51,0,0,1,354,193.3" transform="translate(-246.967 -119.026)"/><path class="i" d="M360.994,195.81a24.3,24.3,0,0,1-.534-3.14" transform="translate(-249.37 -118.792)"/><line class="i" y1="0.691" x2="4.045" transform="translate(107.259 75.455)"/><path class="j" d="M396.2,163.75a16.015,16.015,0,0,1,15.67,18.176" transform="translate(-262.663 -108.035)"/><path class="k" d="M372.11,174.006a16.022,16.022,0,0,1,15.13-10.256" transform="translate(-253.703 -108.035)"/><path class="j" d="M389.3,201.572a16.009,16.009,0,0,1-17.824-21.492" transform="translate(-253.071 -114.109)"/><path class="k" d="M413.466,192.69a16.015,16.015,0,0,1-12.976,13.572" transform="translate(-264.259 -118.799)"/><path class="g" d="M183.58,335.687h12.605v-7.75h-7.317l-.741-1.9H183.58Z" transform="translate(-183.58 -168.398)"/><path class="g" d="M183.58,355.631h12.605v-7.75h-7.317l-.741-1.89H183.58Z" transform="translate(-183.58 -175.819)"/><path class="h" d="M183.58,375.571h12.605v-7.75h-7.317l-.741-1.89H183.58Z" transform="translate(-183.58 -183.235)"/><path class="g" d="M215.58,335.687h12.605v-7.75h-7.317l-.741-1.9H215.58Z" transform="translate(-195.482 -168.398)"/><path class="h" d="M215.58,355.631h12.605v-7.75h-7.317l-.741-1.89H215.58Z" transform="translate(-195.482 -175.819)"/><path class="g" d="M215.58,375.571h12.605v-7.75h-7.317l-.741-1.89H215.58Z" transform="translate(-195.482 -183.235)"/><path class="g" d="M183.58,84.687h12.605v-7.75h-7.317l-.741-1.9H183.58Z" transform="translate(-183.58 -75.04)"/><path class="g" d="M183.58,104.631h12.605V96.88h-7.317l-.741-1.89H183.58Z" transform="translate(-183.58 -82.46)"/><path class="g" d="M183.58,124.571h12.605v-7.75h-7.317l-.741-1.89H183.58Z" transform="translate(-183.58 -89.877)"/><path class="h" d="M215.58,84.687h12.605v-7.75h-7.317l-.741-1.9H215.58Z" transform="translate(-195.482 -75.04)"/><path class="g" d="M215.58,104.631h12.605V96.88h-7.317l-.741-1.89H215.58Z" transform="translate(-195.482 -82.46)"/><path class="h" d="M215.58,124.571h12.605v-7.75h-7.317l-.741-1.89H215.58Z" transform="translate(-195.482 -89.877)"/></g></g></svg>