<svg xmlns="http://www.w3.org/2000/svg" width="276.975" height="181.799" viewBox="0 0 276.975 181.799"><defs><style>.a,.l{fill:#b7d2b6;}.b,.c,.d,.f{fill:#fff;}.b{opacity:0.4;}.c{opacity:0.6;}.d,.e,.j,.l{stroke:#263238;stroke-width:0.75px;}.d,.e,.i,.j,.l{stroke-linecap:round;stroke-linejoin:round;}.e,.g{fill:#263238;}.h{opacity:0.1;}.i,.j,.k{fill:none;}.i{stroke:#b7d2b6;stroke-width:1.727px;}.k{stroke:#fff;stroke-miterlimit:10;}</style></defs><g transform="translate(-63.94 -91.254)"><g transform="translate(68.057 91.254)"><path class="a" d="M90.306,136.653C79.6,151.045,72.716,172.192,77.937,189.9c8.92,30.27,46.773,32.551,72.7,36.054,17.868,2.417,35.633,16.462,50.915,25.179,20.366,11.622,53.128,29.958,76.616,18.051,19.47-9.864,29.938-33.726,35.912-53.521,9.361-31,10.264-68.388-10.115-95.393C276.225,83.614,227.7,89.724,187.383,96c-26.985,4.2-53.216,8.3-77.207,22.6a68.755,68.755,0,0,0-19.87,18.058Z" transform="translate(-76.154 -91.254)"/><path class="b" d="M90.306,136.653C79.6,151.045,72.716,172.192,77.937,189.9c8.92,30.27,46.773,32.551,72.7,36.054,17.868,2.417,35.633,16.462,50.915,25.179,20.366,11.622,53.128,29.958,76.616,18.051,19.47-9.864,29.938-33.726,35.912-53.521,9.361-31,10.264-68.388-10.115-95.393C276.225,83.614,227.7,89.724,187.383,96c-26.985,4.2-53.216,8.3-77.207,22.6a68.755,68.755,0,0,0-19.87,18.058Z" transform="translate(-76.154 -91.254)"/></g><g transform="translate(63.94 264.295)"><path class="a" d="M50.94,410.819c0,2.417,61.987,4.379,138.487,4.379s138.487-1.962,138.487-4.379-61.987-4.379-138.453-4.379S50.94,408.4,50.94,410.819Z" transform="translate(-50.94 -406.44)"/><path class="c" d="M50.94,410.819c0,2.417,61.987,4.379,138.487,4.379s138.487-1.962,138.487-4.379-61.987-4.379-138.453-4.379S50.94,408.4,50.94,410.819Z" transform="translate(-50.94 -406.44)"/></g><g transform="translate(82.079 92.711)"><rect class="d" width="122.975" height="155.988"/><rect class="e" width="122.975" height="9.307"/><rect class="a" width="20.787" height="44.119" transform="translate(3.503 108.794)"/><rect class="c" width="20.787" height="44.119" transform="translate(3.503 108.794)"/><rect class="a" width="20.787" height="44.119" transform="translate(26.17 108.794)"/><rect class="c" width="20.787" height="44.119" transform="translate(26.17 108.794)"/><rect class="a" width="20.787" height="44.119" transform="translate(50.256 108.794)"/><rect class="c" width="20.787" height="44.119" transform="translate(50.256 108.794)"/><rect class="a" width="20.787" height="44.119" transform="translate(74.335 108.794)"/><rect class="c" width="20.787" height="44.119" transform="translate(74.335 108.794)"/><rect class="d" width="20.787" height="44.119" transform="translate(99.005 108.794)"/><rect class="a" width="115.949" height="10.692" transform="translate(3.51 3.679)"/><rect class="c" width="115.949" height="10.692" transform="translate(3.51 3.679)"/><rect class="f" width="112.236" height="4.732" transform="translate(5.594 5.757)"/><rect class="e" width="12.708" height="4.732" transform="translate(105.115 5.757)"/><path class="g" d="M166.327,127.823h-23.76a.916.916,0,1,1,0-1.833h23.76a.916.916,0,1,1,0,1.833Z" transform="translate(-111.21 -103.866)"/><path class="g" d="M166.289,137.235h-23.76a.916.916,0,1,1,0-1.826h23.76a.916.916,0,0,1,0,1.826Z" transform="translate(-111.173 -106.889)"/><path class="g" d="M166.327,146.653h-23.76a.916.916,0,1,1,0-1.833h23.76a.916.916,0,0,1,0,1.833Z" transform="translate(-111.21 -109.913)"/><path class="g" d="M154.276,156.066H104.964a.916.916,0,0,1,0-1.826h49.312a.916.916,0,0,1,0,1.826Z" transform="translate(-99.159 -112.938)"/><path class="g" d="M154.239,165.483H104.926a.916.916,0,0,1,0-1.833h49.312a.916.916,0,0,1,0,1.833Z" transform="translate(-99.122 -115.96)"/><path class="g" d="M154.239,174.9H104.926a.916.916,0,0,1,0-1.833h49.312a.916.916,0,1,1,0,1.833Z" transform="translate(-99.122 -118.985)"/><path class="g" d="M154.276,184.316H104.964a.916.916,0,0,1,0-1.826h49.312a.916.916,0,0,1,0,1.826Z" transform="translate(-99.159 -122.01)"/><path class="g" d="M154.276,192.686H104.964a.916.916,0,0,1,0-1.826h49.312a.916.916,0,0,1,0,1.826Z" transform="translate(-99.16 -124.698)"/><path class="g" d="M154.239,202.133H104.926a.916.916,0,1,1,0-1.833h49.312a.916.916,0,1,1,0,1.833Z" transform="translate(-99.122 -127.73)"/><path class="g" d="M154.276,211.516H104.964a.916.916,0,0,1,0-1.826h49.312a.916.916,0,0,1,0,1.826Z" transform="translate(-99.16 -130.745)"/><path class="g" d="M154.239,220.933H104.926a.916.916,0,0,1,0-1.833h49.312a.916.916,0,1,1,0,1.833Z" transform="translate(-99.122 -133.767)"/><path class="g" d="M154.276,230.346H104.964a.916.916,0,0,1,0-1.826h49.312a.916.916,0,0,1,0,1.826Z" transform="translate(-99.16 -136.792)"/><path class="g" d="M154.276,239.766H104.964a.916.916,0,0,1,0-1.826h49.312a.916.916,0,0,1,0,1.826Z" transform="translate(-99.159 -139.818)"/><path class="g" d="M247.748,127.823H198.456a.916.916,0,1,1,0-1.833h49.292a.916.916,0,1,1,0,1.833Z" transform="translate(-129.158 -103.866)"/><path class="g" d="M247.711,137.235H198.419a.916.916,0,1,1,0-1.826h49.292a.916.916,0,1,1,0,1.826Z" transform="translate(-129.121 -106.889)"/><path class="g" d="M247.748,146.653H198.456a.916.916,0,0,1,0-1.833h49.292a.916.916,0,1,1,0,1.833Z" transform="translate(-129.158 -109.913)"/><path class="g" d="M247.711,156.065H198.419a.916.916,0,1,1,0-1.826h49.292a.916.916,0,1,1,0,1.826Z" transform="translate(-129.121 -112.937)"/><path class="g" d="M247.748,165.483H198.456a.916.916,0,0,1,0-1.833h49.292a.916.916,0,1,1,0,1.833Z" transform="translate(-129.158 -115.96)"/><path class="g" d="M247.748,174.9H198.456a.916.916,0,0,1,0-1.833h49.292a.916.916,0,1,1,0,1.833Z" transform="translate(-129.158 -118.985)"/><path class="g" d="M247.711,184.315H198.419a.916.916,0,1,1,0-1.826h49.292a.916.916,0,1,1,0,1.826Z" transform="translate(-129.121 -122.009)"/><rect class="a" width="50.236" height="35.036" transform="translate(69.244 66.603)"/><rect class="c" width="50.236" height="35.036" transform="translate(69.244 66.603)"/><rect class="a" width="51.2" height="137.34" transform="translate(85.835 18.329)"/><rect class="b" width="51.2" height="137.34" transform="translate(85.835 18.329)"/><rect class="d" width="122.975" height="155.988" transform="translate(89.664 13.19)"/><rect class="e" width="122.975" height="9.307" transform="translate(89.664 13.19)"/><rect class="a" width="43.182" height="80.723" transform="translate(131.088 35.28)"/><rect class="c" width="43.182" height="80.723" transform="translate(131.088 35.28)"/><rect class="a" width="115.949" height="44.119" transform="translate(93.18 121.978)"/><rect class="c" width="115.949" height="44.119" transform="translate(93.18 121.978)"/><rect class="a" width="115.949" height="10.692" transform="translate(93.18 16.87)"/><rect class="c" width="115.949" height="10.692" transform="translate(93.18 16.87)"/><rect class="f" width="112.236" height="4.732" transform="translate(95.264 18.947)"/><rect class="e" width="12.708" height="4.732" transform="translate(194.785 18.947)"/><path class="g" d="M264.751,147.245H235.159a.916.916,0,1,1,0-1.826h29.591a.916.916,0,1,1,0,1.826Z" transform="translate(-140.92 -110.104)"/><path class="g" d="M264.788,156.663H235.2a.916.916,0,1,1,0-1.833h29.591a.916.916,0,1,1,0,1.833Z" transform="translate(-140.957 -113.128)"/><path class="g" d="M264.751,166.075H235.159a.916.916,0,1,1,0-1.826h29.591a.916.916,0,1,1,0,1.826Z" transform="translate(-140.92 -116.151)"/><path class="g" d="M264.788,175.493H235.2a.916.916,0,1,1,0-1.833h29.591a.916.916,0,1,1,0,1.833Z" transform="translate(-140.957 -119.175)"/><path class="g" d="M264.751,184.9H235.159a.916.916,0,1,1,0-1.826h29.592a.916.916,0,1,1,0,1.826Z" transform="translate(-140.92 -122.198)"/><path class="g" d="M264.751,194.325H235.159a.916.916,0,1,1,0-1.826h29.592a.916.916,0,1,1,0,1.826Z" transform="translate(-140.92 -125.223)"/><path class="g" d="M264.788,203.743H235.2a.916.916,0,1,1,0-1.833h29.591a.916.916,0,1,1,0,1.833Z" transform="translate(-140.957 -128.247)"/><path class="g" d="M264.788,212.133H235.2a.916.916,0,1,1,0-1.833h29.591a.916.916,0,1,1,0,1.833Z" transform="translate(-140.957 -130.941)"/><path class="g" d="M264.751,221.525H235.159a.916.916,0,1,1,0-1.826h29.591a.916.916,0,1,1,0,1.826Z" transform="translate(-140.92 -133.958)"/><path class="g" d="M264.788,230.943H235.2a.916.916,0,1,1,0-1.833h29.591a.916.916,0,1,1,0,1.833Z" transform="translate(-140.957 -136.982)"/><path class="g" d="M264.751,240.355H235.159a.916.916,0,1,1,0-1.826h29.591a.916.916,0,1,1,0,1.826Z" transform="translate(-140.92 -140.005)"/><path class="g" d="M264.788,249.773H235.2a.916.916,0,1,1,0-1.833h29.591a.916.916,0,1,1,0,1.833Z" transform="translate(-140.957 -143.029)"/><path class="g" d="M264.751,259.185H235.159a.916.916,0,1,1,0-1.826h29.591a.916.916,0,1,1,0,1.826Z" transform="translate(-140.92 -146.052)"/><path class="g" d="M264.751,268.6H235.159a.916.916,0,1,1,0-1.826h29.592a.916.916,0,1,1,0,1.826Z" transform="translate(-140.92 -149.078)"/><path class="g" d="M390.087,147.245H360.529a.916.916,0,1,1,0-1.826h29.592a.916.916,0,1,1,0,1.826Z" transform="translate(-181.181 -110.104)"/><path class="g" d="M390.124,156.663H360.566a.916.916,0,1,1,0-1.833h29.591a.916.916,0,1,1,0,1.833Z" transform="translate(-181.218 -113.128)"/><path class="g" d="M390.087,166.075H360.529a.916.916,0,1,1,0-1.826h29.592a.916.916,0,1,1,0,1.826Z" transform="translate(-181.181 -116.151)"/><path class="g" d="M390.124,175.493H360.566a.916.916,0,1,1,0-1.833h29.591a.916.916,0,1,1,0,1.833Z" transform="translate(-181.218 -119.175)"/><path class="g" d="M390.087,184.9H360.529a.916.916,0,1,1,0-1.826h29.591a.916.916,0,1,1,0,1.826Z" transform="translate(-181.181 -122.198)"/><path class="g" d="M390.087,194.325H360.529a.916.916,0,1,1,0-1.826h29.591a.916.916,0,1,1,0,1.826Z" transform="translate(-181.181 -125.223)"/><path class="g" d="M390.124,203.743H360.566a.916.916,0,1,1,0-1.833h29.591a.916.916,0,1,1,0,1.833Z" transform="translate(-181.218 -128.247)"/><rect class="a" width="30.542" height="35.036" transform="translate(178.608 79.786)"/><rect class="c" width="30.542" height="35.036" transform="translate(178.608 79.786)"/></g><g transform="translate(268.542 210.942)"><path class="a" d="M409.394,292.563c-.183-6.9.353-18.669-5.7-23.516-5.315-4.256-9.45,1.521-10.936,6.178-3.618,11.3-3.231,53.84-2.295,62.408,0,0-.923-8.581-7.664-4.9s3.394,22.993,3.394,22.993-7.97-5.825-11.649-.923,4.6,10.427,4.6,10.427-7.664-2.145-7.664,0,2.451,3.985,9.5,4.908H419s6.11-3.394,4.908-7.053-7.691-1.541-7.691-1.541,9.81-11.955,9.192-17.168-13.183.916-13.183.916,9.816-24.833,7.977-35.871c-1.453-8.7-8.2-2.715-11.873.6A100.14,100.14,0,0,0,409.394,292.563Z" transform="translate(-359.891 -309.265)"/><path class="h" d="M409.394,292.563c-.183-6.9.353-18.669-5.7-23.516-5.315-4.256-9.45,1.521-10.936,6.178-3.618,11.3-3.231,53.84-2.295,62.408,0,0-.923-8.581-7.664-4.9s3.394,22.993,3.394,22.993-7.97-5.825-11.649-.923,4.6,10.427,4.6,10.427-7.664-2.145-7.664,0,2.451,3.985,9.5,4.908H419s6.11-3.394,4.908-7.053-7.691-1.541-7.691-1.541,9.81-11.955,9.192-17.168-13.183.916-13.183.916,9.816-24.833,7.977-35.871c-1.453-8.7-8.2-2.715-11.873.6A100.14,100.14,0,0,0,409.394,292.563Z" transform="translate(-358.48 -308.487)"/><line class="i" y1="8.581" x2="3.062" transform="translate(34.004 52.292)"/></g><g transform="translate(185.992 134.448)"><path class="d" d="M305.54,278.427a3.252,3.252,0,0,1-1.908-4.182l9.165-24.5a3.26,3.26,0,1,1,6.11,2.274l-9.165,24.5a3.252,3.252,0,0,1-4.2,1.908Z" transform="translate(-267.076 -184.664)"/><line class="j" x1="5.146" y2="13.523" transform="translate(43.868 69.494)"/><path class="e" d="M284.221,326.162a5.777,5.777,0,0,1-3.394-7.434l13.082-34.982a5.784,5.784,0,1,1,10.828,4.073l-13.109,34.948a5.777,5.777,0,0,1-7.406,3.394Z" transform="translate(-259.701 -195.061)"/><path class="e" d="M335.038,157.12a35.206,35.206,0,1,0,20.644,45.307,35.206,35.206,0,0,0-20.644-45.307Zm-22.531,60.242A29.11,29.11,0,1,1,349.973,200.3,29.11,29.11,0,0,1,312.506,217.362Z" transform="translate(-261.958 -154.881)"/><path class="j" d="M304.59,184.577A25.872,25.872,0,0,1,319.172,171" transform="translate(-267.45 -160.057)"/><path class="j" d="M301.16,203.2a25.8,25.8,0,0,1,1.181-7.787" transform="translate(-266.348 -167.896)"/><path class="k" d="M289.83,197.869a34.16,34.16,0,0,1,63.616-23.149" transform="translate(-262.458 -155.387)"/><path class="k" d="M358.5,200.76a34.16,34.16,0,0,1-65.171,17.915" transform="translate(-263.834 -169.614)"/><path class="k" d="M385.93,187.71a34.086,34.086,0,0,1,1.975,6.7" transform="translate(-293.571 -165.424)"/><path class="l" d="M303.008,316.123a3.252,3.252,0,0,1-3.252,3.252H276.832a3.252,3.252,0,1,1,0-6.5h22.925a3.252,3.252,0,0,1,3.252,3.245Z" transform="translate(-257.443 -205.619)"/><circle class="d" cx="1.806" cy="1.806" r="1.806" transform="translate(30.04 109.14)"/><circle class="l" cx="4.399" cy="4.399" r="4.399" transform="translate(0 123.342)"/><path class="d" d="M257.229,342.266a1.65,1.65,0,1,0-1.65,1.643,1.65,1.65,0,0,0,1.65-1.643Z" transform="translate(-251.181 -214.526)"/><circle class="l" cx="4.399" cy="4.399" r="4.399" transform="translate(14.989 106.187)"/><circle class="d" cx="1.697" cy="1.697" r="1.697" transform="translate(17.691 108.889)"/></g></g></svg>