<svg xmlns="http://www.w3.org/2000/svg" xmlns:xlink="http://www.w3.org/1999/xlink" width="213.323" height="244.249" viewBox="0 0 213.323 244.249">
  <defs>
    <clipPath id="clip-path">
      <path id="Intersection_3" data-name="Intersection 3" d="M6.634,18.822s-2.616,1.1-3.722.416S.3,16.066.572,15.516s3.453-.824,3.453-.824S-.112,9.173,0,7.523,8.753-.4,11.1.02s6.035,7.43,6.035,7.43l2.072,2.072-.671,1.931s3.534,4.889,3.118,5.579-3.581,2.616-7.443,3.447a7.787,7.787,0,0,1-1.639.17A11.988,11.988,0,0,1,6.634,18.822Zm.208-.335c.04,0,3.641,2.387,7.3,1.6,3.949-.845,6.9-2.77,7.208-3.279.047-.456-1.569-3.058-3.1-5.177A.357.357,0,0,1,18.2,11.3l.61-1.716L16.9,7.677a.442.442,0,0,1-.067-.094c-1-1.9-4.024-6.927-5.774-7.242C9.974.154,6.7,1.863,3.617,4.244,1.444,5.914.425,7.114.391,7.517.3,8.623,2.745,12.351,4.314,14.437a.37.37,0,0,1,.04.369.349.349,0,0,1-.3.208,8.578,8.578,0,0,0-3.165.671,6.643,6.643,0,0,0,2.226,3.232c.771.483,2.756-.174,3.353-.443a.346.346,0,0,1,.174-.046h0A.352.352,0,0,1,6.842,18.487Z" fill="none"/>
    </clipPath>
  </defs>
  <g id="Processing-bro" transform="translate(-94.274 -64.843)">
    <g id="freepik--background-simple--inject-6" transform="translate(94.274 64.843)">
      <path id="Path_5746" data-name="Path 5746" d="M282.361,132.509c-5.666-6.78-11.628-13.412-17.059-20.392C249.4,91.637,228.474,71.915,202.053,66.4c-26.749-5.579-58.588,3.909-74.729,26.709-10.729,15.148-14.92,33.971-15.3,52.3-.168,8.369,1.267,16.825-.08,25.147-1.489,9.153-6.625,17.18-11.118,25.113-5.941,10.494-8.5,22.049-4.9,33.877,8.161,26.722,45.009,39.141,70.323,34.669,13.8-2.441,26.448-9.126,39.819-13.344,11.024-3.48,22.37-4.493,33.576-1.167,25.536,7.577,51.688-5.485,62.5-29.505,13.056-29,.838-61.921-17.864-85.317C283.655,134.071,283.018,133.287,282.361,132.509Z" transform="translate(-94.274 -64.843)" fill="#b7d2b6"/>
      <path id="Path_5747" data-name="Path 5747" d="M282.361,132.509c-5.666-6.78-11.628-13.412-17.059-20.392C249.4,91.637,228.474,71.915,202.053,66.4c-26.749-5.579-58.588,3.909-74.729,26.709-10.729,15.148-14.92,33.971-15.3,52.3-.168,8.369,1.267,16.825-.08,25.147-1.489,9.153-6.625,17.18-11.118,25.113-5.941,10.494-8.5,22.049-4.9,33.877,8.161,26.722,45.009,39.141,70.323,34.669,13.8-2.441,26.448-9.126,39.819-13.344,11.024-3.48,22.37-4.493,33.576-1.167,25.536,7.577,51.688-5.485,62.5-29.505,13.056-29,.838-61.921-17.864-85.317C283.655,134.071,283.018,133.287,282.361,132.509Z" transform="translate(-94.274 -64.843)" fill="#fff" opacity="0.7"/>
      <path id="Path_6509" data-name="Path 6509" d="M367.744,319.365v-2.246c0-11.567,14.646-12.07,14.646-20.3,0-3.574-2.91-5.908-7.242-5.908-4.741,0-7.739,2.582-7.739,6.243v.919c0,.912-.5,1.341-1.415,1.341l-8.9-.335c-.832,0-1.415-.416-1.415-.992v-.919c0-10.059,7.987-16.972,19.722-16.972,11.481,0,18.884,6.491,18.884,16.221,0,13.814-14.894,13.9-14.894,21.458v1.5a1.274,1.274,0,0,1-1.415,1.415h-8.818a1.274,1.274,0,0,1-1.415-1.415Zm-.751,13.411a7.131,7.131,0,0,1,14.23,0c0,3.661-3.353,6.659-7.155,6.659a6.966,6.966,0,0,1-7.075-6.672Z" transform="translate(-218.142 -255.839)" fill="#263238"/>
    </g>
    <g id="freepik--Shadow--inject-6" transform="translate(101.742 272.076)">
      <ellipse id="Ellipse_63" data-name="Ellipse 63" cx="95.778" cy="18.508" rx="95.778" ry="18.508" fill="#b7d2b6"/>
      <ellipse id="Ellipse_64" data-name="Ellipse 64" cx="95.778" cy="18.508" rx="95.778" ry="18.508" fill="#fff" opacity="0.5"/>
    </g>
    <g id="freepik--progress-bar--inject-6" transform="translate(100.126 239.184)">
      <rect id="Rectangle_1521" data-name="Rectangle 1521" width="78.236" height="12.07" rx="4.67" transform="translate(0.335 0.335)" fill="#fff"/>
      <path id="Path_5748" data-name="Path 5748" d="M273.27,295.571H201.3a3.467,3.467,0,0,1-3.467-3.46V286.3a3.474,3.474,0,0,1,3.467-3.467H273.27a3.474,3.474,0,0,1,3.467,3.467v5.814a3.467,3.467,0,0,1-3.467,3.46ZM201.3,283.5a2.8,2.8,0,0,0-2.8,2.8v5.814a2.8,2.8,0,0,0,2.8,2.79H273.27a2.8,2.8,0,0,0,2.8-2.79V286.3a2.8,2.8,0,0,0-2.8-2.8Z" transform="translate(-197.83 -282.83)" fill="#263238"/>
      <rect id="Rectangle_1522" data-name="Rectangle 1522" width="4.915" height="9.918" transform="translate(3.467 1.596)" fill="#b7d2b6"/>
      <rect id="Rectangle_1523" data-name="Rectangle 1523" width="4.915" height="9.918" transform="translate(9.596 1.596)" fill="#b7d2b6"/>
      <rect id="Rectangle_1524" data-name="Rectangle 1524" width="4.915" height="9.918" transform="translate(15.725 1.596)" fill="#b7d2b6"/>
      <rect id="Rectangle_1525" data-name="Rectangle 1525" width="4.915" height="9.918" transform="translate(21.854 1.596)" fill="#b7d2b6"/>
      <rect id="Rectangle_1526" data-name="Rectangle 1526" width="4.915" height="9.918" transform="translate(27.983 1.596)" fill="#b7d2b6"/>
      <rect id="Rectangle_1527" data-name="Rectangle 1527" width="4.915" height="9.918" transform="translate(34.112 1.596)" fill="#b7d2b6"/>
      <rect id="Rectangle_1528" data-name="Rectangle 1528" width="4.915" height="9.918" transform="translate(40.241 1.596)" fill="#b7d2b6"/>
      <rect id="Rectangle_1529" data-name="Rectangle 1529" width="4.915" height="9.918" transform="translate(46.37 1.596)" fill="#b7d2b6"/>
    </g>
    <path id="Union_1" data-name="Union 1" d="M-4149.42,3421.194l-.9-5.365a23.593,23.593,0,0,1-5.354-2.265l-4.449,3.186-4.6-3.851,2.4-4.986a23.918,23.918,0,0,1-3.069-4.858l-5.563.071-1.535-5.788,4.914-2.741a14.271,14.271,0,0,1-.066-1.683,23.755,23.755,0,0,1,.337-3.978l-4.668-3.166,2.044-5.625,5.625.583a23.836,23.836,0,0,1,3.442-4.464l-2.046-5.3,4.9-3.437,4.285,3.707a23.736,23.736,0,0,1,5.385-1.712l1.38-5.467h5.993l1.37,5.436a23.6,23.6,0,0,1,9.1,3.718l4.755-2.828,4.238,4.24-2.8,4.719a23.6,23.6,0,0,1,2.715,5.113l5.42.419,1.023,5.9-4.914,2.24a23.594,23.594,0,0,1-.665,5.824l4.136,3.416-2.557,5.425-5.271-.972a23.866,23.866,0,0,1-3.988,4.347l1.426,5.16-5.19,3-3.764-3.831a23.534,23.534,0,0,1-5.742,1.249l-1.8,5.077Zm-9.394-28.282a14.958,14.958,0,0,0,14.958,14.957,14.956,14.956,0,0,0,14.956-14.955,14.956,14.956,0,0,0-14.956-14.959A14.958,14.958,0,0,0-4158.814,3392.911Zm-52.007.438-1.173-7.034a30.958,30.958,0,0,1-7.021-2.971l-5.835,4.178-6.035-5.049,3.152-6.539a31.482,31.482,0,0,1-4.023-6.37l-7.3.094-2.011-7.59,6.444-3.594a18.621,18.621,0,0,1-.087-2.206,31.184,31.184,0,0,1,.442-5.218l-6.122-4.151,2.682-7.376,7.376.764a31.284,31.284,0,0,1,4.513-5.854l-2.682-6.954,6.431-4.506,5.62,4.862a31.061,31.061,0,0,1,7.061-2.247l1.81-7.168h7.858l1.8,7.129a30.918,30.918,0,0,1,11.936,4.875l6.236-3.708,5.559,5.559-3.668,6.189a30.861,30.861,0,0,1,3.562,6.706l7.108.55,1.341,7.738-6.444,2.938a30.983,30.983,0,0,1-.872,7.638l5.424,4.479-3.353,7.115-6.913-1.274a31.364,31.364,0,0,1-5.23,5.7l1.87,6.766-6.807,3.93-4.936-5.023a30.918,30.918,0,0,1-7.53,1.636l-2.36,6.658Zm-12.318-37.089a19.614,19.614,0,0,0,19.614,19.614,19.615,19.615,0,0,0,19.614-19.611,19.614,19.614,0,0,0-19.614-19.618A19.614,19.614,0,0,0-4223.14,3356.26Z" transform="translate(4386.219 -3200.247)" fill="#99b498"/>
    <g id="freepik--gear-1--inject-6" transform="translate(136.498 110.074)">
      <path id="Path_5751" data-name="Path 5751" d="M160.736,179.451a1.086,1.086,0,0,1-1.033-.758,46.17,46.17,0,0,1-1.65-6.92,1.089,1.089,0,1,1,2.153-.335,44.45,44.45,0,0,0,1.569,6.592,1.093,1.093,0,0,1-.7,1.341A.972.972,0,0,1,160.736,179.451Z" transform="translate(-157.504 -118.062)" fill="#263238"/>
      <path id="Path_5752" data-name="Path 5752" d="M158.333,141.049a1.093,1.093,0,0,1-1.093-1.06v-1.267a46.437,46.437,0,0,1,81.649-30.263,1.089,1.089,0,1,1-1.65,1.422,44.258,44.258,0,0,0-77.834,28.835v1.207a1.086,1.086,0,0,1-1.06,1.12Z" transform="translate(-157.24 -92.294)" fill="#263238"/>
      <path id="Path_5753" data-name="Path 5753" d="M278.383,111.32l1.2,9.925-9.194-3.916Z" transform="translate(-194.514 -98.562)" fill="#263238"/>
    </g>
    <g id="freepik--gear-2--inject-6" transform="translate(209.418 159.513)">
      <path id="Path_5756" data-name="Path 5756" d="M300.75,244.949a39.007,39.007,0,0,1-24.7-8.9,1.088,1.088,0,0,1,1.388-1.676,36.667,36.667,0,0,0,56.4-44.178,1.093,1.093,0,1,1,1.965-.946,38.846,38.846,0,0,1-35.044,55.7Z" transform="translate(-269.168 -173.445)" fill="#263238"/>
      <path id="Path_5757" data-name="Path 5757" d="M358.364,191.108l-.034-10L367,186.079Z" transform="translate(-296.404 -170.991)" fill="#263238"/>
    </g>
    <g id="freepik--Character--inject-6" transform="translate(133.089 155.537)">
      <path id="Path_5758" data-name="Path 5758" d="M265.183,381.589c0-.389.047-.778.047-1.18,0-9.388-8.818-16.979-19.7-16.979s-19.708,7.6-19.708,16.979a8.591,8.591,0,0,0,.054,1.18Z" transform="translate(-176.423 -253.899)" fill="#fff"/>
      <path id="Path_5759" data-name="Path 5759" d="M265,381.78H225.7a.362.362,0,0,1-.362-.335c-.034-.456-.054-.845-.054-1.214,0-9.562,9.006-17.341,20.07-17.341s20.07,7.779,20.07,17.341a9.929,9.929,0,0,1-.054,1.214A.369.369,0,0,1,265,381.78Zm-38.974-.711h38.625v-.818c0-9.16-8.677-16.617-19.339-16.617s-19.346,7.457-19.346,16.617C226,380.493,226.018,380.754,226.031,381.069Z" transform="translate(-176.245 -253.721)" fill="#263238"/>
      <path id="Path_5760" data-name="Path 5760" d="M265.183,384c0-.389.047-.785.047-1.18,0-9.388-8.818-16.979-19.7-16.979s-19.708,7.6-19.708,16.979a8.64,8.64,0,0,0,.054,1.18Z" transform="translate(-176.423 -254.693)" fill="#263238"/>
      <path id="Path_5761" data-name="Path 5761" d="M265,384.183H225.7a.362.362,0,0,1-.362-.329c-.034-.463-.054-.845-.054-1.214,0-9.562,9.006-17.341,20.07-17.341s20.07,7.779,20.07,17.341a9.929,9.929,0,0,1-.054,1.214.362.362,0,0,1-.362.329Zm-38.974-.724h38.625v-.818c0-9.16-8.677-16.617-19.339-16.617s-19.346,7.457-19.346,16.617C226,382.9,226.018,383.164,226.031,383.459Z" transform="translate(-176.245 -254.515)" fill="#263238"/>
      <g id="Group_2919" data-name="Group 2919" transform="translate(0 0)" clip-path="url(#clip-path)">
        <path id="Path_5800" data-name="Path 5800" d="M166.385,220.52a21.386,21.386,0,0,0,4.386-1.475,3.306,3.306,0,0,1-.389-.04c-1.629-.329-6.344-1.388-8.168-3.668a19.025,19.025,0,0,0-2.736-2.971l10.206-4.513-.362-.362s-3.688-7.014-6.035-7.43-10.964,5.847-11.1,7.5,4.023,7.162,4.023,7.162-3.172.282-3.447.832,1.241,3.031,2.34,3.722,3.722-.416,3.722-.416S162.529,221.344,166.385,220.52Z" transform="translate(-152.166 -200.074)" fill="#b7d2b6"/>
        <path id="Path_5801" data-name="Path 5801" d="M166.385,220.52a21.386,21.386,0,0,0,4.386-1.475,3.306,3.306,0,0,1-.389-.04c-1.629-.329-6.344-1.388-8.168-3.668a19.025,19.025,0,0,0-2.736-2.971l10.206-4.513-.362-.362s-3.688-7.014-6.035-7.43-10.964,5.847-11.1,7.5,4.023,7.162,4.023,7.162-3.172.282-3.447.832,1.241,3.031,2.34,3.722,3.722-.416,3.722-.416S162.529,221.344,166.385,220.52Z" transform="translate(-152.166 -200.074)" fill="#fff" opacity="0.5"/>
      </g>
      <path id="Path_5804" data-name="Path 5804" d="M228.85,223.334l15.3,62.677,1.925-.172-14.753-62.593A5.659,5.659,0,0,0,228.85,223.334Z" transform="translate(-177.421 -169.787)" fill="#263238"/>
      <path id="Path_5805" data-name="Path 5805" d="M243.976,286.227c-.181,0-.335-.081-.362-.193l-15.3-62.981c-.024-.107.074-.21.235-.248a6.1,6.1,0,0,1,2.749-.08.276.276,0,0,1,.215.177l14.753,62.872a.171.171,0,0,1-.067.172.474.474,0,0,1-.241.088l-1.931.172Zm-14.894-63.035,15.2,62.531,1.214-.109-14.659-62.506A5.362,5.362,0,0,0,229.083,223.191Z" transform="translate(-177.245 -169.608)" fill="#263238"/>
      <path id="Path_5829" data-name="Path 5829" d="M265.183,386.076c0-.389.047-.785.047-1.18,0-9.388-8.818-16.986-19.7-16.986s-19.708,7.6-19.708,16.986a8.64,8.64,0,0,0,.054,1.18Z" transform="translate(-176.423 -255.375)" fill="#fff"/>
      <path id="Path_5830" data-name="Path 5830" d="M265,386.29H225.7a.362.362,0,0,1-.362-.335c-.034-.456-.054-.838-.054-1.207,0-9.562,9.006-17.348,20.07-17.348s20.07,7.785,20.07,17.348a9.825,9.825,0,0,1-.054,1.207A.369.369,0,0,1,265,386.29Zm-38.974-.724h38.625v-.818c0-9.167-8.677-16.617-19.339-16.617s-19.346,7.45-19.346,16.617c.034.255.047.523.06.818Z" transform="translate(-176.245 -255.207)" fill="#263238"/>
      <path id="Path_5831" data-name="Path 5831" d="M265.183,388.516c0-.4.047-.785.047-1.18,0-9.388-8.818-16.986-19.7-16.986s-19.708,7.6-19.708,16.986a8.689,8.689,0,0,0,.054,1.18Z" transform="translate(-176.423 -256.178)" fill="#fff"/>
      <path id="Path_5832" data-name="Path 5832" d="M265,388.72H225.7a.362.362,0,0,1-.362-.335c-.034-.456-.054-.845-.054-1.207,0-9.569,9.006-17.348,20.07-17.348s20.07,7.779,20.07,17.348a9.879,9.879,0,0,1-.054,1.207A.369.369,0,0,1,265,388.72Zm-38.974-.731h38.625v-.811c0-9.167-8.677-16.624-19.339-16.624S226,377.991,226,387.164c0,.255.013.516.027.811Z" transform="translate(-176.245 -256.007)" fill="#263238"/>
      <path id="Path_5833" data-name="Path 5833" d="M247.258,370.35a20.739,20.739,0,0,0-16.188,7.3l4.62,3.648a14.116,14.116,0,0,1,21.981,0l6.035-3.353A20.752,20.752,0,0,0,247.258,370.35Z" transform="translate(-178.153 -256.178)" fill="#b7d2b6"/>
      <path id="Path_5834" data-name="Path 5834" d="M257.493,381.491a.342.342,0,0,1-.282-.141,13.753,13.753,0,0,0-21.418,0,.362.362,0,0,1-.5.06l-4.627-3.655a.362.362,0,0,1-.134-.241.389.389,0,0,1,.08-.268,21.933,21.933,0,0,1,33.18.3.389.389,0,0,1,.067.3.362.362,0,0,1-.181.248l-6.035,3.353A.4.4,0,0,1,257.493,381.491ZM246.5,375.5a14.41,14.41,0,0,1,11.078,5.163l5.365-3a21.255,21.255,0,0,0-31.544-.241l4.023,3.2A14.438,14.438,0,0,1,246.5,375.5Z" transform="translate(-177.974 -256)" fill="#263238"/>
      <path id="Path_5835" data-name="Path 5835" d="M257.35,393.847a5.988,5.988,0,0,0-11.97,0v.5H257.3A2.138,2.138,0,0,0,257.35,393.847Z" transform="translate(-182.867 -262.012)" fill="#263238"/>
      <path id="Path_5836" data-name="Path 5836" d="M257.158,394.557H245.242a.369.369,0,0,1-.362-.335v-.53a6.35,6.35,0,0,1,12.694,0v.53a.362.362,0,0,1-.416.335Zm-11.574-.731h11.239v-.134a5.619,5.619,0,1,0-11.239,0Z" transform="translate(-182.702 -261.844)" fill="#263238"/>
    </g>
  </g>
</svg>
