<svg xmlns="http://www.w3.org/2000/svg" width="27.048" height="26.768" viewBox="0 0 27.048 26.768"><g transform="translate(0.002 0.001)"><path d="M14641.621,491.916l-15.611-2.839v-21.2l15.611-2.725v26.768Zm-7.8-14.824h0c.116.189.238.378.374.576l2.173,3.082h1.412l-3.265-4.564,3.029-4.071h-1.242l-1.736,2.291a11.065,11.065,0,0,0-.684.982,12.458,12.458,0,0,0-.7-1.059l-1.566-2.214h-1.36l2.945,4.133-3.339,4.5h1.371l2.166-3.012c.078-.108.2-.3.415-.646Zm19.236,11.764h-10.764l0-2.012h3.905v-2.765h-3.9l0-.827h3.905v-2.765h-3.9l0-.827h3.905v-2.765h-3.9l0-.827h3.905V473.3h-3.9v-.827h3.9v-2.765h-3.9v-1.442h10.764v20.589Zm-6.057-4.777v2.765h4.442v-2.765Zm0-3.593h0v2.765h4.442v-2.765Zm0-3.593v2.765h4.442v-2.765Zm0-3.593h0v2.765h4.442V473.3Zm0-3.593v2.765h4.442v-2.765Z" transform="translate(-14626.012 -465.148)" fill="#fff"/></g></svg>