<svg xmlns="http://www.w3.org/2000/svg" viewBox="0 0 352 512"><path d="M176,248a24,24,0,1,0,24,24A24,24,0,0,0,176,248Zm-16.47-31.5a7.993,7.993,0,0,0,7.98,7.5h16.97a8,8,0,0,0,7.98-7.5l7-112a8,8,0,0,0-7.98-8.5H160.51a8,8,0,0,0-7.98,8.5ZM176,0C73.05,0-.12,83.54,0,176.24A175.01,175.01,0,0,0,43.56,291.78C69.21,321.03,93.85,368.68,96,384l.06,75.18a15.978,15.978,0,0,0,2.68,8.84l24.51,36.84A16.008,16.008,0,0,0,136.57,512h78.85a15.982,15.982,0,0,0,13.32-7.14l24.51-36.84a16.084,16.084,0,0,0,2.68-8.84L256,384c2.26-15.72,26.99-63.19,52.44-92.22A175.9,175.9,0,0,0,176,0Zm47.94,454.31L206.85,480H145.14l-17.09-25.69-.01-6.31h95.9v6.31Zm.04-38.31H128.01l-.07-32h96.08Zm60.4-145.32c-13.99,15.96-36.33,48.1-50.58,81.31H118.21c-14.26-33.22-36.59-65.35-50.58-81.31A143.472,143.472,0,0,1,32.05,176C31.87,99.01,92.43,32,176,32c79.4,0,144,64.6,144,144A143.574,143.574,0,0,1,284.38,270.68Z" transform="translate(0)" fill="#fff"/></svg>
