<svg xmlns="http://www.w3.org/2000/svg" width="20" height="15" viewBox="0 0 20 15"><path d="M-3.75-5.98a.627.627,0,0,0,.625.625H2.5v3.668a.312.312,0,0,0,.531.223l5.531-5.59a.625.625,0,0,0,0-.887l-5.531-5.59a.311.311,0,0,0-.531.223v3.668H-3.125a.627.627,0,0,0-.625.625ZM-5-5.98V-9.016a1.875,1.875,0,0,1,1.875-1.875H1.25v-2.418a1.562,1.562,0,0,1,2.664-1.105L9.449-8.828a1.877,1.877,0,0,1,0,2.656L3.914-.582A1.562,1.562,0,0,1,1.25-1.688V-4.105H-3.125A1.878,1.878,0,0,1-5-5.98Zm-5,4.105v-11.25A1.875,1.875,0,0,1-8.125-15h5.156a.47.47,0,0,1,.469.469v.312a.47.47,0,0,1-.469.469H-8.125a.627.627,0,0,0-.625.625v11.25a.627.627,0,0,0,.625.625h5.156A.47.47,0,0,1-2.5-.781v.312A.47.47,0,0,1-2.969,0H-8.125A1.875,1.875,0,0,1-10-1.875Z" transform="translate(10 0) rotate(180)" fill="#4b8447"/></svg>