<svg xmlns="http://www.w3.org/2000/svg" width="15.907" height="11.557" viewBox="0 0 15.907 11.557"><g transform="translate(-1)"><path d="M15.721,11.556h-5.14v-1.02h4.805a6.866,6.866,0,0,0,.5-2.59A6.934,6.934,0,1,0,2.52,10.537h9.827v1.02H2.186a.51.51,0,0,1-.463-.3A7.876,7.876,0,0,1,1,7.947,8.024,8.024,0,0,1,8.953,0a8.025,8.025,0,0,1,7.954,7.947,7.862,7.862,0,0,1-.723,3.312.51.51,0,0,1-.463.3Z" fill="#100934"/><path d="M8.953,9.674A1.37,1.37,0,0,1,7.585,8.306,33.275,33.275,0,0,1,8.462,4.6a.514.514,0,0,1,.983,0,33.275,33.275,0,0,1,.877,3.71A1.37,1.37,0,0,1,8.953,9.674Zm0-2.955a14.144,14.144,0,0,0-.348,1.589.348.348,0,0,0,.7,0A14.1,14.1,0,0,0,8.953,6.719Zm-.509-4.84h1.02v1.3H8.444ZM4.3,4.02l.721-.72.918.917-.72.721ZM2.878,7.44h1.3V8.46h-1.3Zm10.852,0h1.3V8.46h-1.3ZM11.967,4.209l.918-.918.721.72-.918.919Z" fill="#100934"/></g></svg>