<svg xmlns="http://www.w3.org/2000/svg" viewBox="0 0 504 496"><path d="M500,8H472.289a12,12,0,0,0-12,12.286l2.347,98.568A247.737,247.737,0,0,0,255.207,8C118.82,8.428,7.787,120.009,8,256.4,8.214,393.181,119.165,504,256,504a247.09,247.09,0,0,0,166.178-63.908,12.023,12.023,0,0,0,.482-17.433l-19.738-19.738a12.04,12.04,0,0,0-16.5-.552A196,196,0,1,1,434.675,175.3l-126.389-3.009a12,12,0,0,0-12.286,12V212a12,12,0,0,0,12,12H500a12,12,0,0,0,12-12V20A12,12,0,0,0,500,8Z" transform="translate(-8 -8)" fill="#fff"/></svg>
