<svg xmlns="http://www.w3.org/2000/svg" width="14.865" height="8.447" viewBox="0 0 14.865 8.447"><g transform="translate(0 1)" opacity="0"><path d="M10.217,115.173a.745.745,0,0,0-1.051-.008l-5.494,5.43-2.388-2.472a.745.745,0,0,0-1.075,1.032l0,0,2.912,3.018a.745.745,0,0,0,.529.223h.008a.745.745,0,0,0,.521-.215l6.027-5.96A.745.745,0,0,0,10.217,115.173Z" transform="translate(-0.001 -114.952)" fill="#abc6a9"/><path d="M207.466,123.154a.745.745,0,0,0,.527.223H208a.745.745,0,0,0,.521-.215l6.027-5.96a.745.745,0,0,0-1.043-1.059l-5.492,5.43-.2-.2a.745.745,0,1,0-1.075,1.031l0,0Z" transform="translate(-199.873 -115.93)" fill="#abc6a9"/></g><circle cx="4" cy="4" r="4" transform="translate(3)" fill="#cfd9ce"/></svg>