<svg xmlns="http://www.w3.org/2000/svg" width="120.664" height="41" viewBox="0 0 120.664 41">
  <g id="app-store-top-ar" transform="translate(0.5 0.5)">
    <g id="Group_3696" data-name="Group 3696">
      <g id="Group_3694" data-name="Group 3694">
        <path id="Path_6590" data-name="Path 6590" d="M110.135,0H9.535C9.168,0,8.806,0,8.44,0c-.306,0-.61.008-.919.013a13.215,13.215,0,0,0-2,.177,6.665,6.665,0,0,0-1.9.627A6.438,6.438,0,0,0,2,2,6.258,6.258,0,0,0,.819,3.618a6.6,6.6,0,0,0-.625,1.9,12.993,12.993,0,0,0-.179,2C.006,7.83,0,8.138,0,8.444V31.559c0,.31.006.611.015.922a12.992,12.992,0,0,0,.179,2,6.588,6.588,0,0,0,.625,1.9A6.208,6.208,0,0,0,2,38,6.274,6.274,0,0,0,3.616,39.18a6.7,6.7,0,0,0,1.9.631,13.455,13.455,0,0,0,2,.177c.309.007.613.011.919.011.366,0,.728,0,1.095,0h100.6c.359,0,.725,0,1.084,0,.3,0,.617,0,.922-.011a13.278,13.278,0,0,0,2-.177,6.8,6.8,0,0,0,1.908-.631A6.278,6.278,0,0,0,117.666,38a6.4,6.4,0,0,0,1.182-1.614,6.6,6.6,0,0,0,.619-1.9,13.508,13.508,0,0,0,.186-2c0-.311,0-.611,0-.922.008-.363.008-.725.008-1.094V9.536c0-.366,0-.729-.008-1.092,0-.307,0-.614,0-.921a13.506,13.506,0,0,0-.186-2,6.618,6.618,0,0,0-.619-1.9,6.466,6.466,0,0,0-2.8-2.8,6.768,6.768,0,0,0-1.908-.627,13.044,13.044,0,0,0-2-.177c-.3,0-.617-.011-.922-.013-.359,0-.725,0-1.084,0Z" transform="translate(0 0)" fill="none" stroke="#fff" stroke-width="1"/>
        <path id="Path_6591" data-name="Path 6591" d="M8.445,39.125c-.3,0-.6,0-.9-.011a12.688,12.688,0,0,1-1.869-.163A5.884,5.884,0,0,1,4.015,38.4a5.406,5.406,0,0,1-1.4-1.017A5.321,5.321,0,0,1,1.6,35.99a5.722,5.722,0,0,1-.543-1.657,12.413,12.413,0,0,1-.167-1.875c-.006-.211-.015-.913-.015-.913V8.444s.009-.691.015-.895a12.37,12.37,0,0,1,.166-1.872A5.755,5.755,0,0,1,1.6,4.016a5.374,5.374,0,0,1,1.015-1.4A5.565,5.565,0,0,1,4.014,1.6a5.823,5.823,0,0,1,1.653-.544A12.586,12.586,0,0,1,7.543.887l.9-.012H111.214l.913.013a12.385,12.385,0,0,1,1.858.163,5.938,5.938,0,0,1,1.671.548,5.594,5.594,0,0,1,2.415,2.42,5.763,5.763,0,0,1,.535,1.649,13,13,0,0,1,.174,1.887c0,.283,0,.587,0,.89.008.375.008.732.008,1.092V30.465c0,.363,0,.718-.008,1.075,0,.325,0,.623,0,.93a12.735,12.735,0,0,1-.171,1.853,5.739,5.739,0,0,1-.54,1.67,5.481,5.481,0,0,1-1.016,1.386,5.413,5.413,0,0,1-1.4,1.022,5.862,5.862,0,0,1-1.668.55,12.543,12.543,0,0,1-1.869.163c-.293.007-.6.011-.9.011l-1.084,0Z" transform="translate(0 0)" fill="none"/>
      </g>
      <g id="_Group_" data-name=" Group ">
        <g id="_Group_2" data-name=" Group 2">
          <path id="_Path_" data-name=" Path " d="M107.393,19.889a5.146,5.146,0,0,1,2.451-4.318,5.268,5.268,0,0,0-4.15-2.244c-1.746-.183-3.439,1.045-4.329,1.045-.907,0-2.277-1.027-3.752-1a5.527,5.527,0,0,0-4.651,2.837c-2.011,3.482-.511,8.6,1.416,11.414.964,1.378,2.09,2.918,3.564,2.863,1.442-.06,1.981-.92,3.722-.92,1.725,0,2.23.92,3.734.885,1.548-.025,2.523-1.384,3.453-2.776a11.4,11.4,0,0,0,1.579-3.216,4.973,4.973,0,0,1-3.036-4.575Z" transform="translate(0 0)" fill="#fff"/>
          <path id="_Path_2" data-name=" Path 2" d="M104.552,11.477a5.067,5.067,0,0,0,1.159-3.63,5.155,5.155,0,0,0-3.336,1.726,4.821,4.821,0,0,0-1.189,3.5,4.263,4.263,0,0,0,3.366-1.591Z" transform="translate(0 0)" fill="#fff"/>
        </g>
      </g>
      <g id="Group_3695" data-name="Group 3695">
        <path id="Path_6592" data-name="Path 6592" d="M17.2,27.14H12.465L11.328,30.5h-2l4.483-12.418h2.083L20.373,30.5H18.334Zm-4.243-1.549h3.752l-1.85-5.447h-.052Z" transform="translate(0 0)" fill="#fff"/>
        <path id="Path_6593" data-name="Path 6593" d="M30.056,25.97c0,2.813-1.506,4.621-3.778,4.621a3.069,3.069,0,0,1-2.849-1.584h-.043v4.484H21.527V21.442h1.8v1.506h.034a3.212,3.212,0,0,1,2.883-1.6C28.541,21.348,30.056,23.164,30.056,25.97Zm-1.91,0c0-1.833-.947-3.038-2.393-3.038-1.42,0-2.375,1.23-2.375,3.038,0,1.824.955,3.046,2.375,3.046,1.445,0,2.393-1.2,2.393-3.046Z" transform="translate(0 0)" fill="#fff"/>
        <path id="Path_6594" data-name="Path 6594" d="M40.021,25.97c0,2.813-1.506,4.621-3.779,4.621a3.069,3.069,0,0,1-2.849-1.584H33.35v4.484H31.492V21.442h1.8v1.506h.034a3.212,3.212,0,0,1,2.883-1.6C38.506,21.348,40.021,23.164,40.021,25.97Zm-1.911,0c0-1.833-.947-3.038-2.393-3.038-1.42,0-2.375,1.23-2.375,3.038,0,1.824.955,3.046,2.375,3.046C37.163,29.016,38.11,27.819,38.11,25.97Z" transform="translate(0 0)" fill="#fff"/>
        <path id="Path_6595" data-name="Path 6595" d="M46.606,27.036c.138,1.231,1.334,2.04,2.969,2.04,1.566,0,2.693-.809,2.693-1.919,0-.964-.68-1.541-2.289-1.937l-1.609-.388c-2.28-.551-3.339-1.617-3.339-3.348,0-2.143,1.867-3.614,4.518-3.614,2.625,0,4.424,1.472,4.484,3.614H52.157c-.112-1.239-1.137-1.987-2.634-1.987S47,20.255,47,21.356c0,.878.654,1.395,2.255,1.79l1.368.336c2.548.6,3.605,1.626,3.605,3.442,0,2.323-1.85,3.778-4.793,3.778-2.754,0-4.613-1.421-4.733-3.667Z" transform="translate(0 0)" fill="#fff"/>
        <path id="Path_6596" data-name="Path 6596" d="M58.243,19.3v2.143h1.722v1.472H58.243v4.991c0,.775.345,1.137,1.1,1.137A5.808,5.808,0,0,0,59.955,29v1.463a5.1,5.1,0,0,1-1.032.086c-1.833,0-2.548-.688-2.548-2.444V22.914H55.059V21.442h1.316V19.3Z" transform="translate(0 0)" fill="#fff"/>
        <path id="Path_6597" data-name="Path 6597" d="M60.96,25.97c0-2.849,1.678-4.639,4.294-4.639s4.295,1.79,4.295,4.639-1.661,4.639-4.295,4.639S60.96,28.826,60.96,25.97Zm6.7,0c0-1.954-.9-3.107-2.4-3.107s-2.4,1.162-2.4,3.107c0,1.962.9,3.106,2.4,3.106s2.4-1.145,2.4-3.106Z" transform="translate(0 0)" fill="#fff"/>
        <path id="Path_6598" data-name="Path 6598" d="M71.081,21.442h1.772v1.541H72.9a2.159,2.159,0,0,1,2.178-1.636,2.866,2.866,0,0,1,.637.069v1.738a2.6,2.6,0,0,0-.835-.112,1.873,1.873,0,0,0-1.937,2.083V30.5H71.081Z" transform="translate(0 0)" fill="#fff"/>
        <path id="Path_6599" data-name="Path 6599" d="M84.28,27.837c-.25,1.644-1.851,2.771-3.9,2.771-2.634,0-4.269-1.765-4.269-4.6s1.644-4.682,4.19-4.682c2.5,0,4.08,1.721,4.08,4.466v.637H77.989v.112a2.358,2.358,0,0,0,2.436,2.564,2.048,2.048,0,0,0,2.091-1.273ZM78,25.135h4.526a2.177,2.177,0,0,0-2.053-2.3q-.084,0-.168,0A2.292,2.292,0,0,0,78,25.115Q78,25.125,78,25.135Z" transform="translate(0 0)" fill="#fff"/>
      </g>
    </g>
    <g id="Group_3697" data-name="Group 3697">
      <path id="Path_6600" data-name="Path 6600" d="M53.794,16.083h-.653c-1.272,0-2.614-.261-2.614-2.021a9.81,9.81,0,0,1,.54-2.317l.845.227-.122.392a7.928,7.928,0,0,0-.357,1.7c0,1.211,1.159,1.211,1.943,1.211h.549c.392,0,.932-.157.932-.653V11.178h.933v2.579a1.536,1.536,0,0,0,.636.122h.322v.8h-.322a2.264,2.264,0,0,1-.636-.1v.122C55.79,15.16,55.441,16.083,53.794,16.083Zm-.531-5.846a.562.562,0,1,1,.592-.566.553.553,0,0,1-.537.568h-.055Z" transform="translate(0 0)" fill="#fff"/>
      <path id="Path_6601" data-name="Path 6601" d="M57.8,13.879a4.02,4.02,0,0,1-.148-1.176,1.863,1.863,0,0,1,1.891-2.056c1.237,0,1.717,1.011,1.717,2.213,0,.889-.314,2.091-1.525,2.091a4.586,4.586,0,0,1-1.167-.27H56.588v-.8Zm.941.035a2.817,2.817,0,0,0,.932.218c.54,0,.688-.688.688-1.3,0-.583-.166-1.42-.872-1.42-.636,0-.915.592-.915,1.342a3.419,3.419,0,0,0,.166,1.159Z" transform="translate(0 0)" fill="#fff"/>
      <path id="Path_6602" data-name="Path 6602" d="M67.408,16.083h-.653c-1.272,0-2.614-.261-2.614-2.021a9.835,9.835,0,0,1,.54-2.317l.846.227-.122.392a7.925,7.925,0,0,0-.357,1.7c0,1.211,1.159,1.211,1.943,1.211h.549c.392,0,.932-.157.932-.653V8.808H69.4v4.949a1.537,1.537,0,0,0,.636.122h.322v.8h-.322a2.269,2.269,0,0,1-.636-.1v.122C69.4,15.16,69.054,16.083,67.408,16.083Z" transform="translate(0 0)" fill="#fff"/>
      <path id="Path_6603" data-name="Path 6603" d="M73.5,10.69v2.448c0,1.037-.619,1.542-1.848,1.542H70.2v-.8h1.412c.74,0,.94-.322.94-.871V10.69Zm-2.335,5.942a.562.562,0,1,1,.593-.566.553.553,0,0,1-.593.566Zm1.464,0a.562.562,0,1,1,.592-.566.553.553,0,0,1-.538.568h-.054Z" transform="translate(0 0)" fill="#fff"/>
      <path id="Path_6604" data-name="Path 6604" d="M74.191,15.988a3.489,3.489,0,0,0,.4.026c.768,0,1.15-.444,1.15-1.342v-3.5h.941v2.709h.862v.8h-.871a2.35,2.35,0,0,1-.6,1.612,2.215,2.215,0,0,1-1.516.514,5.183,5.183,0,0,1-.593-.043Zm1.978-5.664a.562.562,0,1,1,.593-.566.552.552,0,0,1-.593.566Z" transform="translate(0 0)" fill="#fff"/>
      <path id="Path_6605" data-name="Path 6605" d="M80.637,14.681a2.349,2.349,0,0,1-1.071-.3,2.6,2.6,0,0,1-1.473.3h-.706v-.8h.759c.714,0,.854-.113.854-.636V10.69h.933v3.032a1.588,1.588,0,0,0,.705.157h.584v.8ZM79.426,9.819a.562.562,0,1,1,.593-.566.552.552,0,0,1-.593.566Z" transform="translate(0 0)" fill="#fff"/>
      <path id="Path_6606" data-name="Path 6606" d="M83.451,10.69v2.448c0,1.037-.618,1.542-1.847,1.542h-.541v-.8h.506c.74,0,.94-.322.94-.871V10.69Zm-1.386-.872a.562.562,0,1,1,.593-.566.552.552,0,0,1-.593.566Zm1.464,0a.562.562,0,1,1,.593-.566.552.552,0,0,1-.593.566Z" transform="translate(0 0)" fill="#fff"/>
    </g>
  </g>
</svg>
