<svg xmlns="http://www.w3.org/2000/svg" width="35" height="30.68" viewBox="0 0 35 30.68"><g transform="translate(-9 -28)"><path d="M16.864,29.994h1.329c0-.886.111-1.994,1.329-1.994H33.478c1,0,1.218,1.108,1.218,1.994h1.329a3.735,3.735,0,0,1,3.766,3.766v1.218H40.9a1.284,1.284,0,0,1,1.108.443,1.72,1.72,0,0,1,.554,1.551h.332A1.191,1.191,0,0,1,44,38.079V42.4a1.191,1.191,0,0,1-1.108,1.108H42.56a1.72,1.72,0,0,1-.554,1.551c-.554.665-1.44.443-2.215.443v6.978a3.792,3.792,0,0,1-3.544,3.877c0,.886.111,2.326-1.218,2.326H32.7c-1.329,0-1.108-1.44-1.108-2.326h-10.3c0,.886.222,2.326-1.108,2.326H17.861c-1.329,0-1.108-1.44-1.108-2.326A3.886,3.886,0,0,1,13.1,52.478V45.5H11.991a1.514,1.514,0,0,1-1.551-1.551v-.443C10,43.4,9,43.285,9,42.4v-4.32c0-.886.886-1.108,1.44-1.108v-.443a1.284,1.284,0,0,1,.443-1.108,1.284,1.284,0,0,1,1.108-.443H13.1V33.759A3.735,3.735,0,0,1,16.864,29.994Zm9.747,3.655V46.054h9.082a1.822,1.822,0,0,0,1.772-1.772V35.421a1.749,1.749,0,0,0-1.772-1.772Zm-.332,12.405V33.649H17.2a1.822,1.822,0,0,0-1.772,1.772v8.861A1.906,1.906,0,0,0,17.2,46.054Zm-3.544,4.763h7.642c.222,0,.222,0,.222.111v.111c0,.222-.111.332-.443.332h-7.2c-.222,0-.443-.111-.443-.332v-.111C22.513,50.816,22.623,50.816,22.734,50.816Zm.554.886h6.535c.111,0,.222,0,.222.111v.111c0,.222-.222.332-.443.332H23.509a.294.294,0,0,1-.332-.332v-.111C23.177,51.7,23.177,51.7,23.288,51.7Zm.665.886h5.316c.111,0,.222,0,.222.111v.111a.354.354,0,0,1-.332.332H24.063a.294.294,0,0,1-.332-.332V52.7C23.731,52.589,23.842,52.589,23.953,52.589Zm-6.978-1.994h2.769a2.245,2.245,0,0,1,1.994,2.1.976.976,0,0,1-1,.886H16.975a.953.953,0,0,1-.886-.886V51.481A.953.953,0,0,1,16.975,50.595Zm18.94,0H33.256a2.258,2.258,0,0,0-2.1,2.1.976.976,0,0,0,1,.886h3.766a.976.976,0,0,0,1-.886V51.481A.976.976,0,0,0,35.915,50.595ZM13.1,44.392V36.085H11.991a.406.406,0,0,0-.443.443v.443a1.193,1.193,0,0,1,.886,1.108V42.4a.976.976,0,0,1-.886,1v.554a.476.476,0,0,0,.443.443Zm26.693-8.307v8.307H40.9a.507.507,0,0,0,.554-.443V43.4a.993.993,0,0,1-1-1v-4.32a1.178,1.178,0,0,1,1-1.108c0-.332,0-.886-.554-.886Z" fill="#007e28" fill-rule="evenodd"/></g></svg>