<svg xmlns="http://www.w3.org/2000/svg" width="384" height="316.72" viewBox="0 0 384 316.72"><path d="M597.517,406.214l-54.859-31.673V311.2l54.859,31.672v63.344" transform="translate(-378.088 -121.167)" fill="#1e1656"/><path d="M597.517,258.947,542.658,290.62v63.343l54.859-31.672V258.947" transform="translate(-378.088 -163.932)" fill="#1e1656"/><path d="M627.682,206.7,572.826,238.37v63.342l54.856-31.672V206.7" transform="translate(-353.397 -206.697)" fill="#1e1656"/><path d="M537.183,258.947,482.325,290.62v63.343l54.858-31.672V258.947" transform="translate(-427.468 -163.932)" fill="#1e1656"/><path d="M567.348,353.963l-54.856-31.672V258.947l54.856,31.673v63.343" transform="translate(-402.777 -163.932)" fill="#722ea5"/><path d="M688.017,353.963l-54.857-31.672V258.947l54.857,31.673v63.343" transform="translate(-304.017 -163.932)" fill="#2a6ebb"/><path d="M452.158,377.7h0l54.857,31.672L561.873,377.7l-54.857-31.672Z" transform="translate(-452.158 -92.657)" fill="#952d98"/><path d="M512.492,377.7h0l54.856,31.672L622.207,377.7l-54.859-31.672Z" transform="translate(-402.777 -92.657)" fill="#952d98"/><path d="M542.658,325.453h0l54.857,31.672,54.857-31.672-54.857-31.672Z" transform="translate(-378.088 -135.422)" fill="#44c8f5"/><path d="M602.992,325.453h0l54.857,31.672,54.857-31.672L657.85,293.781Z" transform="translate(-328.707 -135.422)" fill="#44c8f5"/></svg>