<svg xmlns="http://www.w3.org/2000/svg" width="152.5" height="152.5" viewBox="0 0 152.5 152.5"><rect width="68.992" height="105.298" transform="translate(76.25 21.783)" fill="#fff"/><path d="M1017.25,205.358v105.3H948.258v-105.3h68.992m0-7.258H948.258A7.256,7.256,0,0,0,941,205.358v105.3a7.256,7.256,0,0,0,7.258,7.258h68.992a7.256,7.256,0,0,0,7.258-7.258v-105.3A7.256,7.256,0,0,0,1017.25,198.1Z" transform="translate(-872.008 -183.576)" fill="#217346"/><rect width="25.419" height="10.895" transform="translate(108.927 32.678)" fill="#217346"/><rect width="25.419" height="10.895" transform="translate(108.927 50.831)" fill="#217346"/><rect width="25.419" height="10.895" transform="translate(108.927 68.992)" fill="#217346"/><rect width="25.419" height="10.895" transform="translate(108.927 87.145)" fill="#217346"/><rect width="25.419" height="10.895" transform="translate(108.927 105.298)" fill="#217346"/><rect width="25.419" height="10.895" transform="translate(76.25 32.678)" fill="#217346"/><rect width="25.419" height="10.895" transform="translate(76.25 50.831)" fill="#217346"/><rect width="25.419" height="10.895" transform="translate(76.25 68.992)" fill="#217346"/><rect width="25.419" height="10.895" transform="translate(76.25 87.145)" fill="#217346"/><rect width="25.419" height="10.895" transform="translate(76.25 105.298)" fill="#217346"/><path d="M90.774,0,0,15.9V136.6l90.774,15.9Z" fill="#217346" fill-rule="evenodd"/><path d="M334.236,594.3l-12.669.763-7.735,18.153-.506,1.635-.367,1.232-.33,1.2-.257.982h0a3.006,3.006,0,0,0-.33-1.378l-.33-1.268-.367-1.2-.4-1.092-6.643-17.244-12.229.763,13.036,28.249L290.7,653.342l11.943.726,8.021-18.52.367-1.268.293-1.129.257-.946v-.762h0l.257,1.342.257,1.129.22.872.22.616,8.351,19.752,13.872.872L319.14,624.91l15.1-30.61" transform="translate(-269.387 -550.728)" fill="#fff"/></svg>