<svg xmlns="http://www.w3.org/2000/svg" width="89.359" height="113.752" viewBox="0 0 89.359 113.752">
  <g id="Group_2983" data-name="Group 2983" transform="translate(0.157 0)">
    <path id="Path_3249" data-name="Path 3249" d="M-48.651,5.519a2.876,2.876,0,0,0-2.137.75,2.631,2.631,0,0,0-.74,1.934,2.507,2.507,0,0,0,.848,2.022,3.267,3.267,0,0,0,2.19.72,7.711,7.711,0,0,0,1.519-.178,9.536,9.536,0,0,0,2.052-.73l.986,1.835a8.584,8.584,0,0,1-1.342.75,8.536,8.536,0,0,1-1.273.454,8.221,8.221,0,0,1-1.1.217,6.966,6.966,0,0,1-.789.059,8.129,8.129,0,0,1-2.289-.306,5.053,5.053,0,0,1-1.809-.927,4.3,4.3,0,0,1-1.194-1.578,5.426,5.426,0,0,1-.434-2.259,5.411,5.411,0,0,1,.4-2.16,4.377,4.377,0,0,1,1.134-1.578,4.852,4.852,0,0,1,1.746-.967,7.31,7.31,0,0,1,2.239-.329h3.282a4.449,4.449,0,0,0-.924-2.66,3.2,3.2,0,0,0-2.555-.927,9.682,9.682,0,0,0-1,.079,7.856,7.856,0,0,0-1.391.3V-2.254a11.938,11.938,0,0,1,1.243-.329,7.348,7.348,0,0,1,1.618-.178,5.852,5.852,0,0,1,2.506.483A4.569,4.569,0,0,1-44.172-.962,5.577,5.577,0,0,1-43.205.962a9.372,9.372,0,0,1,.355,2.3h1.282a1.411,1.411,0,0,1,.3.03.493.493,0,0,1,.247.138.722.722,0,0,1,.164.329,2.343,2.343,0,0,1,.059.592,1.656,1.656,0,0,1-.187.927.672.672,0,0,1-.579.24Zm-.671,2.723a1.347,1.347,0,0,1,.414-.986,1.347,1.347,0,0,1,.986-.414,1.347,1.347,0,0,1,.986.414,1.347,1.347,0,0,1,.414.986,1.347,1.347,0,0,1-.414.986,1.347,1.347,0,0,1-.986.414,1.347,1.347,0,0,1-.986-.414,1.347,1.347,0,0,1-.414-.986ZM-34.5,3.25a6.861,6.861,0,0,0-.256-1.45A3.16,3.16,0,0,0-35.346.666a2.631,2.631,0,0,0-1.036-.74A4.153,4.153,0,0,0-37.97-.341q-.164,0-.414.02t-.572.069q-.316.049-.671.118t-.71.164V-2.254a11.938,11.938,0,0,1,1.243-.329,7.259,7.259,0,0,1,1.6-.178,5.919,5.919,0,0,1,2.516.483A4.549,4.549,0,0,1-33.294-.962,5.447,5.447,0,0,1-32.337.962a9.7,9.7,0,0,1,.345,2.3h1.282a1.411,1.411,0,0,1,.3.03.493.493,0,0,1,.247.138A.722.722,0,0,1-30,3.76a2.343,2.343,0,0,1,.059.592,1.656,1.656,0,0,1-.187.927.672.672,0,0,1-.585.24H-41.568a1.411,1.411,0,0,1-.3-.03.493.493,0,0,1-.247-.135.722.722,0,0,1-.164-.329,2.343,2.343,0,0,1-.059-.592,1.656,1.656,0,0,1,.187-.927.672.672,0,0,1,.579-.256Zm6.057,0V-8.568h2.585V5.519h-4.86a1.411,1.411,0,0,1-.3-.03.493.493,0,0,1-.247-.135.722.722,0,0,1-.164-.329,2.343,2.343,0,0,1-.059-.592,1.656,1.656,0,0,1,.187-.927.672.672,0,0,1,.579-.256Zm7.5-11.818V5.519h-2.545V-8.568ZM-1.286,5.519a5.056,5.056,0,0,1-2.022,3.4,7.815,7.815,0,0,1-4.646,1.194A8.022,8.022,0,0,1-12.67,8.952a4.212,4.212,0,0,1-1.6-3.67V2.106h2.565V4.737a2.754,2.754,0,0,0,.908,2.3,4.932,4.932,0,0,0,3,.71,7.234,7.234,0,0,0,1.667-.164,3.782,3.782,0,0,0,1.167-.477,2.466,2.466,0,0,0,.74-.71,2.516,2.516,0,0,0,.365-.878H-5.048a6.226,6.226,0,0,1-1.608-.2,3.277,3.277,0,0,1-1.273-.641A2.959,2.959,0,0,1-8.75,3.53a4.326,4.326,0,0,1-.3-1.687A4.735,4.735,0,0,1-8.78.284,4.337,4.337,0,0,1-8-1.1a3.79,3.79,0,0,1,1.263-.977A3.921,3.921,0,0,1-5-2.439a4.01,4.01,0,0,1,1.825.375A3.01,3.01,0,0,1-1.993-1.008,4.709,4.709,0,0,1-1.352.61a10.029,10.029,0,0,1,.2,2.062v.572H.4a1.411,1.411,0,0,1,.3.03.493.493,0,0,1,.247.138.722.722,0,0,1,.164.329,2.343,2.343,0,0,1,.059.592,1.656,1.656,0,0,1-.187.927.672.672,0,0,1-.585.26ZM-6.514,1.613A1.675,1.675,0,0,0-6.12,2.9a1.592,1.592,0,0,0,1.085.345h1.282V2.066A3.647,3.647,0,0,0-4.048.5,1.093,1.093,0,0,0-5.133-.124,1.167,1.167,0,0,0-6.2.37a2.264,2.264,0,0,0-.309,1.243ZM-7.757-5.747a1.347,1.347,0,0,1,.414-.986,1.347,1.347,0,0,1,.986-.414,1.347,1.347,0,0,1,.986.414,1.347,1.347,0,0,1,.414.986,1.347,1.347,0,0,1-.414.986,1.347,1.347,0,0,1-.986.414,1.347,1.347,0,0,1-.986-.414,1.347,1.347,0,0,1-.408-.986Zm3.216,0a1.347,1.347,0,0,1,.414-.986,1.347,1.347,0,0,1,.986-.414,1.347,1.347,0,0,1,.986.414,1.347,1.347,0,0,1,.414.986,1.347,1.347,0,0,1-.414.986,1.347,1.347,0,0,1-.986.414,1.347,1.347,0,0,1-.986-.414,1.347,1.347,0,0,1-.408-.986Zm12,11.266a4.786,4.786,0,0,1-.592-.039,2.769,2.769,0,0,1-.612-.148A2.234,2.234,0,0,1,5.7,5.026a1.608,1.608,0,0,1-.444-.513,1.952,1.952,0,0,1-.572.543,2.608,2.608,0,0,1-.7.3,4.285,4.285,0,0,1-.779.128q-.411.036-.806.036H.4a1.411,1.411,0,0,1-.3-.03.493.493,0,0,1-.247-.138.722.722,0,0,1-.164-.329,2.343,2.343,0,0,1-.059-.592A1.656,1.656,0,0,1-.181,3.5.672.672,0,0,1,.4,3.247H1.98a1.577,1.577,0,0,0,.937-.207q.266-.207.266-.937V-2.337H5.748V1.886a1.279,1.279,0,0,0,.385,1.046,2.137,2.137,0,0,0,1.332.316,1.411,1.411,0,0,1,.3.03.493.493,0,0,1,.247.138.722.722,0,0,1,.164.329,2.343,2.343,0,0,1,.059.592,1.656,1.656,0,0,1-.187.927.672.672,0,0,1-.582.256ZM.911,8.834a1.347,1.347,0,0,1,.414-.986,1.347,1.347,0,0,1,.986-.414,1.347,1.347,0,0,1,.986.414,1.382,1.382,0,0,1,0,1.973,1.347,1.347,0,0,1-.986.414,1.347,1.347,0,0,1-.986-.414A1.347,1.347,0,0,1,.911,8.834Zm3.216,0a1.415,1.415,0,0,1,1.4-1.4A1.4,1.4,0,0,1,6.514,9.82a1.382,1.382,0,0,1-1.973,0A1.347,1.347,0,0,1,4.127,8.834Zm4.538-5.59A1.577,1.577,0,0,0,9.6,3.036q.266-.207.266-.937V-2.34h2.565V1.882a1.58,1.58,0,0,0,.276,1.046,1.666,1.666,0,0,0,1.223.316,1.411,1.411,0,0,1,.3.03.493.493,0,0,1,.247.138.722.722,0,0,1,.164.329,2.343,2.343,0,0,1,.059.592,1.656,1.656,0,0,1-.187.927.672.672,0,0,1-.579.26,3.3,3.3,0,0,1-1.1-.187,1.68,1.68,0,0,1-.888-.822,1.952,1.952,0,0,1-.572.543,2.608,2.608,0,0,1-.71.306,4.285,4.285,0,0,1-.779.128q-.4.033-.806.033H7.455a1.411,1.411,0,0,1-.3-.03.493.493,0,0,1-.24-.135.722.722,0,0,1-.164-.329,2.343,2.343,0,0,1-.059-.592,1.656,1.656,0,0,1,.187-.927.672.672,0,0,1,.582-.256ZM9.75,8.768a1.373,1.373,0,1,1,0,.007ZM16.28,3.244V-8.568h2.545V.074a4.872,4.872,0,0,1,.789-1.085,5.373,5.373,0,0,1,1.046-.848,4.932,4.932,0,0,1,1.2-.543,4.484,4.484,0,0,1,1.282-.187A3.89,3.89,0,0,1,26.27-1.376a4.988,4.988,0,0,1,1.046,3.364V3.25h1.539a1.411,1.411,0,0,1,.3.03.493.493,0,0,1,.247.138.722.722,0,0,1,.164.329,2.343,2.343,0,0,1,.062.589,1.656,1.656,0,0,1-.187.927.672.672,0,0,1-.589.256H13.933a1.411,1.411,0,0,1-.3-.03.493.493,0,0,1-.247-.138.722.722,0,0,1-.164-.329,2.343,2.343,0,0,1-.059-.592,1.656,1.656,0,0,1,.187-.927.672.672,0,0,1,.582-.256Zm8.464,0V1.981a3.578,3.578,0,0,0-.1-.868,1.771,1.771,0,0,0-.329-.681,1.583,1.583,0,0,0-.592-.454,2.2,2.2,0,0,0-.917-.164A2.864,2.864,0,0,0,21.624.08a4.11,4.11,0,0,0-1.1.74,5.755,5.755,0,0,0-.917,1.1,6.447,6.447,0,0,0-.658,1.332Zm6.373,0v-5.59H33.7V5.519H28.848a1.411,1.411,0,0,1-.3-.03.493.493,0,0,1-.243-.135.722.722,0,0,1-.164-.329,2.343,2.343,0,0,1-.066-.592,1.656,1.656,0,0,1,.187-.927.672.672,0,0,1,.582-.256Zm-1.934-8.99a1.347,1.347,0,0,1,.414-.986,1.347,1.347,0,0,1,.986-.414,1.347,1.347,0,0,1,.986.414,1.347,1.347,0,0,1,.414.986,1.347,1.347,0,0,1-.414.986,1.347,1.347,0,0,1-.986.414A1.347,1.347,0,0,1,29.6-4.76,1.347,1.347,0,0,1,29.184-5.747Zm3.216,0a1.347,1.347,0,0,1,.414-.986,1.347,1.347,0,0,1,.986-.408,1.347,1.347,0,0,1,.986.414,1.347,1.347,0,0,1,.414.986,1.347,1.347,0,0,1-.414.986,1.347,1.347,0,0,1-.986.408,1.347,1.347,0,0,1-.986-.414A1.347,1.347,0,0,1,32.4-5.747Z" transform="translate(54 76.689)" fill="#3d3d3b"/>
    <path id="Path_3250" data-name="Path 3250" d="M-47.844-8.568h3.1v5.406h5.7V-8.568h3.1V5.519h-3.1V-.564h-5.7V5.519h-3.1Zm20.677,9.1a1.256,1.256,0,0,1-.444.247,4.533,4.533,0,0,1-.572.148q-.306.059-.658.1t-.658.1a4.429,4.429,0,0,0-.631.164,1.865,1.865,0,0,0-.523.266,1.24,1.24,0,0,0-.365.434,1.378,1.378,0,0,0-.138.641,1.305,1.305,0,0,0,.138.641,1.08,1.08,0,0,0,.375.395,1.582,1.582,0,0,0,.552.207,3.527,3.527,0,0,0,.658.059,2.476,2.476,0,0,0,1.282-.276,1.848,1.848,0,0,0,.671-.658,2.114,2.114,0,0,0,.266-.779,5.353,5.353,0,0,0,.049-.631Zm-6.465-2.078a3.254,3.254,0,0,1,.493-1.644,3.359,3.359,0,0,1,1.1-1.046,4.819,4.819,0,0,1,1.5-.562,8.533,8.533,0,0,1,1.7-.164,11.432,11.432,0,0,1,1.559.109,4.768,4.768,0,0,1,1.44.424,2.8,2.8,0,0,1,1.065.888,2.466,2.466,0,0,1,.414,1.48V3.25a10.658,10.658,0,0,0,.079,1.315,2.389,2.389,0,0,0,.27.954h-2.841a4.021,4.021,0,0,1-.128-.483,4.209,4.209,0,0,1-.076-.5,3.736,3.736,0,0,1-1.578.977,6.134,6.134,0,0,1-1.855.286,4.768,4.768,0,0,1-1.361-.187,3.249,3.249,0,0,1-1.1-.562,2.572,2.572,0,0,1-.74-.947,3.2,3.2,0,0,1-.266-1.361,3.056,3.056,0,0,1,.3-1.43,2.433,2.433,0,0,1,.789-.9,3.662,3.662,0,0,1,1.115-.5A11.484,11.484,0,0,1-30.488-.36q.658-.1,1.243-.164A7.182,7.182,0,0,0-28.19-.7a1.889,1.889,0,0,0,.74-.345.806.806,0,0,0,.276-.658,1.48,1.48,0,0,0-.148-.72,1.088,1.088,0,0,0-.395-.414,1.552,1.552,0,0,0-.572-.2,4.682,4.682,0,0,0-.7-.049,2.137,2.137,0,0,0-1.292.355,1.569,1.569,0,0,0-.562,1.184Zm10,8.273a1.973,1.973,0,0,0,.612.079,1.644,1.644,0,0,0,.76-.164q.329-.164.329-.74V-4.675h2.8V6.032A4.875,4.875,0,0,1-19.3,7.394a2.113,2.113,0,0,1-.572.957,2.511,2.511,0,0,1-1.1.572,6.855,6.855,0,0,1-1.756.187q-.217,0-.454-.02t-.454-.059Zm4.5-12.989h-2.8v-2.3h2.8Zm.986,12.989a1.973,1.973,0,0,0,.612.079,1.644,1.644,0,0,0,.76-.164q.329-.164.329-.74V-4.675h2.8V6.032a4.875,4.875,0,0,1-.164,1.361,2.113,2.113,0,0,1-.572.957,2.511,2.511,0,0,1-1.1.572,6.855,6.855,0,0,1-1.756.187q-.217,0-.454-.02t-.454-.059Zm4.5-12.989h-2.8v-2.3h2.8ZM-1.6-8.568H1.579L6.847,5.519H3.631L2.566,2.382H-2.7L-3.807,5.519H-6.944Zm-.3,8.642h3.65L-.019-5.1H-.058ZM7.775-4.681h2.664v1.3h.039a3.081,3.081,0,0,1,1.3-1.2,4,4,0,0,1,1.736-.375,4.418,4.418,0,0,1,2.072.454,4.275,4.275,0,0,1,1.44,1.2,5.082,5.082,0,0,1,.848,1.749A7.755,7.755,0,0,1,18.159.527,7.011,7.011,0,0,1,17.883,2.5a5.023,5.023,0,0,1-.839,1.677,4.26,4.26,0,0,1-1.407,1.177,4.137,4.137,0,0,1-1.963.444A3.908,3.908,0,0,1,11.938,5.4a3.364,3.364,0,0,1-1.315-1.151h-.039V9.11h-2.8Zm5.15,8.365a2.221,2.221,0,0,0,1.151-.276,2.246,2.246,0,0,0,.75-.72,2.959,2.959,0,0,0,.4-1.026A6.083,6.083,0,0,0,15.348.449a5.667,5.667,0,0,0-.128-1.2A3.2,3.2,0,0,0,14.8-1.81a2.363,2.363,0,0,0-.76-.75A2.121,2.121,0,0,0,12.9-2.846a2.16,2.16,0,0,0-1.151.286,2.3,2.3,0,0,0-.75.74,3.071,3.071,0,0,0-.4,1.056A6.271,6.271,0,0,0,10.478.449a5.625,5.625,0,0,0,.128,1.213,3.112,3.112,0,0,0,.414,1.026,2.246,2.246,0,0,0,.75.72,2.221,2.221,0,0,0,1.154.276ZM19.83-4.681h2.664v1.3h.039a3.081,3.081,0,0,1,1.3-1.2,4,4,0,0,1,1.736-.375,4.418,4.418,0,0,1,2.072.454,4.275,4.275,0,0,1,1.44,1.2,5.082,5.082,0,0,1,.848,1.749A7.755,7.755,0,0,1,30.208.527,7.011,7.011,0,0,1,29.931,2.5a5.023,5.023,0,0,1-.839,1.677,4.26,4.26,0,0,1-1.4,1.177,4.137,4.137,0,0,1-1.973.441A3.908,3.908,0,0,1,23.986,5.4,3.364,3.364,0,0,1,22.671,4.25h-.039V9.11h-2.8Zm5.15,8.365a2.221,2.221,0,0,0,1.151-.276,2.246,2.246,0,0,0,.75-.72,2.959,2.959,0,0,0,.4-1.026A6.083,6.083,0,0,0,27.4.449a5.667,5.667,0,0,0-.128-1.2A3.2,3.2,0,0,0,26.85-1.81a2.363,2.363,0,0,0-.76-.75,2.121,2.121,0,0,0-1.134-.286,2.16,2.16,0,0,0-1.151.286,2.3,2.3,0,0,0-.75.74,3.071,3.071,0,0,0-.4,1.056A6.271,6.271,0,0,0,22.533.449a5.625,5.625,0,0,0,.128,1.213,3.112,3.112,0,0,0,.414,1.026,2.246,2.246,0,0,0,.75.72,2.221,2.221,0,0,0,1.154.276Z" transform="translate(54.778 104.64)" fill="#3d3d3b"/>
    <g id="Kabah" transform="translate(21.475 0)">
      <g id="Group_351" data-name="Group 351" transform="translate(0 0)">
        <path id="Path_252" data-name="Path 252" d="M25.018,2.007V13.089a2.071,2.071,0,0,0-.444,0L5.288,18.449,2,19.353V9.186s.419.176,22.492-7.178a1.841,1.841,0,0,1,.526,0Z" transform="translate(-2 -1.989)" fill="#212121"/>
        <path id="Path_253" data-name="Path 253" d="M25.018,10.78v3.782h-.444L5.288,19.954,2,20.859V17.143l3.288-.9Z" transform="translate(-2 3.675)" fill="#212121"/>
        <path id="Path_254" data-name="Path 254" d="M25.018,15.11V39.871h-.3C2.557,35.863,2,35.741,2,35.741V21.506l3.288-.921Z" transform="translate(-2 6.464)" fill="#212121"/>
        <path id="Path_255" data-name="Path 255" d="M39.018,21.506V35.728s-.557.164-22.722,4.176H16V15.11l19.73,5.459Z" transform="translate(7.018 6.464)" fill="#3d3d3b"/>
      </g>
      <path id="Path_257" data-name="Path 257" d="M39.018,19.386l-3.288-.937L16.444,13.155a2.072,2.072,0,0,0-.444,0V2.007a1.841,1.841,0,0,1,.526,0l22.492,7.31Z" transform="translate(7.018 -1.989)" fill="#3d3d3b"/>
      <path id="Path_258" data-name="Path 258" d="M39.018,17.124v3.716l-3.288-.9L16.444,14.592H16V10.81l19.73,5.409Z" transform="translate(7.018 3.694)" fill="#3d3d3b"/>
      <path id="Path_259" data-name="Path 259" d="M0-2.054,22.737,2.268l23.3-4.322v5.39l-23.3,4.719L0,3.336Z" transform="translate(0 49.645)" fill="#3b7937"/>
    </g>
  </g>
</svg>
