<svg xmlns="http://www.w3.org/2000/svg" width="46" height="43.306" viewBox="0 0 46 43.306"><g transform="translate(-683.333 -694.073)"><g transform="translate(1046.639 609)"><path d="M26.069,63.5,19,64.379a.139.139,0,0,0-.139-.139c-.077,0-.139.062-7.223-.369L1.783,53.68a2.787,2.787,0,0,1-.226-3.609l5.49-7.321a5.766,5.766,0,0,1,4.612-2.306h6.549a5.044,5.044,0,1,1,1.3,0h6.549l10.8-7.191L38.381,37,26.069,49.09ZM11.659,47.649l-4.32,4.32,4.32,4.611Z" transform="translate(-364.305 64)" fill="#007e28"/></g><g transform="translate(718 694.073)"><path d="M13.24,14.7a33.734,33.734,0,0,0,0-5.58,5.935,5.935,0,0,1,4.771.231h0a5.941,5.941,0,0,0,4.862.2l.506-.2V2.193l-.506.2a5.941,5.941,0,0,1-4.862-.2h0a5.941,5.941,0,0,0-4.771-.231V1H12.046V14.353S12.942,16.005,13.24,14.7Z" transform="translate(-12.046 -1)" fill="#007e28"/></g></g></svg>