<?xml version="1.0" encoding="UTF-8" standalone="no"?>
<svg xmlns="http://www.w3.org/2000/svg"
     width="90.2998mm" height="90.2998mm"
     viewBox="0 0 256 256">
  <path id="Selection"
        fill="#19499c" stroke="#19499c" stroke-width="1"
        d="M 91.00,12.21
           C 91.00,12.21 81.00,13.28 81.00,13.28
             66.39,15.04 51.63,18.63 39.00,26.47
             35.38,28.71 25.46,36.80 26.81,41.69
             27.55,44.36 34.55,45.26 37.00,45.79
             37.00,45.79 66.00,53.34 66.00,53.34
             94.75,62.31 119.09,69.64 145.00,86.05
             152.26,90.65 162.73,98.32 169.00,104.08
             171.05,105.96 181.46,116.04 183.07,116.60
             185.77,117.54 187.51,115.70 189.20,113.89
             189.20,113.89 200.60,100.00 200.60,100.00
             200.60,100.00 219.71,75.00 219.71,75.00
             222.79,70.67 227.24,65.17 228.47,60.00
             229.96,53.75 227.98,45.81 225.54,40.00
             219.77,26.31 205.65,19.88 192.00,16.65
             174.12,12.43 145.73,12.00 127.00,12.21
             127.00,12.21 91.00,12.21 91.00,12.21 Z" />

  <path id="Selection #2"
        fill="#66216e" stroke="#66216e" stroke-width="1"
        d="M 230.00,80.00
           C 230.00,80.00 212.40,104.00 212.40,104.00
             192.08,129.44 176.73,144.60 150.00,163.28
             150.00,163.28 116.00,184.24 116.00,184.24
             113.04,185.75 102.70,189.73 101.61,192.27
             100.55,194.76 101.91,198.55 102.66,201.00
             102.66,201.00 107.95,217.00 107.95,217.00
             109.29,220.68 112.95,234.18 115.51,235.98
             117.29,237.23 120.86,237.00 123.00,237.00
             123.00,237.00 178.00,236.05 178.00,236.05
             188.27,234.90 199.07,233.04 208.00,227.53
             222.54,218.56 227.66,203.81 230.80,188.00
             234.30,170.34 234.00,151.93 234.00,134.00
             234.00,134.00 234.00,111.00 234.00,111.00
             234.00,111.00 233.00,95.00 233.00,95.00
             232.99,87.03 233.04,87.86 232.00,80.00
             232.00,80.00 230.00,80.00 230.00,80.00 Z" />
  <path id="Selection #1"
        fill="#0e1435" stroke="#0e1435" stroke-width="1"
        d="M 101.00,237.00
           C 101.00,237.00 93.88,210.00 93.88,210.00
             89.71,194.10 85.08,170.28 85.00,154.00
             85.00,154.00 84.04,140.00 84.04,140.00
             84.04,140.00 85.00,128.00 85.00,128.00
             85.00,128.00 87.04,95.00 87.04,95.00
             87.04,95.00 88.07,81.00 88.07,81.00
             88.40,78.54 89.31,75.53 88.07,73.27
             86.12,70.19 78.45,68.74 75.00,67.66
             75.00,67.66 37.00,58.61 37.00,58.61
             33.97,58.04 24.05,55.41 21.98,57.64
             20.43,59.31 19.47,68.36 19.15,71.00
             19.15,71.00 16.91,97.00 16.91,97.00
             16.91,97.00 16.00,107.00 16.00,107.00
             15.71,131.83 16.90,156.36 19.85,181.00
             21.81,197.45 23.15,212.15 37.00,223.53
             52.92,236.60 81.16,237.00 101.00,237.00 Z" />
</svg>
