<svg xmlns="http://www.w3.org/2000/svg" width="351.675" height="84.166" viewBox="0 0 351.675 84.166"><g transform="translate(-1212.625 -20)"><path d="M551.555,352.733l-8.9-5.137V337.323l8.9,5.136v10.273" transform="translate(964.235 -286.506)" fill="#1e1656"/><path d="M551.555,285.073l-8.9,5.136v10.273l8.9-5.136V285.073" transform="translate(964.235 -249.664)" fill="#1e1656"/><path d="M581.722,232.822l-8.9,5.136v10.272l8.9-5.136V232.822" transform="translate(942.964 -212.822)" fill="#1e1656"/><path d="M491.221,285.073l-8.9,5.136v10.273l8.9-5.136V285.073" transform="translate(1006.776 -249.664)" fill="#1e1656"/><path d="M521.388,300.482l-8.9-5.136V285.073l8.9,5.136v10.273" transform="translate(985.505 -249.664)" fill="#722ea5"/><path d="M642.056,300.482l-8.9-5.136V285.073l8.9,5.136v10.273" transform="translate(900.423 -249.664)" fill="#2a6ebb"/><path d="M452.158,377.294h0l8.9,5.136,8.9-5.136-8.9-5.136Z" transform="translate(1028.047 -311.067)" fill="#952d98"/><path d="M512.492,377.294h0l8.9,5.136,8.9-5.136-8.9-5.136Z" transform="translate(985.505 -311.067)" fill="#952d98"/><path d="M542.658,325.043h0l8.9,5.136,8.9-5.136-8.9-5.136Z" transform="translate(964.235 -274.225)" fill="#44c8f5"/><path d="M602.992,325.043h0l8.9,5.136,8.9-5.136-8.9-5.136Z" transform="translate(921.694 -274.225)" fill="#44c8f5"/><path d="M544.359,391.458c0,1.72,0,10.706,0,13.126H535.4a.3.3,0,0,0-.211.084l-2.654,4.5c-.08.147-.107.21-.063.32a.29.29,0,0,0,.27.181h30.631a4.439,4.439,0,0,0,3.4-1.706,4.43,4.43,0,0,0,3.389,1.707h21.912a.291.291,0,0,0,.294-.286V404.87a.288.288,0,0,0-.086-.2.307.307,0,0,0-.208-.085H580.437l0-7.123a1.158,1.158,0,0,1,1.13-1.161l7.823,0a.3.3,0,0,0,.213-.084l2.678-4.537c.08-.148.108-.211.063-.322a.3.3,0,0,0-.273-.184H580.234a4.839,4.839,0,0,0-4.92,4.616v8.793H570.9V382.231a.29.29,0,0,0-.181-.27c-.11-.044-.172-.017-.319.063l-4.5,2.656a.3.3,0,0,0-.083.211v19.693h-4.41v-8.841a4.8,4.8,0,0,0-4.877-4.571H544.648A.294.294,0,0,0,544.359,391.458Zm11.971,13.126H550.6a1.151,1.151,0,0,1-1.149-1.122V396.3h5.762a1.147,1.147,0,0,1,1.119,1.15Z" transform="translate(971.432 -317.965)" fill="#808285"/><path d="M9.574,8.6H8.911c-1.318,0-1.88-.577-1.88-1.93V.126A.119.119,0,0,1,7.156,0h1.5a.119.119,0,0,1,.126.126v6.4c0,.4.157.577.526.577h.263a.119.119,0,0,1,.126.125v1.24A.119.119,0,0,1,9.574,8.6Zm10.215-.075h-1.5A.118.118,0,0,1,18.16,8.4V4.912c0-.69-.356-1.1-.953-1.1-.58,0-.94.422-.94,1.1V8.4a.118.118,0,0,1-.125.125h-1.5a.118.118,0,0,1-.125-.125V4.912c0-.7-.343-1.1-.94-1.1s-.952.422-.952,1.1V8.4a.118.118,0,0,1-.125.125h-1.5a.119.119,0,0,1-.126-.125V2.582a.119.119,0,0,1,.126-.126h1.5a.119.119,0,0,1,.125.126v.426h.013A1.837,1.837,0,0,1,14.2,2.318a1.86,1.86,0,0,1,1.629.765h.013a2.485,2.485,0,0,1,1.905-.765,2.034,2.034,0,0,1,2.168,2.256V8.4A.118.118,0,0,1,19.789,8.522Zm-14.2,0H.125A.118.118,0,0,1,0,8.4V.126A.119.119,0,0,1,.125,0H5.589a.119.119,0,0,1,.126.126V1.467a.119.119,0,0,1-.126.125H1.917a.066.066,0,0,0-.075.075V3.359a.066.066,0,0,0,.075.076H4.975a.118.118,0,0,1,.125.125V4.888a.118.118,0,0,1-.125.125H1.917a.066.066,0,0,0-.075.076V6.855a.067.067,0,0,0,.075.076H5.589a.119.119,0,0,1,.126.125V8.4A.119.119,0,0,1,5.589,8.522Z" transform="translate(1543.885 95.07)" fill="#808285" stroke="rgba(0,0,0,0)" stroke-miterlimit="10" stroke-width="1"/><path d="M2.394-19.1a.252.252,0,0,1,.285-.285H4.5a.5.5,0,0,1,.484.285L13.766-4.56h.114V-19.1a.253.253,0,0,1,.289-.285h1.817a.253.253,0,0,1,.289.285V-.285A.252.252,0,0,1,15.989,0H14.165a.5.5,0,0,1-.484-.285L4.873-14.763H4.788V-.285A.253.253,0,0,1,4.5,0H2.683a.253.253,0,0,1-.289-.285ZM29.237,0a.25.25,0,0,1-.281-.285v-1.2h-.028A3.681,3.681,0,0,1,27.445-.2a5.6,5.6,0,0,1-2.565.513,6.153,6.153,0,0,1-1.81-.257,4.091,4.091,0,0,1-1.454-.772A3.651,3.651,0,0,1,20.648-2a4.262,4.262,0,0,1-.356-1.8,3.7,3.7,0,0,1,1.411-3.2,6.54,6.54,0,0,1,3.919-1.03h3.107a.151.151,0,0,0,.171-.17V-9.2a2.639,2.639,0,0,0-.684-2.037,3.958,3.958,0,0,0-2.594-.622,5.913,5.913,0,0,0-1.938.271,5.45,5.45,0,0,0-1.368.7q-.256.2-.4-.028l-.77-1.311a.316.316,0,0,1,.057-.4,6.166,6.166,0,0,1,1.938-.969,8.97,8.97,0,0,1,2.708-.37A6.228,6.228,0,0,1,29.968-12.9,4.566,4.566,0,0,1,31.179-9.32V-.285A.25.25,0,0,1,30.9,0Zm-3.8-1.739a4.119,4.119,0,0,0,2.548-.7A2.344,2.344,0,0,0,28.9-4.418v-1.51a.151.151,0,0,0-.171-.171H25.979a4.9,4.9,0,0,0-2.605.527,1.88,1.88,0,0,0-.8,1.7,1.848,1.848,0,0,0,.744,1.6A3.558,3.558,0,0,0,25.435-1.739ZM39.729.143a3.686,3.686,0,0,1-2.836-.926,4.307,4.307,0,0,1-.841-2.95v-7.809a.151.151,0,0,0-.171-.171h-1.14A.252.252,0,0,1,34.457-12v-1.368a.252.252,0,0,1,.285-.285h1.14a.151.151,0,0,0,.171-.171V-17.67a.252.252,0,0,1,.285-.285h1.824a.252.252,0,0,1,.285.285v3.847a.151.151,0,0,0,.171.171h2.166a.252.252,0,0,1,.285.285V-12a.252.252,0,0,1-.285.285H38.618a.151.151,0,0,0-.171.171v7.724a1.791,1.791,0,0,0,.413,1.382,2.01,2.01,0,0,0,1.325.356h.6a.252.252,0,0,1,.285.285V-.143a.252.252,0,0,1-.285.285ZM45-16.729a.252.252,0,0,1-.285-.285V-19.1A.252.252,0,0,1,45-19.38h1.938a.252.252,0,0,1,.285.285v2.081a.252.252,0,0,1-.285.285ZM45.059,0a.252.252,0,0,1-.285-.285V-13.366a.252.252,0,0,1,.285-.285h1.824a.252.252,0,0,1,.285.285V-.285A.252.252,0,0,1,46.882,0Zm11.8.314a5.868,5.868,0,0,1-3.406-.969,5.107,5.107,0,0,1-1.981-2.708,9.288,9.288,0,0,1-.342-1.5,14.175,14.175,0,0,1-.114-1.981,13.86,13.86,0,0,1,.114-1.967,9.35,9.35,0,0,1,.342-1.482,5.036,5.036,0,0,1,1.981-2.722,5.932,5.932,0,0,1,3.406-.955,5.932,5.932,0,0,1,3.406.955,5.036,5.036,0,0,1,1.981,2.722,9.35,9.35,0,0,1,.342,1.482A13.86,13.86,0,0,1,62.7-6.84a14.176,14.176,0,0,1-.114,1.981,9.288,9.288,0,0,1-.342,1.5A5.107,5.107,0,0,1,60.263-.656,5.868,5.868,0,0,1,56.858.314Zm0-2.223A3.306,3.306,0,0,0,58.8-2.465a3.026,3.026,0,0,0,1.14-1.582,6.869,6.869,0,0,0,.242-1.183,14.535,14.535,0,0,0,.071-1.61,14.135,14.135,0,0,0-.071-1.6A6.9,6.9,0,0,0,59.936-9.6a3.026,3.026,0,0,0-1.14-1.582,3.306,3.306,0,0,0-1.938-.556,3.306,3.306,0,0,0-1.938.556A3.026,3.026,0,0,0,53.78-9.6a6.9,6.9,0,0,0-.242,1.169,14.136,14.136,0,0,0-.071,1.6,14.536,14.536,0,0,0,.071,1.61,6.869,6.869,0,0,0,.242,1.183,3.026,3.026,0,0,0,1.14,1.582A3.306,3.306,0,0,0,56.858-1.91ZM75.411,0a.252.252,0,0,1-.285-.285v-7.98a3.914,3.914,0,0,0-.755-2.565,2.807,2.807,0,0,0-2.294-.912,3.012,3.012,0,0,0-2.266.9,3.355,3.355,0,0,0-.869,2.437V-.285A.252.252,0,0,1,68.657,0H66.833a.252.252,0,0,1-.285-.285V-13.366a.252.252,0,0,1,.285-.285h1.824a.252.252,0,0,1,.285.285v1.254h.028a3.733,3.733,0,0,1,1.453-1.325,4.891,4.891,0,0,1,2.366-.527,4.434,4.434,0,0,1,3.477,1.4A5.379,5.379,0,0,1,77.52-8.835v8.55A.252.252,0,0,1,77.235,0Zm14.9,0a.25.25,0,0,1-.281-.285v-1.2H90A3.681,3.681,0,0,1,88.521-.2a5.6,5.6,0,0,1-2.565.513,6.153,6.153,0,0,1-1.81-.257,4.091,4.091,0,0,1-1.453-.772A3.651,3.651,0,0,1,81.724-2a4.262,4.262,0,0,1-.356-1.8,3.7,3.7,0,0,1,1.411-3.2A6.54,6.54,0,0,1,86.7-8.037H89.8a.151.151,0,0,0,.171-.17V-9.2a2.639,2.639,0,0,0-.684-2.037,3.958,3.958,0,0,0-2.594-.622,5.913,5.913,0,0,0-1.938.271,5.45,5.45,0,0,0-1.368.7q-.256.2-.4-.028l-.77-1.311a.316.316,0,0,1,.057-.4,6.166,6.166,0,0,1,1.938-.969,8.97,8.97,0,0,1,2.708-.37A6.228,6.228,0,0,1,91.043-12.9,4.565,4.565,0,0,1,92.255-9.32V-.285A.25.25,0,0,1,91.973,0Zm-3.8-1.739a4.119,4.119,0,0,0,2.548-.7,2.344,2.344,0,0,0,.916-1.981v-1.51A.151.151,0,0,0,89.8-6.1H87.055a4.9,4.9,0,0,0-2.605.527,1.88,1.88,0,0,0-.8,1.7,1.848,1.848,0,0,0,.744,1.6A3.558,3.558,0,0,0,86.51-1.739ZM100.12.143a3.279,3.279,0,0,1-2.565-.869,4.031,4.031,0,0,1-.77-2.722V-19.1a.252.252,0,0,1,.285-.285h1.824a.252.252,0,0,1,.285.285v15.5a1.661,1.661,0,0,0,.328,1.183,1.423,1.423,0,0,0,1.04.328h.542a.252.252,0,0,1,.285.285V-.143a.252.252,0,0,1-.285.285ZM111.923,0a.253.253,0,0,1-.288-.285V-19.1a.252.252,0,0,1,.285-.285h6.9a7.4,7.4,0,0,1,2.536.413,5.509,5.509,0,0,1,1.938,1.169,5.223,5.223,0,0,1,1.24,1.824,6.174,6.174,0,0,1,.442,2.38,6.188,6.188,0,0,1-.441,2.38A5.225,5.225,0,0,1,123.3-9.391a5.491,5.491,0,0,1-1.933,1.169,7.362,7.362,0,0,1-2.53.413H114.37a.151.151,0,0,0-.171.171V-.285a.253.253,0,0,1-.288.285Zm6.765-10.175a3.965,3.965,0,0,0,2.783-.912,3.234,3.234,0,0,0,.994-2.508,3.234,3.234,0,0,0-.994-2.508,3.965,3.965,0,0,0-2.783-.912H114.37a.151.151,0,0,0-.171.171v6.5a.151.151,0,0,0,.171.171ZM131.727.143a3.278,3.278,0,0,1-2.565-.869,4.031,4.031,0,0,1-.77-2.722V-19.1a.252.252,0,0,1,.285-.285H130.5a.252.252,0,0,1,.285.285v15.5a1.661,1.661,0,0,0,.328,1.183,1.423,1.423,0,0,0,1.04.328h.542a.252.252,0,0,1,.285.285V-.143a.252.252,0,0,1-.285.285ZM144.605,0a.25.25,0,0,1-.281-.285v-1.2H144.3A3.681,3.681,0,0,1,142.813-.2a5.6,5.6,0,0,1-2.565.513,6.153,6.153,0,0,1-1.81-.257,4.091,4.091,0,0,1-1.453-.772A3.651,3.651,0,0,1,136.016-2a4.262,4.262,0,0,1-.356-1.8,3.7,3.7,0,0,1,1.411-3.2,6.54,6.54,0,0,1,3.919-1.03H144.1a.151.151,0,0,0,.171-.17V-9.2a2.639,2.639,0,0,0-.684-2.037,3.958,3.958,0,0,0-2.594-.622,5.913,5.913,0,0,0-1.938.271,5.45,5.45,0,0,0-1.368.7q-.257.2-.4-.028l-.77-1.311a.316.316,0,0,1,.057-.4,6.166,6.166,0,0,1,1.938-.969,8.97,8.97,0,0,1,2.707-.37,6.228,6.228,0,0,1,4.118,1.069,4.566,4.566,0,0,1,1.211,3.577V-.285a.25.25,0,0,1-.281.285Zm-3.8-1.739a4.119,4.119,0,0,0,2.548-.7,2.344,2.344,0,0,0,.916-1.981v-1.51A.151.151,0,0,0,144.1-6.1h-2.749a4.9,4.9,0,0,0-2.605.527,1.88,1.88,0,0,0-.8,1.7,1.848,1.848,0,0,0,.744,1.6A3.558,3.558,0,0,0,140.8-1.739ZM155.1.143a3.686,3.686,0,0,1-2.836-.926,4.307,4.307,0,0,1-.841-2.95v-7.809a.151.151,0,0,0-.171-.171h-1.14a.252.252,0,0,1-.285-.285v-1.368a.252.252,0,0,1,.285-.285h1.14a.151.151,0,0,0,.171-.171V-17.67a.252.252,0,0,1,.285-.285h1.824a.252.252,0,0,1,.285.285v3.847a.151.151,0,0,0,.171.171h2.166a.252.252,0,0,1,.285.285V-12a.252.252,0,0,1-.285.285h-2.166a.151.151,0,0,0-.171.171v7.724a1.791,1.791,0,0,0,.413,1.382,2.01,2.01,0,0,0,1.325.356h.6a.252.252,0,0,1,.285.285V-.143a.252.252,0,0,1-.285.285ZM160.882,0a.252.252,0,0,1-.285-.285V-11.543a.151.151,0,0,0-.171-.171h-1.168a.252.252,0,0,1-.285-.285v-1.368a.252.252,0,0,1,.285-.285h1.168a.151.151,0,0,0,.171-.171v-1.169a4.647,4.647,0,0,1,1.012-3.406,4.375,4.375,0,0,1,3.149-.983h1.055a.252.252,0,0,1,.285.285v1.653a.252.252,0,0,1-.285.285h-.741a5.223,5.223,0,0,0-1.055.086,1.226,1.226,0,0,0-.627.314,1.226,1.226,0,0,0-.313.627,5.044,5.044,0,0,0-.086,1.026v1.283a.151.151,0,0,0,.171.171h2.65a.252.252,0,0,1,.285.285V-12a.252.252,0,0,1-.285.285h-2.65a.151.151,0,0,0-.171.171V-.285a.252.252,0,0,1-.285.285Zm13.281.314a5.868,5.868,0,0,1-3.406-.969,5.107,5.107,0,0,1-1.981-2.708,9.287,9.287,0,0,1-.342-1.5,14.175,14.175,0,0,1-.114-1.981,13.86,13.86,0,0,1,.114-1.967,9.35,9.35,0,0,1,.342-1.482,5.036,5.036,0,0,1,1.981-2.722,5.932,5.932,0,0,1,3.406-.955,5.932,5.932,0,0,1,3.406.955,5.036,5.036,0,0,1,1.981,2.722,9.351,9.351,0,0,1,.342,1.482,13.86,13.86,0,0,1,.114,1.967,14.175,14.175,0,0,1-.114,1.981,9.289,9.289,0,0,1-.342,1.5,5.107,5.107,0,0,1-1.981,2.708A5.868,5.868,0,0,1,174.163.314Zm0-2.223a3.306,3.306,0,0,0,1.938-.556,3.026,3.026,0,0,0,1.14-1.582,6.869,6.869,0,0,0,.242-1.183,14.535,14.535,0,0,0,.071-1.61,14.134,14.134,0,0,0-.071-1.6,6.9,6.9,0,0,0-.242-1.169,3.026,3.026,0,0,0-1.14-1.582,3.306,3.306,0,0,0-1.938-.556,3.306,3.306,0,0,0-1.938.556,3.026,3.026,0,0,0-1.14,1.582,6.9,6.9,0,0,0-.242,1.169,14.135,14.135,0,0,0-.071,1.6,14.535,14.535,0,0,0,.071,1.61,6.869,6.869,0,0,0,.242,1.183,3.026,3.026,0,0,0,1.14,1.582A3.306,3.306,0,0,0,174.163-1.91ZM184.138,0a.252.252,0,0,1-.285-.285V-13.366a.252.252,0,0,1,.285-.285h1.824a.252.252,0,0,1,.285.285v1.4h.029a3.64,3.64,0,0,1,1.354-1.439,4.237,4.237,0,0,1,2.266-.556,4.413,4.413,0,0,1,1.553.271,3.622,3.622,0,0,1,1.24.755.282.282,0,0,1,.057.4l-1.055,1.4a.252.252,0,0,1-.4.057,4.389,4.389,0,0,0-1-.484,3.5,3.5,0,0,0-1.111-.171,2.448,2.448,0,0,0-2.252,1.1,5.41,5.41,0,0,0-.684,2.893V-.285a.252.252,0,0,1-.285.285ZM212.98,0a.252.252,0,0,1-.285-.285v-7.98a3.914,3.914,0,0,0-.755-2.565,2.807,2.807,0,0,0-2.294-.912,3.024,3.024,0,0,0-2.252.9,3.323,3.323,0,0,0-.883,2.437V-.285a.252.252,0,0,1-.285.285H204.4a.252.252,0,0,1-.285-.285v-7.98a3.914,3.914,0,0,0-.755-2.565,2.807,2.807,0,0,0-2.294-.912,3.012,3.012,0,0,0-2.266.9,3.355,3.355,0,0,0-.869,2.437V-.285a.252.252,0,0,1-.285.285h-1.824a.252.252,0,0,1-.285-.285V-13.366a.252.252,0,0,1,.285-.285h1.824a.252.252,0,0,1,.285.285v1.254h.029a3.733,3.733,0,0,1,1.453-1.325,4.891,4.891,0,0,1,2.366-.527,4.93,4.93,0,0,1,2.408.556,3.96,3.96,0,0,1,1.582,1.582h.029A5.13,5.13,0,0,1,207.58-13.4a5.548,5.548,0,0,1,2.636-.57,4.6,4.6,0,0,1,3.634,1.4,5.418,5.418,0,0,1,1.24,3.734v8.55A.252.252,0,0,1,214.8,0Z" transform="translate(1212 90)" fill="#009f88"/><path d="M12.369-4.161a1.652,1.652,0,0,0,.7,1.454,3.218,3.218,0,0,0,1.867.485h.313a1.293,1.293,0,0,1,.855.242,1.015,1.015,0,0,1,.285.812q0,.741-.271.955A1.408,1.408,0,0,1,15.247,0h-.6a3.624,3.624,0,0,1-1.74-.413,2.293,2.293,0,0,1-1.088-1.24,2.664,2.664,0,0,1-1.353,1.3A5.918,5.918,0,0,1,8.236,0H1.909a.252.252,0,0,1-.285-.285V-1.938a.252.252,0,0,1,.285-.285H7.353a5.18,5.18,0,0,0,1.282-.128,1.423,1.423,0,0,0,.741-.428,1.607,1.607,0,0,0,.342-.784A7.253,7.253,0,0,0,9.8-4.788v-2.28q0-2.878-3.249-2.878H3.249a.252.252,0,0,1-.285-.285v-1.653a.252.252,0,0,1,.285-.285h4.19a5.149,5.149,0,0,1,3.548,1.226A4.889,4.889,0,0,1,12.369-7.1Zm9.519-5.785a3.985,3.985,0,0,0-1.781.4,4.826,4.826,0,0,0-1.439,1.083.261.261,0,0,1-.4.029L17.014-9.462q-.256-.2-.085-.4a6.6,6.6,0,0,1,1.981-1.653A5.893,5.893,0,0,1,21.8-12.17a7.364,7.364,0,0,1,3.223.613,5.3,5.3,0,0,1,1.992,1.61,6.017,6.017,0,0,1,1.023,2.308,12.578,12.578,0,0,1,.288,2.707,9.583,9.583,0,0,1-.245,2.365,3.616,3.616,0,0,1-.749,1.511,2.771,2.771,0,0,1-1.294.812A6.309,6.309,0,0,1,24.2,0H15.219a1.008,1.008,0,0,1-1.14-1.14q0-.712.271-.9a1.576,1.576,0,0,1,.869-.185h8.094A5.18,5.18,0,0,0,24.6-2.351a1.379,1.379,0,0,0,.741-.442,1.745,1.745,0,0,0,.342-.841,8.284,8.284,0,0,0,.085-1.3,9.689,9.689,0,0,0-.2-2.038,4.648,4.648,0,0,0-.641-1.6A2.886,2.886,0,0,0,23.74-9.59,4.265,4.265,0,0,0,21.888-9.946ZM33.858,5.672a.252.252,0,0,1-.285-.285V3.734a.252.252,0,0,1,.285-.285h3.42a4.112,4.112,0,0,0,1.055-.128,2.138,2.138,0,0,0,.841-.428,1.955,1.955,0,0,0,.556-.826,3.78,3.78,0,0,0,.2-1.325V0H36.879a7.978,7.978,0,0,1-2.266-.3,4.222,4.222,0,0,1-1.724-.969A4.221,4.221,0,0,1,31.806-3.05a8.737,8.737,0,0,1-.37-2.736,8.269,8.269,0,0,1,.442-2.836,5.588,5.588,0,0,1,1.2-2,4.816,4.816,0,0,1,1.753-1.168,5.809,5.809,0,0,1,2.109-.385A5.265,5.265,0,0,1,40.9-10.7q1.425,1.468,1.425,4.745v3.734h1.967a1.293,1.293,0,0,1,.855.242,1.015,1.015,0,0,1,.285.812q0,.741-.271.955A1.408,1.408,0,0,1,44.289,0H42.322V.684a6.456,6.456,0,0,1-.356,2.28,4,4,0,0,1-1,1.539,3.978,3.978,0,0,1-1.553.884,6.763,6.763,0,0,1-2.023.285ZM36.936-9.946a2.671,2.671,0,0,0-2.266,1.14,4.973,4.973,0,0,0-.841,3.021,3.787,3.787,0,0,0,.812,2.793,3.38,3.38,0,0,0,2.408.77h2.879V-5.957a5.281,5.281,0,0,0-.7-2.936A2.546,2.546,0,0,0,36.936-9.946ZM52.924.2a6.713,6.713,0,0,1-2.366-.385A4.212,4.212,0,0,1,48.82-1.4,2.587,2.587,0,0,1,47.281-.242,7,7,0,0,1,45.543,0H44.317a1.008,1.008,0,0,1-1.14-1.14q0-.712.271-.9a1.576,1.576,0,0,1,.869-.185h1.425a1.645,1.645,0,0,0,.627-.128,1.5,1.5,0,0,0,.57-.428,2.25,2.25,0,0,0,.413-.8,4.191,4.191,0,0,0,.157-1.24q-.029-.285-.028-.556v-.584q0-3.277,1.453-4.745a5.362,5.362,0,0,1,3.99-1.468,5.362,5.362,0,0,1,3.99,1.468q1.453,1.468,1.453,4.745,0,.314-.014.627t-.043.6A2.791,2.791,0,0,0,58.9-2.75a1.7,1.7,0,0,0,1.183.527H60.9a1.293,1.293,0,0,1,.855.242,1.015,1.015,0,0,1,.285.812q0,.741-.271.955A1.408,1.408,0,0,1,60.9,0h-.627q-.4,0-.855-.043a4.19,4.19,0,0,1-.9-.185,3.292,3.292,0,0,1-.841-.413A2.4,2.4,0,0,1,57-1.368a4.1,4.1,0,0,1-1.739,1.2A6.855,6.855,0,0,1,52.924.2Zm0-10.146A2.62,2.62,0,0,0,50.6-8.892a5.119,5.119,0,0,0-.727,2.936A4.915,4.915,0,0,0,50.6-2.964a2.752,2.752,0,0,0,2.323.941,2.752,2.752,0,0,0,2.323-.941,4.915,4.915,0,0,0,.727-2.993,5.119,5.119,0,0,0-.727-2.936A2.62,2.62,0,0,0,52.924-9.946ZM60.876,0a1.5,1.5,0,0,1-.855-.2.92.92,0,0,1-.285-.8,1.327,1.327,0,0,1,.271-.969,1.235,1.235,0,0,1,.869-.256h1.8a1.423,1.423,0,0,0,1.04-.328,1.661,1.661,0,0,0,.328-1.183V-19.1a.252.252,0,0,1,.285-.285h1.824a.252.252,0,0,1,.285.285v15.5a4.031,4.031,0,0,1-.77,2.722A3.279,3.279,0,0,1,63.1,0ZM72.817-.285A.252.252,0,0,1,72.532,0H70.708a.252.252,0,0,1-.285-.285V-19.1a.252.252,0,0,1,.285-.285h1.824a.252.252,0,0,1,.285.285ZM91.542.2a6.549,6.549,0,0,1-2.608-.485A4.179,4.179,0,0,1,87.1-1.824a1.761,1.761,0,0,1-.67.656q-.385.2-.741.428a2.158,2.158,0,0,0-.613.6,2.088,2.088,0,0,0-.257,1.169V5.672H82.422V.428a3.662,3.662,0,0,1,.257-1.468,3,3,0,0,1,.656-.969,4.027,4.027,0,0,1,.869-.641q.47-.257.883-.513a3.347,3.347,0,0,0,.713-.584,1.48,1.48,0,0,0,.356-.869q-.028-.314-.043-.641t-.014-.7q0-3.277,1.453-4.745a5.362,5.362,0,0,1,3.99-1.468,5.362,5.362,0,0,1,3.99,1.468q1.454,1.468,1.453,4.745,0,.314-.014.627t-.043.6a2.79,2.79,0,0,0,.584,1.981,1.7,1.7,0,0,0,1.183.527h.8a1.293,1.293,0,0,1,.855.242,1.015,1.015,0,0,1,.285.812q0,.741-.271.955A1.408,1.408,0,0,1,99.493,0h-.6q-.4,0-.855-.043a4.19,4.19,0,0,1-.9-.185A3.292,3.292,0,0,1,96.3-.641a2.4,2.4,0,0,1-.684-.727,4.1,4.1,0,0,1-1.738,1.2A6.855,6.855,0,0,1,91.542.2Zm0-10.146a2.62,2.62,0,0,0-2.323,1.054,5.119,5.119,0,0,0-.727,2.936,4.915,4.915,0,0,0,.727,2.993,2.752,2.752,0,0,0,2.323.941,2.752,2.752,0,0,0,2.323-.941,4.915,4.915,0,0,0,.727-2.993,5.119,5.119,0,0,0-.727-2.936A2.62,2.62,0,0,0,91.542-9.946ZM112.6-2.223a.252.252,0,0,1,.285.285V-.285A.252.252,0,0,1,112.6,0H99.465a1.008,1.008,0,0,1-1.14-1.14q0-.712.271-.9a1.576,1.576,0,0,1,.869-.185h3.249a5.6,5.6,0,0,1-1.132-1.653,5.637,5.637,0,0,1-.464-2.394,7.99,7.99,0,0,1,.259-1.924,5.1,5.1,0,0,1,.951-1.924,5.313,5.313,0,0,1,1.878-1.468,6.882,6.882,0,0,1,3.039-.584,6.431,6.431,0,0,1,2.907.613,5.1,5.1,0,0,1,1.966,1.7.269.269,0,0,1-.086.4l-1.254,1.026a.261.261,0,0,1-.4-.029,4.081,4.081,0,0,0-3.22-1.482,3.2,3.2,0,0,0-2.622,1.04,3.971,3.971,0,0,0-.855,2.608,4.264,4.264,0,0,0,.342,1.8,4.774,4.774,0,0,0,.784,1.226,3.394,3.394,0,0,0,.9.727,5.089,5.089,0,0,0,.713.328ZM126.54-4.161a1.652,1.652,0,0,0,.7,1.454,3.218,3.218,0,0,0,1.867.485h.314a1.293,1.293,0,0,1,.855.242,1.015,1.015,0,0,1,.285.812q0,.741-.271.955a1.408,1.408,0,0,1-.869.214h-.6a3.624,3.624,0,0,1-1.74-.413,2.293,2.293,0,0,1-1.088-1.24,2.664,2.664,0,0,1-1.353,1.3A5.918,5.918,0,0,1,122.407,0H116.08a.252.252,0,0,1-.285-.285V-1.938a.252.252,0,0,1,.285-.285h5.444a5.18,5.18,0,0,0,1.282-.128,1.423,1.423,0,0,0,.741-.428,1.607,1.607,0,0,0,.342-.784,7.253,7.253,0,0,0,.086-1.226v-2.28q0-2.878-3.249-2.878H117.42a.252.252,0,0,1-.285-.285v-1.653a.252.252,0,0,1,.285-.285h4.189a5.149,5.149,0,0,1,3.548,1.226A4.889,4.889,0,0,1,126.54-7.1ZM129.39,0a1.5,1.5,0,0,1-.855-.2.92.92,0,0,1-.285-.8,1.327,1.327,0,0,1,.271-.969,1.235,1.235,0,0,1,.869-.256h1.8a1.423,1.423,0,0,0,1.04-.328,1.661,1.661,0,0,0,.328-1.183V-19.1a.252.252,0,0,1,.285-.285h1.824a.252.252,0,0,1,.285.285v15.5a4.031,4.031,0,0,1-.77,2.722A3.279,3.279,0,0,1,131.613,0Zm11.942-.285a.252.252,0,0,1-.285.285h-1.824a.252.252,0,0,1-.285-.285V-19.1a.252.252,0,0,1,.285-.285h1.824a.252.252,0,0,1,.285.285Z" transform="translate(1211 53)" fill="#009f88"/></g></svg>