<svg xmlns="http://www.w3.org/2000/svg" width="308.961" height="224.097"><g data-name="Printer Success"><path data-name="Rectangle 1291" fill="#e0e0e0" d="M188.864 26.794l3.638-.018.09 18.179-3.637.018z"/><path data-name="Rectangle 1292" fill="#ebebeb" d="M157.358 26.871l9.416-.047.05 10.037-9.416.047z"/><path data-name="Rectangle 1293" fill="#f5f5f5" d="M166.827 25.928l9.416-.094.1 10.036-9.416.094z"/><path data-name="Path 5130" d="M157.372 29.648c6.256.056 12.512 0 18.791-.083a.1.1 0 000-.2q-9.384-.056-18.791.111a.088.088 0 000 .171z" fill="#e0e0e0"/><path data-name="Rectangle 1294" fill="#ebebeb" d="M151.487 36.782l17.109-.086.04 8.18-17.108.085z"/><path data-name="Rectangle 1295" fill="#f5f5f5" d="M168.517 36.693l17.109-.086.04 8.18-17.108.085z"/><path data-name="Path 5131" d="M151.496 39.059c11.367.134 22.772 0 34.139-.162a.1.1 0 000-.2c-11.367-.065-22.776-.06-34.144.19a.088.088 0 000 .171z" fill="#e0e0e0"/><path data-name="Rectangle 1296" fill="#e0e0e0" d="M145.092 44.967h66.295v2.929h-66.295z"/><path data-name="Rectangle 1297" fill="#e0e0e0" d="M155.945 46.376h2.692v10h-2.692z"/><path data-name="Rectangle 1298" fill="#e0e0e0" d="M196.122 46.381h2.692v10h-2.692z"/><path data-name="Rectangle 1299" fill="#ebebeb" d="M192.41 20.019l3.638-.018.125 25-3.638.019z"/><path data-name="Rectangle 1300" fill="#f5f5f5" d="M196.077 24.685l5.649-.028.101 20.26-5.649.028z"/><path data-name="Path 5132" d="M201.674 28.568a21.149 21.149 0 01-2.827.1 19.759 19.759 0 01-2.822-.1 21.108 21.108 0 012.822-.1 19.8 19.8 0 012.827.1z" fill="#e0e0e0"/><path data-name="Path 5133" d="M201.674 27.715a20.256 20.256 0 01-2.827.1 21.107 21.107 0 01-2.822-.1 19.4 19.4 0 012.822-.1 20.254 20.254 0 012.827.1z" fill="#e0e0e0"/><path data-name="Path 5134" d="M201.674 41.89a41.1 41.1 0 01-5.654 0 39.242 39.242 0 015.654 0z" fill="#e0e0e0"/><path data-name="Path 5135" d="M201.674 41.023a41.1 41.1 0 01-5.654 0 41.106 41.106 0 015.654 0z" fill="#e0e0e0"/><path data-name="Path 5136" d="M198.958 39.165c-.056 0-.1-2.044-.1-4.565s.042-4.565.1-4.565.1 2.044.1 4.565-.049 4.565-.1 4.565z" fill="#e0e0e0"/><path data-name="Rectangle 1301" fill="#ebebeb" d="M201.752 29.638h6.149V44.93h-6.149z"/><path data-name="Path 5137" d="M195.223 24.281a1.047 1.047 0 11-.305-.744 1.047 1.047 0 01.305.744z" fill="#e0e0e0"/><path data-name="Rectangle 1302" fill="#e0e0e0" d="M193.851 27.163h.644v14.875h-.644z"/><path data-name="Path 5138" d="M250.118 207.998v16.1h49.5v-16.1z" fill="#f5f5f5"/><path data-name="Path 5139" d="M248.042 203.498v4.5h53.305v-4.5h-53.305z" fill="#e0e0e0"/><path data-name="Path 5140" d="M274.692 224.096h24.922v-16.1h1.733v-4.5h-27.693v4.087z" fill="#e0e0e0"/><path data-name="Rectangle 1303" fill="#e0e0e0" d="M257.041 210.593h10.037v2.424h-10.037z"/><path data-name="Rectangle 1304" fill="#fff" d="M255.748 216.047h12.892v5.116h-12.892z"/><path data-name="Path 5141" d="M257.732 187.427v16.094h49.5v-16.094z" fill="#f5f5f5"/><path data-name="Path 5142" d="M255.656 182.923v4.5h53.31v-4.5h-53.31z" fill="#e0e0e0"/><path data-name="Path 5143" d="M282.308 203.521h24.922v-16.094h1.729v-4.5h-27.691v4.087z" fill="#e0e0e0"/><path data-name="Rectangle 1305" fill="#e0e0e0" d="M264.655 190.022h10.037v2.424h-10.037z"/><path data-name="Rectangle 1306" fill="#fff" d="M263.362 195.472h12.892v5.116h-12.892z"/><path data-name="Path 5144" d="M70.475 33.605a.417.417 0 01-.111-.032l-.315-.125-1.2-.5-4.4-1.881-14.472-6.321-.5-.222h.1l-14.182 6.057-4.291 1.8-1.168.463a3.739 3.739 0 01-.417.153 2.489 2.489 0 01.394-.2l1.154-.516 4.254-1.854 14.152-6.146h.107l.5.218 14.426 6.395 4.365 1.96 1.2.542.306.148z" fill="#e0e0e0"/><path data-name="Rectangle 1307" fill="#e0e0e0" d="M.097 31.529h92.954v69.599H.097z"/><path data-name="Rectangle 1308" fill="#fafafa" d="M3.345 34.763H90.15v63.505H3.345z"/><path data-name="Path 5145" d="M22.517 62.507s.093 10.658.635 13.9l13.369-.635s-1.172-10.478-.723-13.281z" fill="#e0e0e0"/><path data-name="Path 5146" d="M29.101 64.014h.185a3.211 3.211 0 01.556.028 2.933 2.933 0 01.853.255 2.781 2.781 0 01.927.732 3.193 3.193 0 01.644 1.284 3.151 3.151 0 01-.144 1.654 4.676 4.676 0 01-.375.825c-.148.269-.3.542-.426.834a7.257 7.257 0 00-.542 1.9v.023h-1.362l-1.39.023h-.051v-.023a3.976 3.976 0 00-.639-1.826c-.162-.278-.338-.533-.505-.792a7.006 7.006 0 01-.463-.765 2.567 2.567 0 01-.209-1.631 3.517 3.517 0 01.514-1.33 2.535 2.535 0 01.871-.783 3.286 3.286 0 01.82-.32 3.554 3.554 0 01.547-.088 4.1 4.1 0 00-.551.12 3.188 3.188 0 00-.8.329 2.484 2.484 0 00-.843.774 3.383 3.383 0 00-.491 1.307 2.521 2.521 0 00.209 1.576 8.341 8.341 0 00.463.755c.167.259.343.514.505.792a4.018 4.018 0 01.663 1.854l-.051-.051 1.39-.023h1.316l-.046.042a7.16 7.16 0 01.551-1.923 9.012 9.012 0 01.436-.843 4.838 4.838 0 00.371-.806 3.035 3.035 0 00.148-1.608 3.146 3.146 0 00-.616-1.26 2.72 2.72 0 00-.894-.728 3.045 3.045 0 00-.834-.264 4.339 4.339 0 00-.551-.046h-.195z" fill="#fff"/><path data-name="Path 5147" d="M29.787 71.441a.286.286 0 000-.042v-.125c0-.056-.042-.269-.07-.463-.06-.412-.153-1.015-.213-1.761a3.666 3.666 0 00-.032-.589 4.206 4.206 0 010-.64 1.793 1.793 0 01.153-.667 1.038 1.038 0 01.51-.514.7.7 0 01.728.139.542.542 0 01.158.366.681.681 0 01-.139.385.871.871 0 01-.32.26 1.757 1.757 0 01-.4.134 5.053 5.053 0 01-.843.1 5.151 5.151 0 01-.848-.042 1.682 1.682 0 01-.4-.116 1.047 1.047 0 01-.338-.241.774.774 0 01-.195-.357.621.621 0 01.046-.4.552.552 0 01.283-.269.464.464 0 01.38 0 .681.681 0 01.283.241 1.033 1.033 0 01.144.329 3.939 3.939 0 01.065.686c.023.463.046.848.065 1.223.037.746.07 1.353.088 1.775a2.454 2.454 0 00.023.463v.167a.286.286 0 000-.042v-.125a3.071 3.071 0 00-.028-.463c-.023-.422-.06-1.029-.1-1.775l-.07-1.223a3.809 3.809 0 00-.07-.677 1.02 1.02 0 00-.134-.32.728.728 0 00-.273-.227.431.431 0 00-.348 0 .487.487 0 00-.26.25.542.542 0 00-.042.371.751.751 0 00.181.338 1.2 1.2 0 00.718.343 5.036 5.036 0 00.839.042 4.943 4.943 0 00.839-.1 1.853 1.853 0 00.389-.13.834.834 0 00.306-.246.616.616 0 00.13-.361.491.491 0 00-.144-.338.649.649 0 00-.686-.13.959.959 0 00-.491.491 1.636 1.636 0 00-.148.653v.639a3.416 3.416 0 00.032.584c.056.746.139 1.349.195 1.766l.065.463v.125z" fill="#fff"/><path data-name="Path 5148" d="M28.031 71.511s0 .167.032.463.037.709.06 1.159v-.028l.9 1.038h-.046l1.038-.06-.042.023.519-.635c.088-.107.171-.213.26-.315v.042c0-.612-.028-1.186-.042-1.715l.06.056h-2.507a1.1 1.1 0 01-.209 0 .865.865 0 01.185 0l.547-.032 1.979-.074h.056v.056c0 .528.032 1.1.051 1.715v.023l-.26.315-.519.63v.023h-.028l-1.043.051h-.028v-.023c-.32-.385-.621-.737-.88-1.052v-1.189a2.822 2.822 0 01-.083-.468z" fill="#fff"/><path data-name="Path 5149" d="M30.718 73.017a.463.463 0 01-.1-.042l-.269-.107a2.78 2.78 0 00-.927-.144 2.674 2.674 0 00-.927.2l-.264.12-.093.046.088-.06a1.812 1.812 0 01.26-.134 2.475 2.475 0 011.891-.06 2.637 2.637 0 01.264.12.522.522 0 01.074.056z" fill="#fff"/><path data-name="Path 5150" d="M30.718 72.6a.273.273 0 01-.1-.042l-.269-.107a2.687 2.687 0 00-.927-.139 2.582 2.582 0 00-.927.2c-.111.046-.2.088-.264.12l-.093.051a.521.521 0 01.088-.065 1.812 1.812 0 01.26-.134 2.447 2.447 0 01.927-.213 2.507 2.507 0 01.955.153 2.636 2.636 0 01.264.12z" fill="#fff"/><path data-name="Path 5151" d="M30.677 72.206a.194.194 0 01-.1-.042l-.273-.107a2.628 2.628 0 00-1.854.056 2.485 2.485 0 00-.264.125c-.06.032-.093.051-.1.046l.088-.06a2.4 2.4 0 01.26-.139 2.591 2.591 0 01.927-.213 2.549 2.549 0 01.927.158 1.988 1.988 0 01.269.12z" fill="#fff"/><path data-name="Path 5152" d="M7.627 45.079s.088 10.658.63 13.9l13.374-.635s-1.177-10.478-.723-13.281z" fill="#ebebeb"/><path data-name="Path 5153" d="M18.893 49.56a39.544 39.544 0 01-4.481.4 38.276 38.276 0 01-4.49.139 39.388 39.388 0 014.476-.4 38.353 38.353 0 014.495-.139z" fill="#fff"/><path data-name="Path 5154" d="M18.897 51.813a38.292 38.292 0 01-4.481.4 37.176 37.176 0 01-4.5.139 39.543 39.543 0 014.481-.4 38.35 38.35 0 014.5-.139z" fill="#fff"/><path data-name="Path 5155" d="M16.622 54.031a12.2 12.2 0 01-2.549.287 13.007 13.007 0 01-2.563.023 12.586 12.586 0 012.549-.287 12.976 12.976 0 012.563-.023z" fill="#fff"/><path data-name="Path 5156" d="M6.992 76.446s.093 10.658.635 13.9l13.369-.635s-1.172-10.478-.723-13.277z" fill="#ebebeb"/><path data-name="Path 5157" d="M18.258 80.923a39.519 39.519 0 01-4.476.4 38.357 38.357 0 01-4.5.139 39.519 39.519 0 014.477-.4 38.353 38.353 0 014.499-.139z" fill="#fff"/><path data-name="Path 5158" d="M18.263 83.18a38.839 38.839 0 01-4.476.4 39.613 39.613 0 01-4.5.139 37.5 37.5 0 014.476-.4 39.613 39.613 0 014.5-.139z" fill="#fff"/><path data-name="Path 5159" d="M15.992 85.399a12.863 12.863 0 01-2.549.283 13.048 13.048 0 01-2.567.023 12.711 12.711 0 012.549-.287 12.419 12.419 0 012.567-.019z" fill="#fff"/><path data-name="Path 5160" d="M43.532 47.905l1.325 30.747 38.384.463-1.719-30.8z" fill="#ebebeb"/><path data-name="Rectangle 1309" fill="#f5f5f5" d="M43.087 47.687h38.129v28.791H43.087z"/><path data-name="Path 5161" d="M81.216 76.478v-2.071c0-1.349 0-3.318-.028-5.825 0-5.023-.032-12.206-.056-20.895l.107.107-38.124.023.134-.13v28.791l-.12-.12 27.5.06 7.822.032h.051l-7.794.028-27.582.06h-.116V47.497h38.37v.111l-.056 20.96c0 2.5-.023 4.458-.028 5.8v1.515a5.807 5.807 0 00-.08.595z" fill="#e0e0e0"/><path data-name="Rectangle 1310" fill="#f5f5f5" d="M47.689 53.786h15.455V73.24H47.689z"/><path data-name="Path 5162" d="M63.143 73.24v-1.441c0-.927 0-2.289-.032-3.99 0-3.425-.037-8.272-.06-14.023l.116.116H47.711l.13-.125V73.24l-.107-.111 11.191.056 3.142.028h.042l-3.114.028-11.261.056h-.107v-19.5l.13-.134h15.575v.116c0 5.783-.046 10.658-.06 14.1 0 1.691-.023 3.031-.032 3.967v1.3c0 .066-.092.094-.097.094z" fill="#e0e0e0"/><path data-name="Rectangle 1311" fill="#f5f5f5" d="M48.282 49.333h29.621v2.804H48.282z"/><path data-name="Path 5163" d="M77.903 52.136a1.7 1.7 0 010-.19v-.547c0-.463 0-1.177-.028-2.067l.051.056c-5 .046-16.381.079-29.621.079l.13-.134v2.779l-.13-.13 20.974.1 6.3.037h2.336a.729.729 0 01-.139 0h-2.118l-6.274.037-21.1.107h-.13v-2.921c.06-.056-.13.134.134-.13 13.239 0 24.625.032 29.621.079h.032v.051c0 .927-.023 1.6-.028 2.1v.533a1.1 1.1 0 01-.014.162z" fill="#e0e0e0"/><path data-name="Rectangle 1312" fill="#f5f5f5" d="M65.039 53.786h12.864V65.51H65.039z"/><path data-name="Path 5164" d="M77.902 65.524a1.6 1.6 0 010-.227v-.635c0-.575 0-1.39-.032-2.391 0-2.062-.032-4.977-.056-8.471l.111.111H65.061l.13-.13v11.724l-.116-.116 9.268.06 2.632.028h.955a1.28 1.28 0 01-.222 0l-.69.046-2.609.028-9.352.06h-.121V53.8c-.12.116.158-.162.13-.13h12.98v.111l-.056 8.541c0 1-.023 1.8-.032 2.363v.616a1.034 1.034 0 01-.056.222z" fill="#e0e0e0"/><path data-name="Rectangle 1313" fill="#f5f5f5" d="M65.039 67.345h12.864v5.89H65.039z"/><path data-name="Path 5165" d="M77.903 73.24v-.431c0-.273 0-.686-.023-1.182 0-1.038-.032-2.493-.056-4.282l.1.1-12.864.037.13-.13v5.881l-.125-.125 9.2.06 2.683.032h.723a1.1 1.1 0 01.26 0 1.348 1.348 0 01-.232 0h-.7l-2.655.037-9.268.056h-.125V67.38c-.032.028.246-.25.13-.134l12.864.037h.1v.093c-.023 1.812-.042 3.286-.051 4.342 0 .463 0 .871-.028 1.159a3.033 3.033 0 01-.06.366z" fill="#e0e0e0"/><path data-name="Path 5166" d="M62.764 53.818c-4.787 6.608-10.306 12.809-15.075 19.421" fill="#fff"/><path data-name="Path 5167" d="M47.689 73.24a1.727 1.727 0 01.125-.218l.4-.593c.357-.514.885-1.242 1.548-2.136 1.33-1.784 3.244-4.2 5.357-6.844s4.05-5.042 5.417-6.8l1.613-2.081.463-.565c.107-.125.162-.19.171-.185a.927.927 0 01-.125.218l-.4.593c-.357.51-.885 1.242-1.548 2.132-1.33 1.789-3.244 4.2-5.362 6.849s-4.046 5.042-5.413 6.8l-1.65 2.067-.463.561c-.068.141-.124.207-.133.202z" fill="#e0e0e0"/><path data-name="Line 70" fill="#fff" d="M47.689 53.786L63.144 73.24"/><path data-name="Path 5168" d="M63.143 73.239c-.056.042-3.559-4.277-7.827-9.648s-7.683-9.759-7.628-9.806 3.564 4.273 7.832 9.643 7.683 9.765 7.623 9.811z" fill="#e0e0e0"/><path data-name="Path 5169" d="M44.859 53.828a2.419 2.419 0 11-2.419-2.419 2.419 2.419 0 012.419 2.419z" fill="#e0e0e0"/><path data-name="Path 5170" d="M84.404 47.956a2.419 2.419 0 11-2.414-2.419 2.419 2.419 0 012.414 2.419z" fill="#e0e0e0"/><path data-name="Rectangle 1314" fill="#ebebeb" d="M54.547 174.341h35.548v2.757H54.547z"/><path data-name="Rectangle 1315" fill="#e0e0e0" d="M80.336 174.341h9.759v2.757h-9.759z"/><path data-name="Path 5171" d="M50.038 177.098v12.419h-1.951v1.349h1.951v8.313h36.4v-7.567h-2.7v-1.645h2.7v-2.475h1.2v-1.121h-1.431v-9.268z" fill="#f5f5f5"/><path data-name="Path 5172" d="M76.767 177.128v21.91h9.667v-7.563h-2.7v-1.511h2.7v-2.475h1.2v-1.261h-1.427v-9.13z" fill="#e0e0e0"/><path data-name="Path 5173" d="M77.481 190.685c0 .079-6.59.139-14.708.139s-14.713-.06-14.713-.139 6.585-.134 14.713-.134 14.708.06 14.708.134z" fill="#e0e0e0"/><path data-name="Path 5174" d="M77.481 189.424c0 .074-6.59.139-14.708.139s-14.713-.065-14.713-.139 6.585-.139 14.713-.139 14.708.065 14.708.139z" fill="#e0e0e0"/><path data-name="Path 5175" d="M79.335 186.009c0 .079-6.585.139-14.708.139s-14.708-.06-14.708-.139 6.585-.134 14.708-.134 14.708.079 14.708.134z" fill="#e0e0e0"/><path data-name="Path 5176" d="M79.53 195.277c0 .074-6.59.139-14.708.139s-14.713-.065-14.713-.139 6.585-.139 14.713-.139 14.708.07 14.708.139z" fill="#e0e0e0"/><path data-name="Path 5177" d="M54.167 201.807v12.424h-1.951v1.349h1.951v8.314h36.4v-7.567h-2.7v-1.645h2.7v-2.475h1.2v-1.121h-1.431v-9.269z" fill="#f5f5f5"/><path data-name="Path 5178" d="M80.896 201.843v21.91h9.667v-7.567h-2.7v-1.506l2.7.051v-2.475h1.219l-.023-1.279-1.423-.037v-9.129z" fill="#e0e0e0"/><path data-name="Path 5179" d="M81.587 215.398c0 .079-6.59.139-14.708.139s-14.713-.06-14.713-.139 6.585-.139 14.713-.139 14.708.065 14.708.139z" fill="#e0e0e0"/><path data-name="Path 5180" d="M81.587 214.138c0 .074-6.59.139-14.708.139s-14.713-.065-14.713-.139 6.585-.139 14.713-.139 14.708.06 14.708.139z" fill="#e0e0e0"/><path data-name="Path 5181" d="M83.473 210.741c0 .079-6.585.139-14.708.139s-14.708-.06-14.708-.139 6.585-.139 14.708-.139 14.708.065 14.708.139z" fill="#e0e0e0"/><path data-name="Path 5182" d="M83.659 219.995c0 .074-6.59.139-14.708.139s-14.713-.065-14.713-.139 6.585-.139 14.713-.139 14.708.06 14.708.139z" fill="#e0e0e0"/><path data-name="Path 5183" d="M53.639 152.255v12.44h-1.951v1.349h1.951v8.313h36.4v-7.581h-2.7v-1.645h2.7v-2.475h1.2v-1.121h-1.431v-9.268z" fill="#f5f5f5"/><path data-name="Path 5184" d="M80.368 152.289v21.91h9.67v-7.567h-2.7v-1.506l2.7.051v-2.475h1.219l-.023-1.279-1.423-.037v-9.127z" fill="#e0e0e0"/><path data-name="Path 5185" d="M81.059 165.846c0 .079-6.59.139-14.708.139s-14.713-.06-14.713-.139 6.585-.139 14.713-.139 14.708.065 14.708.139z" fill="#e0e0e0"/><path data-name="Path 5186" d="M81.059 164.586c0 .074-6.59.139-14.708.139s-14.713-.065-14.713-.139 6.585-.139 14.713-.139 14.708.065 14.708.139z" fill="#e0e0e0"/><path data-name="Path 5187" d="M82.945 161.189c0 .079-6.585.139-14.708.139s-14.708-.06-14.708-.139 6.585-.139 14.708-.139 14.708.06 14.708.139z" fill="#e0e0e0"/><path data-name="Path 5188" d="M83.13 170.443c0 .074-6.59.139-14.708.139s-14.713-.065-14.713-.139 6.585-.139 14.713-.139 14.708.06 14.708.139z" fill="#e0e0e0"/><path data-name="Rectangle 1316" fill="#ebebeb" d="M52.165 199.049h35.548v2.757H52.165z"/><path data-name="Rectangle 1317" fill="#e0e0e0" d="M77.954 199.049h9.759v2.757h-9.759z"/><path data-name="Rectangle 1318" fill="#fafafa" d="M239.798 49.824h53.82v48.152h-53.82z"/><path data-name="Path 5189" d="M293.618 97.962v-3.471c0-2.261 0-5.561-.028-9.778 0-8.411-.037-20.432-.065-34.9l.12.125h-53.814l.144-.144v48.152l-.125-.125 38.923.065 10.946.079h.037l-10.95.032-39.009.065h-.124V49.666h54.089v.12c-.028 14.5-.051 26.548-.065 34.982 0 4.2 0 7.493-.032 9.731v2.558a7 7 0 01-.047.905z" fill="#e0e0e0"/><path data-name="Path 5190" d="M260.433 58.383c0 .079-2.831.144-6.325.144s-6.326-.065-6.326-.144 2.831-.148 6.326-.148 6.325.065 6.325.148z" fill="#e0e0e0"/><path data-name="Path 5191" d="M283.233 61.998c0 .079-7.785.144-17.382.144s-17.382-.065-17.382-.144 7.781-.144 17.382-.144 17.382.065 17.382.144z" fill="#e0e0e0"/><path data-name="Rectangle 1319" fill="#e0e0e0" d="M247.875 68.119h2.266v2.266h-2.266z"/><path data-name="Rectangle 1320" fill="#e0e0e0" d="M253.454 68.119h2.266v2.266h-2.266z"/><path data-name="Rectangle 1321" fill="#e0e0e0" d="M259.14 68.017h2.266v2.266h-2.266z"/><path data-name="Rectangle 1322" fill="#e0e0e0" d="M264.618 68.119h2.266v2.266h-2.266z"/><path data-name="Rectangle 1323" fill="#e0e0e0" d="M270.202 68.119h2.266v2.266h-2.266z"/><path data-name="Rectangle 1324" fill="#e0e0e0" d="M275.781 68.119h2.266v2.266h-2.266z"/><path data-name="Rectangle 1325" fill="#ebebeb" d="M281.361 68.119h2.266v2.266h-2.266z"/><path data-name="Rectangle 1326" fill="#ebebeb" d="M247.875 72.943h2.266v2.266h-2.266z"/><path data-name="Rectangle 1327" fill="#e0e0e0" d="M253.454 72.943h2.266v2.266h-2.266z"/><path data-name="Rectangle 1328" fill="#ebebeb" d="M259.038 72.943h2.266v2.266h-2.266z"/><path data-name="Rectangle 1329" fill="#e0e0e0" d="M264.618 72.943h2.266v2.266h-2.266z"/><path data-name="Rectangle 1330" fill="#e0e0e0" d="M270.202 72.943h2.266v2.266h-2.266z"/><path data-name="Rectangle 1331" fill="#e0e0e0" d="M275.883 72.836h2.266v2.266h-2.266z"/><path data-name="Rectangle 1332" fill="#e0e0e0" d="M281.361 72.943h2.266v2.266h-2.266z"/><path data-name="Rectangle 1333" fill="#e0e0e0" d="M247.875 77.762h2.266v2.266h-2.266z"/><path data-name="Rectangle 1334" fill="#e0e0e0" d="M253.556 77.66h2.266v2.266h-2.266z"/><path data-name="Rectangle 1335" fill="#e0e0e0" d="M259.038 77.762h2.266v2.266h-2.266z"/><path data-name="Rectangle 1336" fill="#ebebeb" d="M264.618 77.762h2.266v2.266h-2.266z"/><path data-name="Rectangle 1337" fill="#e0e0e0" d="M270.202 77.762h2.266v2.266h-2.266z"/><path data-name="Rectangle 1338" fill="#e0e0e0" d="M275.781 77.762h2.266v2.266h-2.266z"/><path data-name="Rectangle 1339" fill="#e0e0e0" d="M281.361 77.762h2.266v2.266h-2.266z"/><path data-name="Rectangle 1340" fill="#e0e0e0" d="M247.875 82.582h2.266v2.266h-2.266z"/><path data-name="Rectangle 1341" fill="#e0e0e0" d="M253.454 82.582h2.266v2.266h-2.266z"/><path data-name="Rectangle 1342" fill="#e0e0e0" d="M259.038 82.582h2.266v2.266h-2.266z"/><path data-name="Rectangle 1343" fill="#e0e0e0" d="M264.72 82.48h2.266v2.266h-2.266z"/><path data-name="Rectangle 1344" fill="#e0e0e0" d="M270.202 82.582h2.266v2.266h-2.266z"/><path data-name="Rectangle 1345" fill="#ebebeb" d="M275.781 82.582h2.266v2.266h-2.266z"/><path data-name="Rectangle 1346" fill="#e0e0e0" d="M281.361 82.582h2.266v2.266h-2.266z"/><path data-name="Rectangle 1347" fill="#e0e0e0" d="M247.875 87.401h2.266v2.266h-2.266z"/><path data-name="Rectangle 1348" fill="#ebebeb" d="M253.454 87.401h2.266v2.266h-2.266z"/><path data-name="Rectangle 1349" fill="#e0e0e0" d="M259.038 87.401h2.266v2.266h-2.266z"/><path data-name="Rectangle 1350" fill="#e0e0e0" d="M264.618 87.401h2.266v2.266h-2.266z"/><path data-name="Rectangle 1351" fill="#e0e0e0" d="M270.202 87.401h2.266v2.266h-2.266z"/><path data-name="Rectangle 1352" fill="#e0e0e0" d="M275.883 87.299h2.266v2.266h-2.266z"/><path data-name="Rectangle 1353" fill="#e0e0e0" d="M281.361 87.401h2.266v2.266h-2.266z"/><g><path data-name="Path 5192" d="M30.931 190.132a12.1 12.1 0 00-5.177-1.782 3.437 3.437 0 00-2.447.452.5.5 0 00-.254.446.548.548 0 00.239.306 7.416 7.416 0 007.638.583" fill="#b7d2b6"/><path data-name="Path 5193" d="M30.8 189.99a25.3 25.3 0 01-3.345-2.943 8.458 8.458 0 01-2.094-3.876 1.565 1.565 0 01.163-1.3 13.017 13.017 0 015.276 8.117" fill="#b7d2b6"/><path data-name="Path 5194" d="M30.905 190.112a12.066 12.066 0 01.061-4.389 5.952 5.952 0 012.333-3.622 5.186 5.186 0 01-.061 3.441 16.77 16.77 0 01-2.333 4.882" fill="#b7d2b6"/><path data-name="Path 5195" d="M33.521 194.793a7.666 7.666 0 00-4.153 2.1 7.842 7.842 0 00-2.374 4.083 5.6 5.6 0 003.832-2.424c.957-1.231 1.622-2.581 2.672-3.73" fill="#b7d2b6"/><path data-name="Path 5196" d="M34.084 195.543a10.237 10.237 0 011.184-9.686 12.288 12.288 0 01-1.184 9.686" fill="#b7d2b6"/><path data-name="Path 5197" d="M37.529 199.654a7.4 7.4 0 00-7.081 4.083.548.548 0 00-.047.554.534.534 0 00.47.14 6.177 6.177 0 003.651-1.887 35.887 35.887 0 013.039-2.887" fill="#b7d2b6"/><path data-name="Path 5198" d="M37.426 199.429a13.188 13.188 0 01-.131-7.367 3.581 3.581 0 011.572-2.389.239.239 0 01.391.134 4.4 4.4 0 01.37 2.112 13.328 13.328 0 01-.33 2.141 11.37 11.37 0 01-1.14 3.838 7.827 7.827 0 00-.455.843c-.137.292-.137.388-.262.615" fill="#b7d2b6"/><path data-name="Path 5199" d="M46.57 200.792a9.5 9.5 0 011.665-7.81c.12-.155.277-.321.472-.292.292.029.376.426.365.726a14.148 14.148 0 01-2.5 7.376" fill="#b7d2b6"/><path data-name="Path 5200" d="M47.389 201.355a11.36 11.36 0 009.318-1.9 7.548 7.548 0 00-5.046-.621 7.2 7.2 0 00-4.273 2.517" fill="#b7d2b6"/><path data-name="Path 5201" d="M48.083 199.64a10.763 10.763 0 018.458-4.891 5.218 5.218 0 01-2.765 3.059 15.292 15.292 0 01-4.063 1.187 2.851 2.851 0 00-1.63.645" fill="#b7d2b6"/><path data-name="Path 5202" d="M46.738 191.319a24.556 24.556 0 001.082-4.958 8.245 8.245 0 00-.986-4.9 10.784 10.784 0 00-.146 10.024" fill="#b7d2b6"/><path data-name="Path 5203" d="M52.248 188.534a13.3 13.3 0 019.77-6.647 10.89 10.89 0 01-9.77 6.647" fill="#b7d2b6"/><path data-name="Path 5204" d="M51.043 189.217c2.855.435 5.288 2.257 7.956 3.363a3.54 3.54 0 001.8.344 1.409 1.409 0 00.875-2.491 3.855 3.855 0 00-1.307-.79 14.508 14.508 0 00-9.082-.508" fill="#b7d2b6"/><path data-name="Path 5205" d="M49.392 191.217a3.32 3.32 0 011.379.957 14.845 14.845 0 006.031 3.1c.23.058.534.082.647-.128s-.026-.4-.157-.563a8.306 8.306 0 00-3.64-2.473 9.289 9.289 0 00-4.261-1.009" fill="#b7d2b6"/><path data-name="Path 5206" d="M47.529 179.126a11.421 11.421 0 008.75 2.978.606.606 0 00.4-.143c.222-.239-.044-.61-.292-.811a10.085 10.085 0 00-8.849-2.024" fill="#b7d2b6"/><path data-name="Path 5207" d="M49.74 178.318a12.194 12.194 0 0110.919-1.8 8.651 8.651 0 01-5.2 2.284 16.434 16.434 0 01-5.716-.481" fill="#b7d2b6"/><path data-name="Path 5208" d="M48.861 172.758c-.254-2.567-.09-4.594-.268-7.175-.015-.207-.058-.455-.251-.528-.268-.1-.493.227-.583.5a8.233 8.233 0 001.094 7.148" fill="#b7d2b6"/><path data-name="Path 5209" d="M48.675 173.044a14.964 14.964 0 004.255-4.136 5.643 5.643 0 001.356-3.937 4.1 4.1 0 00-3.068 1.522 8.6 8.6 0 00-1.563 3.147c-.341 1.132-.583 2.292-.98 3.4" fill="#b7d2b6"/><path data-name="Path 5210" d="M52.855 171.884a34.33 34.33 0 0010.47-6.174 5.392 5.392 0 00-3.931.292 12.4 12.4 0 00-6.591 5.833" fill="#b7d2b6"/><path data-name="Path 5211" d="M49.85 174.439a21.317 21.317 0 005.813.026 24.458 24.458 0 005.428-1.8.639.639 0 00.37-.292.42.42 0 00-.134-.464 1.088 1.088 0 00-.461-.219 10.012 10.012 0 00-5.865.35 27.152 27.152 0 00-5.151 2.4" fill="#b7d2b6"/><path data-name="Path 5212" d="M38.814 179.212a10.278 10.278 0 01-.093-8.51 6.5 6.5 0 01.752 4.232c-.146 1.455-.583 2.952-.618 4.413" fill="#b7d2b6"/><path data-name="Path 5213" d="M33.547 176.556a11.882 11.882 0 00-8.822 3.759 8.268 8.268 0 004.833-.9 24.287 24.287 0 004.139-2.771" fill="#b7d2b6"/><path data-name="Path 5214" d="M30.006 175.372a12.282 12.282 0 00-4.71.146 5.629 5.629 0 00-3.587 3.042 8.5 8.5 0 004.413-.834 25.143 25.143 0 003.885-2.354" fill="#b7d2b6"/><path data-name="Path 5215" d="M35.251 175.427a14.932 14.932 0 00-4.626-2.31 5.042 5.042 0 00-4.818 1.167 9 9 0 004.605.892 15.893 15.893 0 015.019.51" fill="#b7d2b6"/><path data-name="Path 5216" d="M35.259 175.503a10.741 10.741 0 01-2.421-10.126 15.419 15.419 0 012.421 10.126" fill="#b7d2b6"/><path data-name="Path 5217" d="M42.069 168.605c.467-1.085.8-2.225 1.213-3.331a9.625 9.625 0 011.732-3.071 4.561 4.561 0 013.068-1.589 12.354 12.354 0 01-5.953 8.009" fill="#b7d2b6"/><path data-name="Path 5218" d="M40.836 170.046a15.919 15.919 0 00-2.712-3.3 4.555 4.555 0 00-3.7-.971 8.6 8.6 0 006.416 4.273" fill="#b7d2b6"/><path data-name="Path 5219" d="M41.083 168.699a18.227 18.227 0 01-1.222-3.958 6.167 6.167 0 01.618-4.022 9.128 9.128 0 01.674 8.009" fill="#b7d2b6"/><path data-name="Path 5220" d="M42.081 160.731a8.626 8.626 0 015.623-5.285 2.126 2.126 0 01.986-.149.855.855 0 01.726.607c.09.435-.265.822-.6 1.111a19.135 19.135 0 01-6.731 3.716" fill="#b7d2b6"/><path data-name="Path 5221" d="M42.11 158.634a18.09 18.09 0 01.735-4.865 6.158 6.158 0 013.062-3.7 7.21 7.21 0 01-1.362 4.736 21.569 21.569 0 00-2.476 4.375" fill="#b7d2b6"/><path data-name="Path 5222" d="M42.07 159.765c-.636-1.858-.7-4.214-1.814-5.833-.779-1.132-2.021-1.9-2.692-3.1a4.707 4.707 0 00.157 3.52 10.164 10.164 0 002.042 2.943c.822.875 1.528 1.54 2.292 2.47" fill="#b7d2b6"/><path data-name="Path 5223" d="M42.081 214.448c-.05 0-.09-12.386-.1-27.663s.035-27.669.085-27.669.093 12.386.1 27.669-.036 27.663-.085 27.663z" fill="#263238"/><path data-name="Path 5224" d="M52.907 177.355a2.8 2.8 0 01-.467.175l-1.28.408c-1.082.37-2.567.9-4.176 1.563a15.723 15.723 0 00-3.958 1.983 2.916 2.916 0 00-.8 1.05c-.122.292-.143.47-.16.467s0-.044 0-.131a1.983 1.983 0 01.09-.359 2.82 2.82 0 01.776-1.123 7 7 0 011.718-1.065 60.029 60.029 0 012.254-.989 56.704 56.704 0 014.206-1.517c.548-.169.992-.292 1.3-.379a2.919 2.919 0 01.497-.083z" fill="#263238"/><path data-name="Path 5225" d="M56.453 168.629a.783.783 0 01-.128.14l-.4.373-1.482 1.347-4.941 4.4c-1.928 1.715-3.593 3.354-4.748 4.591a47.739 47.739 0 00-1.345 1.484l-.359.408a.854.854 0 01-.134.137.717.717 0 01.1-.16c.076-.1.187-.248.335-.432.292-.37.735-.9 1.3-1.525a63.122 63.122 0 014.722-4.637c1.937-1.712 3.7-3.249 4.976-4.36l1.522-1.3.42-.35a.823.823 0 01.162-.116z" fill="#263238"/><path data-name="Path 5226" d="M47.424 176.632c-.053-.023.35-.954.752-2.129s.583-2.167.647-2.158a6.639 6.639 0 01-.478 2.217 14.215 14.215 0 01-.6 1.487 2.4 2.4 0 01-.321.583z" fill="#263238"/><path data-name="Path 5227" d="M42.093 184.13a2.628 2.628 0 01-.292-.344l-.773-.977c-.639-.825-1.522-1.966-2.514-3.208s-1.9-2.368-2.561-3.176l-.758-.971a2.563 2.563 0 01-.268-.367 1.908 1.908 0 01.324.321c.2.216.478.531.82.927a103.916 103.916 0 015.076 6.399c.292.423.551.767.715 1.009a2.167 2.167 0 01.231.387z" fill="#263238"/><path data-name="Path 5228" d="M39.718 181.083a4.369 4.369 0 01-.995-1.861 5.331 5.331 0 01-.225-1.878h.079c-.035.146-.061.222-.076.219s0-.082 0-.23h.079a8.676 8.676 0 00.318 1.826 14 14 0 00.82 1.924z" fill="#263238"/><path data-name="Path 5229" d="M36.653 177.227a3.377 3.377 0 00-.694-.4 4.667 4.667 0 00-1.928-.152 11.925 11.925 0 00-1.942.312 6.119 6.119 0 01-.8.193 2.67 2.67 0 01.764-.315 9.021 9.021 0 011.974-.382 4.206 4.206 0 011.989.216 1.266 1.266 0 01.637.528z" fill="#263238"/><path data-name="Path 5230" d="M35.93 176.294c0 .029-.405-.16-1.065-.388a10.727 10.727 0 00-5.361-.408c-.685.122-1.1.251-1.111.222a1.071 1.071 0 01.292-.12 6.1 6.1 0 01.8-.225 9.444 9.444 0 015.413.414 6.549 6.549 0 01.758.344 1.068 1.068 0 01.274.161z" fill="#263238"/><path data-name="Path 5231" d="M42.069 172.344a22.935 22.935 0 01-.776-2.695 21.746 21.746 0 01-.6-2.739 21.641 21.641 0 01.773 2.695 22.761 22.761 0 01.603 2.739z" fill="#263238"/><path data-name="Path 5232" d="M42.119 172.344a12.759 12.759 0 00-.86-1.613 7.067 7.067 0 00-1.266-1.307 1.167 1.167 0 01.49.251 3.943 3.943 0 01.922.951 3.566 3.566 0 01.714 1.718z" fill="#263238"/><path data-name="Path 5233" d="M42.081 207.847c-.017 0-.055-.292-.2-.825a11.559 11.559 0 00-.828-2.144 30.092 30.092 0 00-4.375-6.189c-.983-1.12-1.934-2.176-2.742-3.188a22.246 22.246 0 01-1.957-2.826 13.394 13.394 0 01-.989-2.093c-.093-.26-.157-.461-.2-.6a1.1 1.1 0 01-.05-.213c.015 0 .1.292.309.787a15.372 15.372 0 001.041 2.052 23.653 23.653 0 001.977 2.788c.811 1 1.75 2.042 2.747 3.173a28.378 28.378 0 014.375 6.25 10.657 10.657 0 01.779 2.184 6.017 6.017 0 01.111.621 1.027 1.027 0 01.002.223z" fill="#263238"/><path data-name="Path 5234" d="M51.863 196.799a4.584 4.584 0 01-.513.292 11.663 11.663 0 00-1.33.875 15 15 0 00-1.75 1.592c-.612.647-1.245 1.4-1.89 2.2-1.289 1.616-2.494 3.048-3.208 4.188a16.908 16.908 0 00-.808 1.38 4.081 4.081 0 01-.292.516.531.531 0 01.047-.146c.041-.093.09-.23.175-.4a12.931 12.931 0 01.761-1.415 45.793 45.793 0 013.182-4.235c.647-.8 1.286-1.56 1.91-2.2a13.972 13.972 0 011.788-1.581 9.23 9.23 0 011.374-.84c.172-.085.309-.137.4-.178a.405.405 0 01.154-.048z" fill="#263238"/><path data-name="Path 5235" d="M52.055 200.395a7.049 7.049 0 01-1.085.157 14.353 14.353 0 00-2.569.508 7.707 7.707 0 00-2.3 1.207c-.531.411-.779.75-.8.729a.819.819 0 01.16-.248 4.184 4.184 0 01.566-.583 7 7 0 012.333-1.277 11.548 11.548 0 012.625-.464 6.3 6.3 0 011.07-.029z" fill="#263238"/><path data-name="Path 5236" d="M45.612 202.587c-.058-.032.432-.779.808-1.782s.44-1.9.5-1.89a1.785 1.785 0 01-.017.583 6.247 6.247 0 01-.318 1.368 6.774 6.774 0 01-.627 1.257 1.867 1.867 0 01-.35.464z" fill="#263238"/><path data-name="Path 5237" d="M55.027 187.175a.723.723 0 01-.172.093l-.51.23c-.222.1-.493.216-.8.379s-.662.321-1.035.542l-.583.335c-.2.12-.408.26-.624.394-.435.265-.875.583-1.339.922a25.263 25.263 0 00-2.794 2.459 24.926 24.926 0 00-2.359 2.876c-.318.478-.627.925-.875 1.371-.125.219-.26.426-.37.636s-.216.408-.315.6c-.21.379-.362.744-.507 1.056s-.262.583-.353.811l-.213.516a.762.762 0 01-.085.175.816.816 0 01.05-.187c.05-.14.111-.315.184-.531s.181-.51.324-.825.292-.685.487-1.07q.149-.292.306-.612c.111-.21.239-.423.367-.645.245-.452.551-.9.875-1.388a22.124 22.124 0 015.191-5.372c.472-.332.916-.653 1.359-.916.219-.134.423-.271.633-.385l.6-.33c.376-.219.741-.373 1.053-.522s.583-.265.814-.353l.522-.2a.875.875 0 01.169-.058z" fill="#263238"/><path data-name="Path 5238" d="M47.29 192.364a1.257 1.257 0 01.426-.636 2.683 2.683 0 011.715-.656 4.623 4.623 0 011.805.353 2.523 2.523 0 01.682.33 4.029 4.029 0 01-.723-.21 5.363 5.363 0 00-1.75-.292 2.794 2.794 0 00-1.639.583 5.222 5.222 0 00-.516.528z" fill="#263238"/><path data-name="Path 5239" d="M46.132 193.556a6.445 6.445 0 00.487-1.584 7.5 7.5 0 00-.108-1.654c.055-.015.117.158.2.461a3.29 3.29 0 01-.277 2.374c-.157.275-.285.418-.302.403z" fill="#263238"/><path data-name="Path 5240" d="M33.527 209.62a40.913 40.913 0 003.888 14.416h9.54a41.406 41.406 0 003.657-14.416z" fill="#263238"/><path data-name="Path 5241" d="M49.066 217.281c0 .05-3.141.09-7.017.09s-7.017-.041-7.017-.09 3.141-.09 7.017-.09 7.017.041 7.017.09z" fill="#fafafa"/><path data-name="Path 5242" d="M48.853 218.996c0 .05-2.946.09-6.577.09s-6.58-.041-6.58-.09 2.946-.09 6.58-.09 6.577.041 6.577.09z" fill="#fafafa"/></g><g><path data-name="Path 5243" d="M114.391 77.075l.015 4.5 1.674.731h-2.2l-.41 2.824 39.779 4.291 3.96-6.236z" fill="#f5f5f5"/><path data-name="Path 5244" d="M108.244 86.615l.518-2.622 4.923.578 23.025 2.7-.854 2.854z" fill="#263238"/><path data-name="Path 5245" d="M152.423 91.947l-22.4-2.469a7.52 7.52 0 018.078-5.219l17.657 2.118z" fill="#455a64"/><path data-name="Path 5246" d="M182.557 86.461l.04 15.139-77.913.208a7.17 7.17 0 017.155-7.194l35.058-.094 8.987-12.32 22.521.114a4.153 4.153 0 014.153 4.148z" fill="#b7d2b6"/><path data-name="Path 5247" d="M182.296 98.667c0 .069-17.223.128-38.465.128s-38.47-.059-38.47-.128 17.218-.128 38.47-.128 38.465.059 38.465.128z" fill="#263238"/><path data-name="Path 5248" d="M257.212 110.401l-30.5 17.1v-3.9l29.177-15.277z" fill="#f5f5f5"/><path data-name="Path 5249" d="M226.711 127.509l23.988-13.47 2 2.859-14.818 8.794-.094 3.827-11.08 6.024z" fill="#263238"/><path data-name="Path 5250" d="M226.711 164.621l23.988-13.475 2 2.859-14.818 8.801-.094 3.822-11.08 6.024z" fill="#263238"/><path data-name="Path 5251" d="M226.711 153.729h-63.514v-39.69h58.942a4.572 4.572 0 014.572 4.573z" fill="#b7d2b6"/><path data-name="Rectangle 1354" fill="#b7d2b6" d="M226.711 201.674h-63.519v-46.469h63.519z"/><path data-name="Path 5252" d="M227.061 192.885h26.965v2.464l-27.33 2.928z" fill="#263238"/><path data-name="Path 5253" d="M230.948 202.573a2.331 2.331 0 002.331-2.331v-2.331a2.331 2.331 0 00-2.331-2.331 2.331 2.331 0 00-2.331 2.331v2.331a2.331 2.331 0 002.331 2.331z" fill="#263238"/><path data-name="Path 5254" d="M251.104 194.347v-8.044h-3.659v8.592z" fill="#263238"/><path data-name="Rectangle 1355" fill="#b7d2b6" d="M226.691 218.102h-63.5v-14.798h63.5z"/><path data-name="Path 5255" d="M226.711 153.729h-63.514v-39.69h58.942a4.572 4.572 0 014.572 4.573z" opacity=".6"/><path data-name="Rectangle 1356" opacity=".6" d="M226.711 201.674h-63.519v-46.469h63.519z"/><path data-name="Rectangle 1357" opacity=".6" d="M226.691 218.102h-63.5v-14.798h63.5z"/><path data-name="Rectangle 1358" fill="#b7d2b6" d="M226.691 224.092h-63.5v-5.994h63.5z"/><path data-name="Rectangle 1359" fill="#b7d2b6" d="M177.491 218.443H109.35V108.306h68.141z"/><path data-name="Rectangle 1360" opacity=".3" d="M177.491 218.443H109.35V108.306h68.141z"/><path data-name="Rectangle 1361" fill="#b7d2b6" d="M132.148 137.676h-26.382v-30.9h26.382z"/><path data-name="Path 5256" d="M182.597 101.527v5.925a2.469 2.469 0 01-2.469 2.469h-74.363v-8.394z" fill="#b7d2b6"/><path data-name="Path 5257" d="M147.975 119.807v-18.27h-42.21v15.016a3.264 3.264 0 003.264 3.264h38.946" fill="#263238"/><path data-name="Rectangle 1362" fill="#455a64" d="M145.026 115.654h-22.398v-11.658h22.398z"/><path data-name="Rectangle 1363" fill="#455a64" d="M118.954 105.255h-1.259v-1.259h1.259z"/><path data-name="Rectangle 1364" fill="#455a64" d="M116.53 105.255h-1.259v-1.259h1.259z"/><path data-name="Rectangle 1365" fill="#455a64" d="M114.095 105.255h-1.259v-1.259h1.259z"/><path data-name="Rectangle 1366" fill="#f5f5f5" d="M111.177 105.255h-3.397v-1.259h3.397z"/><path data-name="Rectangle 1367" fill="#f5f5f5" d="M111.177 107.403h-3.397v-1.259h3.397z"/><path data-name="Rectangle 1368" fill="#f5f5f5" d="M111.177 109.565h-3.397v-1.259h3.397z"/><path data-name="Rectangle 1369" fill="#f5f5f5" d="M111.177 111.876h-3.397v-1.259h3.397z"/><path data-name="Rectangle 1370" fill="#455a64" d="M114.095 107.442h-1.259v-1.259h1.259z"/><path data-name="Rectangle 1371" fill="#455a64" d="M118.954 107.511h-1.259v-1.259h1.259z"/><path data-name="Rectangle 1372" fill="#455a64" d="M118.954 109.605h-1.259v-1.259h1.259z"/><path data-name="Rectangle 1373" fill="#455a64" d="M116.446 107.511h-1.259v-1.259h1.259z"/><path data-name="Rectangle 1374" fill="#455a64" d="M116.446 109.605h-1.259v-1.259h1.259z"/><path data-name="Rectangle 1375" fill="#455a64" d="M113.987 109.605h-1.259v-1.259h1.259z"/><path data-name="Path 5258" d="M111.444 114.547a2.187 2.187 0 102.187-2.187 2.187 2.187 0 00-2.187 2.187z" fill="#b7d2b6"/><path data-name="Path 5259" d="M116.638 114.548a1.294 1.294 0 101.29-1.294 1.294 1.294 0 00-1.29 1.294z" fill="#455a64"/><path data-name="Path 5260" d="M108.057 114.568a1.294 1.294 0 101.294-1.294 1.294 1.294 0 00-1.294 1.294z" fill="#455a64"/><path data-name="Path 5261" d="M182.513 172.31h-76.748v-34.629h72.516a4.232 4.232 0 014.232 4.229z" fill="#b7d2b6"/><path data-name="Path 5262" d="M182.513 185.597h-76.748v-10.231a2.336 2.336 0 012.336-2.336h71.074a3.338 3.338 0 013.338 3.338z" fill="#b7d2b6"/><path data-name="Path 5263" d="M154.032 178.852h-19.46a2.553 2.553 0 01-2.552-2.553v-3.269h24.56v3.269a2.553 2.553 0 01-2.548 2.553z" opacity=".3"/><path data-name="Path 5264" d="M182.518 211.501h-76.753v-21.879a3.521 3.521 0 013.521-3.521h69.711a3.521 3.521 0 013.521 3.521v21.879z" fill="#b7d2b6"/><path data-name="Path 5265" d="M154.032 191.922h-19.46a2.553 2.553 0 01-2.552-2.553V186.1h24.56v3.269a2.553 2.553 0 01-2.548 2.553z" opacity=".3"/><path data-name="Rectangle 1376" fill="#b7d2b6" d="M182.513 224.097h-76.748v-11.303h76.748z"/><path data-name="Rectangle 1377" fill="#263238" d="M162.268 131.158h-30.12v-1.891h30.12z"/><path data-name="Rectangle 1378" fill="#f5f5f5" d="M172.687 129.272h-40.539v-7.041h40.539z"/><path data-name="Path 5266" d="M132.266 105.518c0 .074 2.5.128 5.59.128s5.59-.054 5.59-.128-2.5-.133-5.59-.133-5.59.062-5.59.133z" fill="#fafafa"/><path data-name="Path 5267" d="M138.705 107.323a21.945 21.945 0 004.74 0 21.134 21.134 0 00-4.74 0z" fill="#fafafa"/><path data-name="Path 5268" d="M138.705 109.229a21.135 21.135 0 004.74 0 21.133 21.133 0 00-4.74 0z" fill="#fafafa"/><path data-name="Path 5269" d="M138.567 112.36a21.09 21.09 0 004.735 0 21.09 21.09 0 00-4.735 0z" fill="#fafafa"/><path data-name="Path 5270" d="M125.595 112.36a21.134 21.134 0 004.74 0 21.134 21.134 0 00-4.74 0z" fill="#fafafa"/><path data-name="Rectangle 1379" fill="#fff" opacity=".5" d="M182.513 224.097h-76.748v-11.303h76.748z"/><path data-name="Path 5271" d="M105.81 168.942c0 .074 17.149.133 38.3.133s38.3-.059 38.3-.133-17.144-.133-38.3-.133-38.3.059-38.3.133z" fill="#263238"/><path data-name="Path 5272" d="M105.81 166.127c0 .074 17.149.133 38.3.133s38.3-.059 38.3-.133-17.144-.133-38.3-.133-38.3.059-38.3.133z" fill="#263238"/><path data-name="Path 5273" d="M105.81 163.322c0 .074 17.149.133 38.3.133s38.3-.059 38.3-.133-17.144-.133-38.3-.133-38.3.049-38.3.133z" fill="#263238"/><path data-name="Path 5274" d="M105.81 160.498c0 .074 17.149.128 38.3.128s38.3-.054 38.3-.128-17.144-.138-38.3-.138-38.3.064-38.3.138z" fill="#263238"/><path data-name="Path 5275" d="M105.672 185.587c0 .074 17.228.128 38.475.128s38.48-.054 38.48-.128-17.223-.133-38.48-.133-38.475.059-38.475.133z" fill="#263238"/><path data-name="Path 5276" d="M105.672 211.495c0 .074 17.228.133 38.475.133s38.48-.059 38.48-.133-17.223-.133-38.48-.133-38.475.059-38.475.133z" fill="#263238"/><path data-name="Path 5277" d="M132.02 173.035a1.715 1.715 0 00-.035.341c0 .247-.035.573-.064.988a10 10 0 000 1.555 3.536 3.536 0 00.751 1.931 2.568 2.568 0 00.988.726 7.05 7.05 0 001.269.341 17.911 17.911 0 002.859.267c2.02 0 4.222-.035 6.547-.059l6.543-.1c.988 0 1.975 0 2.859-.074a3.9 3.9 0 001.314-.321 2.469 2.469 0 00.988-.75 3.555 3.555 0 00.7-1.945 14.434 14.434 0 000-1.555c0-.43-.04-.755-.059-.988a.171.171 0 10-.049 0v.988c0 .41 0 .948-.039 1.541a3.427 3.427 0 01-.7 1.847 2.267 2.267 0 01-.909.681 3.861 3.861 0 01-1.225.257c-.879.049-1.847.03-2.849.049l-6.543.079c-2.321 0-4.533.084-6.538.079a18.019 18.019 0 01-2.824-.242 6.49 6.49 0 01-1.229-.311 2.366 2.366 0 01-.928-.657 3.427 3.427 0 01-.751-1.827 11.042 11.042 0 01-.03-1.536v-.988a2.307 2.307 0 00-.044-.321z" fill="#263238"/><path data-name="Path 5278" d="M132.02 185.869a1.715 1.715 0 00-.035.341c0 .252-.035.573-.064.988a10 10 0 000 1.555 3.536 3.536 0 00.751 1.931 2.519 2.519 0 00.988.726 7.051 7.051 0 001.269.341 17.9 17.9 0 002.859.267c2.02 0 4.222-.035 6.547-.059l6.543-.1c.988 0 1.975 0 2.859-.069a4.153 4.153 0 001.313-.321 2.518 2.518 0 00.988-.751 3.585 3.585 0 00.7-1.95 14.4 14.4 0 000-1.555c0-.43-.04-.755-.059-.988a.171.171 0 10-.049 0v.988c0 .41 0 .948-.039 1.541a3.427 3.427 0 01-.7 1.847 2.267 2.267 0 01-.909.681 3.862 3.862 0 01-1.225.257c-.879.049-1.847.03-2.849.049l-6.543.079c-2.321 0-4.533.084-6.538.079a18.019 18.019 0 01-2.824-.242 6.486 6.486 0 01-1.229-.311 2.365 2.365 0 01-.928-.657 3.427 3.427 0 01-.751-1.827 11.042 11.042 0 01-.03-1.536v-.988a2.308 2.308 0 00-.044-.321z" fill="#263238"/></g><g><path data-name="Path 5279" d="M300.745 223.707c0 .065-67.328.121-150.366.121S0 223.772 0 223.707s67.314-.12 150.38-.12 150.365.056 150.365.12z" fill="#263238"/></g><g data-name="Group 2878"><g data-name="Ellipse 17" transform="translate(122.478)" fill="#fff" stroke="#3b7937" opacity=".155"><circle cx="32.003" cy="32.003" r="32.003" stroke="none"/><circle cx="32.003" cy="32.003" r="31.503" fill="none"/></g><g data-name="Ellipse 16" transform="translate(124.82 2.342)" fill="#fff" stroke="rgba(59,121,55,0.38)" stroke-width="3"><circle cx="29.661" cy="29.661" r="29.661" stroke="none"/><circle cx="29.661" cy="29.661" r="28.161" fill="none"/></g><path data-name="Path 6561" d="M165.726 22.786l-15.861 15.86-5.607-5.607a.68.68 0 00-.961 0l-.641.641a.68.68 0 000 .961l6.729 6.729a.68.68 0 00.961 0l16.982-16.982a.68.68 0 000-.961l-.641-.641a.68.68 0 00-.961 0z" fill="#4b8447"/></g></g></svg>