<svg xmlns="http://www.w3.org/2000/svg" width="35" height="27.689" viewBox="0 0 35 27.689"><g transform="translate(-12.215 -19.064)"><path d="M36.014,59.472H34.133v.857H45.26V49.2H34.133v.857h1.881a.512.512,0,0,1,0,1.024H34.133v1.073h1.881a.512.512,0,0,1,0,1.024H34.133v1.073h1.881a.512.512,0,0,1,0,1.024H34.133v1.073h1.881a.512.512,0,1,1,0,1.024H34.133v1.073h1.881a.512.512,0,0,1,0,1.024Z" transform="translate(-9.981 -13.577)" fill="#007e28"/><path d="M23.652,26.47a.567.567,0,0,1,.731,0l1.31,1.124,1.394-1.2a.567.567,0,0,1,.731,0l1.395,1.2,1.31-1.124a.567.567,0,0,1,.731,0l1.31,1.124,1.531-1.314a.567.567,0,0,1,.731,0l1.531,1.314,1.31-1.124a.567.567,0,0,1,.731,0l1.31,1.124L41.1,26.4a.567.567,0,0,1,.731,0l1.394,1.2,1.31-1.124a.567.567,0,0,1,.731,0l1.31,1.124.409-.351-12.525-8.18-12.525,8.18.408.351Z" transform="translate(-4.743)" fill="#007e28"/><path d="M22.847,42.293a.539.539,0,0,1,.534-.544H36.05a.539.539,0,0,1,.534.544v12.36H47.215L43.134,35.917l-.206-.145-.943.874a.526.526,0,0,1-.718,0l-1.288-1.194-1.288,1.194a.526.526,0,0,1-.718,0L36.6,35.376l-1.37,1.271a.526.526,0,0,1-.718,0l-1.288-1.194-1.288,1.194a.526.526,0,0,1-.718,0l-1.5-1.4-1.5,1.4a.526.526,0,0,1-.718,0L26.2,35.453l-1.288,1.194a.526.526,0,0,1-.718,0l-1.371-1.271-1.37,1.271a.526.526,0,0,1-.718,0l-1.288-1.194-1.288,1.194a.526.526,0,0,1-.719,0l-.943-.874-.206.145L12.215,54.653H22.847V42.293Z" transform="translate(0 -7.9)" fill="#007e28"/></g></svg>